SplineFontDB: 3.2
FontName: Virilica
FullName: Virilica
FamilyName: Virilica
Weight: Regular
Copyright: Copyright (c) 2020. Vesko Radic
UComments: "2020-9-23: Created with FontForge (http://fontforge.org)"
Version: 0.2
ItalicAngle: 0
UnderlinePosition: -100
UnderlineWidth: 50
Ascent: 800
Descent: 200
InvalidEm: 0
LayerCount: 2
Layer: 0 0 "Back" 1
Layer: 1 0 "Fore" 0
XUID: [1021 710 1757882239 10821674]
StyleMap: 0x0000
FSType: 0
OS2Version: 0
OS2_WeightWidthSlopeOnly: 0
OS2_UseTypoMetrics: 1
CreationTime: 1600893173
ModificationTime: 1603657956
OS2TypoAscent: 0
OS2TypoAOffset: 1
OS2TypoDescent: 0
OS2TypoDOffset: 1
OS2TypoLinegap: 90
OS2WinAscent: 0
OS2WinAOffset: 1
OS2WinDescent: 0
OS2WinDOffset: 1
HheadAscent: 0
HheadAOffset: 1
HheadDescent: 0
HheadDOffset: 1
Lookup: 1 0 0 "'cv01' Character Variants 01 lookup 0" { "'cv01' Character Variants 01 lookup 0 subtable"  } ['cv01' ('DFLT' <'dflt' > 'cyrl' <'SRB ' 'dflt' > 'latn' <'SRB ' 'dflt' > ) ]
Lookup: 1 0 0 "'cv03' Character Variants 03 lookup 2" { "'cv03' Character Variants 03 lookup 2 subtable"  } ['cv03' ('DFLT' <'dflt' > 'latn' <'SRB ' 'dflt' > ) ]
Lookup: 1 0 0 "'cv04' Character Variants 04 lookup 3" { "'cv04' Character Variants 04 lookup 3 subtable"  } ['cv04' ('DFLT' <'dflt' > 'cyrl' <'SRB ' 'dflt' > ) ]
Lookup: 1 0 0 "'cv02' Character Variants 02 lookup 1" { "'cv02' Character Variants 02 lookup 1 subtable"  } ['cv02' ('DFLT' <'dflt' > 'cyrl' <'SRB ' 'dflt' > 'latn' <'SRB ' 'dflt' > ) ]
Lookup: 1 0 0 "'zero' Slashed Zero lookup 5" { "'zero' Slashed Zero lookup 5 subtable"  } ['zero' ('DFLT' <'dflt' > 'cyrl' <'SRB ' 'dflt' > 'latn' <'SRB ' 'dflt' > ) ]
Lookup: 1 0 0 "'cv05' Character Variants 05 lookup 4" { "'cv05' Character Variants 05 lookup 4 subtable"  } ['cv05' ('DFLT' <'dflt' > 'cyrl' <'SRB ' 'dflt' > 'latn' <'SRB ' 'dflt' > ) ]

StartChar: uni0410
Encoding: 1040 1040 0
Width: 860
VWidth: 1030
Flags: HMW
LayerCount: 2
Fore
SplineSet
54 45 m 2
 404 645 l 2
 409 654 419 660 430 660 c 0
 441 660 451 654 456 645 c 2
 806 45 l 2
 809 40 810 35 810 30 c 0
 810 14 797 0 780 0 c 0
 769 0 759 6 754 15 c 2
 646 200 l 1
 214 200 l 5
 106 15 l 2
 101 6 91 0 80 0 c 0
 63 0 50 14 50 30 c 0
 50 35 51 40 54 45 c 2
611 260 m 1
 430 570 l 1
 249 260 l 1
 611 260 l 1
EndSplineSet
Validated: 1
Substitution2: "'cv01' Character Variants 01 lookup 0 subtable" A.alt
EndChar

StartChar: uni0411
Encoding: 1041 1041 1
Width: 860
VWidth: 1030
Flags: HMW
LayerCount: 2
Fore
SplineSet
700 330 m 0
 700 347 686 355 671 363 c 0
 593 402 461 408 341 408 c 0
 255 408 181 403 149 401 c 1
 205 65 l 1
 266 78 410 113 528 167 c 0
 584 193 633 223 664 255 c 0
 689 280 700 305 700 330 c 0
341 468 m 0
 468 468 611 460 699 416 c 0
 729 400 760 373 760 330 c 0
 760 279 733 236 695 201 c 0
 603 115 403 50 272 19 c 0
 233 9 214 5 185 0 c 0
 183 0 182 0 180 0 c 0
 165 0 152 11 150 25 c 2
 50 625 l 1
 50 630 l 2
 50 647 64 660 80 660 c 2
 780 660 l 2
 797 660 810 647 810 630 c 0
 810 613 797 600 780 600 c 2
 115 600 l 1
 139 461 l 1
 168 463 248 468 341 468 c 0
EndSplineSet
Validated: 1
EndChar

StartChar: uni0412
Encoding: 1042 1042 2
Width: 810
VWidth: 1030
Flags: HMW
LayerCount: 2
Fore
SplineSet
760 530 m 0
 760 478 730 436 691 401 c 0
 626 344 530 303 435 271 c 1
 472 269 506 263 535 255 c 0
 569 245 610 227 610 180 c 0
 610 118 561 80 517 59 c 0
 488 45 454 35 420 27 c 0
 307 0 180 0 180 0 c 1
 165 0 152 11 150 25 c 2
 50 625 l 1
 50 630 l 2
 50 647 63 659 78 660 c 2
 78 660 183 668 309 668 c 0
 414 668 534 662 623 641 c 0
 650 635 673 627 694 617 c 0
 726 601 760 574 760 530 c 0
700 530 m 0
 700 535 698 539 693 545 c 0
 674 564 645 574 609 583 c 0
 529 602 412 608 309 608 c 0
 227 608 155 604 115 602 c 1
 172 264 l 1
 223 274 357 303 479 351 c 0
 547 378 612 410 652 446 c 0
 685 475 700 503 700 530 c 0
205 61 m 1
 246 62 330 67 406 85 c 0
 456 96 505 114 534 143 c 0
 545 155 550 166 550 180 c 1
 550 180 550 189 518 198 c 0
 483 208 426 212 368 212 c 0
 293 212 219 207 182 203 c 1
 205 61 l 1
EndSplineSet
Validated: 1
EndChar

StartChar: uni0413
Encoding: 1043 1043 3
Width: 760
VWidth: 1030
Flags: HMW
LayerCount: 2
Fore
SplineSet
180 0 m 0
 165 0 152 11 150 25 c 2
 50 625 l 1
 50 630 l 2
 50 647 64 660 80 660 c 2
 680 660 l 2
 696 660 710 647 710 631 c 0
 710 628 709 624 708 621 c 2
 658 471 l 2
 654 459 643 450 630 450 c 0
 614 450 600 463 600 479 c 0
 600 482 601 486 602 489 c 2
 638 600 l 1
 115 600 l 1
 210 35 l 1
 210 30 l 2
 210 13 196 0 180 0 c 0
EndSplineSet
Validated: 1
EndChar

StartChar: uni0414
Encoding: 1044 1044 4
Width: 1060
VWidth: 1030
Flags: HMW
LayerCount: 2
Fore
SplineSet
130 -200 m 0
 116 -200 104 -190 101 -177 c 2
 51 23 l 2
 50 26 50 28 50 30 c 0
 50 47 64 60 80 60 c 2
 245 60 l 1
 150 625 l 2
 150 627 150 628 150 630 c 0
 150 647 164 660 180 660 c 2
 880 660 l 2
 896 660 910 647 910 630 c 0
 910 628 910 627 910 625 c 2
 815 60 l 1
 980 60 l 2
 996 60 1010 47 1010 30 c 0
 1010 28 1010 26 1009 23 c 2
 959 -177 l 2
 956 -190 944 -200 930 -200 c 0
 914 -200 900 -187 900 -170 c 0
 900 -168 900 -166 901 -163 c 2
 942 0 l 1
 118 0 l 1
 159 -163 l 2
 160 -166 160 -168 160 -170 c 0
 160 -187 146 -200 130 -200 c 0
755 60 m 1
 845 600 l 1
 215 600 l 1
 305 60 l 1
 755 60 l 1
EndSplineSet
Validated: 1
EndChar

StartChar: uni0415
Encoding: 1045 1045 5
Width: 860
VWidth: 1030
Flags: HMW
LayerCount: 2
Fore
SplineSet
780 600 m 2
 115 600 l 1
 172 260 l 1
 580 260 l 2
 597 260 610 247 610 230 c 0
 610 213 597 200 580 200 c 2
 182 200 l 1
 205 60 l 1
 680 60 l 2
 697 60 710 47 710 30 c 0
 710 13 697 0 680 0 c 2
 180 0 l 2
 165 0 152 11 150 25 c 2
 50 625 l 2
 50 627 50 628 50 630 c 0
 50 647 64 660 80 660 c 2
 780 660 l 2
 797 660 810 647 810 630 c 0
 810 613 797 600 780 600 c 2
EndSplineSet
Validated: 1
EndChar

StartChar: uni0402
Encoding: 1026 1026 6
Width: 910
VWidth: 1030
Flags: HMW
LayerCount: 2
Fore
SplineSet
80 660 m 0
 213 660 347 660 480 660 c 0
 497 660 510 647 510 630 c 0
 510 613 497 600 480 600 c 2
 211 600 l 1
 260 310 l 1
 284 312 363 318 457 318 c 0
 550 318 657 313 737 291 c 0
 761 285 782 277 801 266 c 0
 830 250 860 222 860 180 c 0
 860 133 844 90 820 52 c 0
 790 4 747 -37 703 -72 c 0
 603 -150 493 -197 492 -198 c 0
 488 -200 484 -200 480 -200 c 0
 464 -200 450 -186 450 -170 c 0
 450 -158 457 -147 468 -142 c 1
 468 -142 573 -98 666 -25 c 0
 707 7 744 45 769 84 c 0
 789 115 800 148 800 180 c 0
 800 197 787 205 772 214 c 0
 759 221 742 227 721 233 c 0
 651 252 548 258 457 258 c 0
 370 258 300 253 270 251 c 1
 306 35 l 2
 306 33 306 32 306 30 c 0
 306 13 292 0 276 0 c 0
 261 0 248 11 246 25 c 2
 151 600 l 1
 80 600 l 2
 63 600 50 613 50 630 c 0
 50 647 63 660 80 660 c 0
EndSplineSet
Validated: 1
EndChar

StartChar: uni040B
Encoding: 1035 1035 7
Width: 910
VWidth: 1030
Flags: HMW
LayerCount: 2
Fore
SplineSet
80 660 m 0
 213 660 347 660 480 660 c 0
 497 660 510 647 510 630 c 0
 510 613 497 600 480 600 c 2
 211 600 l 1
 260 310 l 1
 284 312 363 318 457 318 c 0
 550 318 657 313 737 291 c 0
 761 285 782 277 801 266 c 0
 830 250 860 222 860 180 c 0
 860 126 836 84 811 56 c 0
 779 21 745 4 743 3 c 0
 739 1 734 0 730 0 c 0
 714 0 700 13 700 30 c 0
 700 42 707 52 717 57 c 1
 717 57 742 69 766 96 c 0
 785 117 800 145 800 180 c 0
 800 197 787 205 772 214 c 0
 759 221 742 227 721 233 c 0
 651 252 548 258 457 258 c 0
 370 258 300 253 270 251 c 1
 306 35 l 2
 306 33 306 32 306 30 c 0
 306 13 292 0 276 0 c 0
 261 0 248 11 246 25 c 2
 151 600 l 1
 80 600 l 2
 63 600 50 613 50 630 c 0
 50 647 63 660 80 660 c 0
EndSplineSet
Validated: 1
EndChar

StartChar: uni0416
Encoding: 1046 1046 8
Width: 960
VWidth: 1030
Flags: HMW
LayerCount: 2
Fore
SplineSet
510 530 m 2
 510 329 l 1
 860 652 l 2
 865 657 872 660 880 660 c 0
 897 660 910 647 910 630 c 0
 910 621 906 613 900 608 c 2
 524 261 l 1
 750 52 l 2
 756 47 760 39 760 30 c 0
 760 13 747 0 730 0 c 0
 722 0 715 3 710 8 c 2
 510 192 l 1
 510 80 l 2
 510 63 497 50 480 50 c 0
 463 50 450 63 450 80 c 2
 450 192 l 1
 250 8 l 2
 245 3 238 0 230 0 c 0
 213 0 200 13 200 30 c 0
 200 39 204 47 210 52 c 2
 436 261 l 1
 60 608 l 2
 54 613 50 621 50 630 c 0
 50 647 63 660 80 660 c 0
 88 660 95 657 100 652 c 2
 450 329 l 1
 450 530 l 2
 450 547 463 560 480 560 c 0
 497 560 510 547 510 530 c 2
EndSplineSet
Validated: 1
Substitution2: "'cv04' Character Variants 04 lookup 3 subtable" ZH.alt
EndChar

StartChar: uni0417
Encoding: 1047 1047 9
Width: 810
VWidth: 1030
Flags: HMW
LayerCount: 2
Fore
SplineSet
155 200 m 0
 138 200 125 213 125 230 c 0
 125 245 136 258 150 260 c 1
 150 260 324 290 479 351 c 0
 547 378 612 410 652 446 c 0
 685 475 700 503 700 530 c 0
 700 535 698 539 693 545 c 0
 674 564 645 574 609 583 c 0
 529 602 412 608 309 608 c 0
 182 608 83 600 80 600 c 0
 63 600 50 613 50 630 c 0
 50 646 63 659 78 660 c 2
 78 660 183 668 309 668 c 0
 414 668 534 662 623 641 c 0
 650 635 673 627 694 617 c 0
 726 601 760 574 760 530 c 0
 760 478 730 436 691 401 c 0
 626 344 530 303 435 271 c 1
 472 269 506 263 535 255 c 0
 569 245 610 226 610 180 c 0
 610 118 561 80 517 59 c 0
 488 45 454 35 420 27 c 0
 303 0 181 0 180 0 c 0
 163 0 150 13 150 30 c 0
 150 47 163 60 180 60 c 1
 180 60 300 60 406 85 c 0
 456 96 505 114 534 143 c 0
 545 155 550 166 550 180 c 1
 550 180 550 189 518 198 c 0
 483 208 425 212 367 212 c 0
 258 212 160 200 155 200 c 0
EndSplineSet
Validated: 1
EndChar

StartChar: uni0418
Encoding: 1048 1048 10
Width: 860
VWidth: 1030
Flags: HMW
LayerCount: 2
Fore
SplineSet
650 35 m 2
 735 543 l 1
 201 9 l 2
 196 4 188 0 180 0 c 0
 165 0 152 11 150 25 c 2
 50 625 l 2
 50 627 50 628 50 630 c 0
 50 647 64 660 80 660 c 0
 95 660 108 649 110 635 c 2
 200 92 l 1
 759 651 l 2
 764 656 772 660 780 660 c 0
 796 660 810 647 810 630 c 0
 810 628 810 627 810 625 c 2
 710 25 l 2
 708 11 695 0 680 0 c 0
 664 0 650 13 650 30 c 0
 650 32 650 33 650 35 c 2
EndSplineSet
Validated: 1
EndChar

StartChar: uni0408
Encoding: 1032 1032 11
Width: 757
VWidth: 1030
Flags: HMW
LayerCount: 2
Fore
SplineSet
593 660 m 0
 605 660 615 653 620 642 c 0
 620 641 647 580 671 496 c 0
 690 429 707 347 707 271 c 0
 707 214 698 158 668 113 c 0
 613 31 490 -11 361 -11 c 0
 234 -11 112 30 66 116 c 0
 54 138 50 160 50 179 c 0
 50 217 66 243 67 245 c 0
 72 254 82 260 93 260 c 0
 110 260 122 247 122 231 c 0
 122 219 118 217 114 204 c 0
 111 196 110 187 110 179 c 0
 110 167 113 156 119 144 c 0
 153 80 260 49 361 49 c 0
 468 49 575 82 618 147 c 0
 638 177 647 220 647 271 c 0
 647 424 565 618 565 618 c 1
 563 622 563 626 563 630 c 0
 563 646 577 660 593 660 c 0
EndSplineSet
Validated: 1
EndChar

StartChar: uni041A
Encoding: 1050 1050 12
Width: 860
VWidth: 1030
Flags: HMW
LayerCount: 2
Fore
SplineSet
810 630 m 0
 810 619 804 610 796 605 c 2
 217 234 l 1
 593 57 l 2
 603 52 610 42 610 30 c 0
 610 13 596 0 580 0 c 0
 576 0 571 1 567 3 c 2
 185 183 l 1
 210 35 l 2
 210 33 210 32 210 30 c 0
 210 13 196 0 180 0 c 0
 165 0 152 11 150 25 c 2
 50 625 l 2
 50 627 50 628 50 630 c 0
 50 647 64 660 80 660 c 0
 95 660 108 649 110 635 c 2
 170 275 l 1
 764 655 l 2
 769 658 775 660 780 660 c 0
 796 660 810 647 810 630 c 0
EndSplineSet
Validated: 1
EndChar

StartChar: uni041C
Encoding: 1052 1052 13
Width: 960
VWidth: 1030
Flags: HMW
LayerCount: 2
Fore
SplineSet
180 0 m 0
 165 0 152 11 150 25 c 2
 50 625 l 2
 50 627 50 628 50 630 c 0
 50 647 64 660 80 660 c 0
 88 660 96 656 101 651 c 2
 480 272 l 1
 859 651 l 2
 864 656 872 660 880 660 c 0
 896 660 910 647 910 630 c 0
 910 628 910 627 910 625 c 2
 810 25 l 2
 808 11 795 0 780 0 c 0
 764 0 750 13 750 30 c 0
 750 32 750 33 750 35 c 2
 835 543 l 1
 501 209 l 2
 495 203 488 201 480 201 c 0
 472 201 465 203 459 209 c 2
 125 543 l 1
 210 35 l 2
 210 33 210 32 210 30 c 0
 210 13 196 0 180 0 c 0
EndSplineSet
Validated: 1
EndChar

StartChar: uni041D
Encoding: 1053 1053 14
Width: 860
VWidth: 1030
Flags: HMW
LayerCount: 2
Fore
SplineSet
810 625 m 2
 710 25 l 2
 708 11 695 0 680 0 c 0
 664 0 650 13 650 30 c 0
 650 32 650 33 650 35 c 2
 678 200 l 1
 182 200 l 1
 210 35 l 2
 210 33 210 32 210 30 c 0
 210 13 196 0 180 0 c 0
 165 0 152 11 150 25 c 2
 50 625 l 2
 50 627 50 628 50 630 c 0
 50 647 64 660 80 660 c 0
 95 660 108 649 110 635 c 2
 172 260 l 1
 688 260 l 1
 750 635 l 2
 752 649 765 660 780 660 c 0
 796 660 810 647 810 630 c 0
 810 628 810 627 810 625 c 2
EndSplineSet
Validated: 1
EndChar

StartChar: uni041F
Encoding: 1055 1055 15
Width: 860
VWidth: 1030
Flags: HMW
LayerCount: 2
Fore
SplineSet
180 0 m 0
 165 0 152 11 150 25 c 2
 50 625 l 2
 50 627 50 628 50 630 c 0
 50 647 64 660 80 660 c 2
 780 660 l 2
 796 660 810 647 810 630 c 0
 810 628 810 627 810 625 c 2
 710 25 l 2
 708 11 695 0 680 0 c 0
 664 0 650 13 650 30 c 0
 650 32 650 33 650 35 c 2
 745 600 l 1
 115 600 l 1
 210 35 l 2
 210 33 210 32 210 30 c 0
 210 13 196 0 180 0 c 0
EndSplineSet
Validated: 1
EndChar

StartChar: uni0420
Encoding: 1056 1056 16
Width: 860
VWidth: 1030
Flags: HMW
LayerCount: 2
Fore
SplineSet
115 602 m 1
 172 263 l 1
 226 273 374 302 509 351 c 0
 584 378 654 411 698 447 c 0
 734 476 750 504 750 530 c 0
 750 546 732 555 715 563 c 0
 698 571 677 577 651 583 c 0
 564 602 437 608 326 608 c 0
 235 608 158 604 115 602 c 1
181 204 m 1
 210 35 l 2
 210 33 210 32 210 30 c 0
 210 13 196 0 180 0 c 0
 165 0 152 11 150 25 c 2
 50 625 l 2
 50 626 50 627 50 628 c 0
 50 644 62 660 78 660 c 2
 78 660 190 668 326 668 c 0
 439 668 568 662 664 641 c 0
 713 630 756 616 786 586 c 0
 800 571 810 552 810 530 c 0
 810 477 777 434 735 400 c 0
 681 357 608 322 530 294 c 0
 390 243 236 214 181 204 c 1
EndSplineSet
Validated: 1
EndChar

StartChar: uni0422
Encoding: 1058 1058 17
Width: 860
VWidth: 1030
Flags: HMW
LayerCount: 2
Fore
SplineSet
80 660 m 0
 313 660 547 660 780 660 c 0
 797 660 810 647 810 630 c 0
 810 613 797 600 780 600 c 2
 460 600 l 1
 460 30 l 2
 460 13 447 0 430 0 c 0
 413 0 400 13 400 30 c 2
 400 600 l 1
 80 600 l 2
 63 600 50 613 50 630 c 0
 50 647 63 660 80 660 c 0
EndSplineSet
Validated: 1
EndChar

StartChar: uni0423
Encoding: 1059 1059 18
Width: 860
VWidth: 1030
Flags: HMW
LayerCount: 2
Fore
SplineSet
810 630 m 0
 810 623 807 616 803 611 c 2
 303 11 l 2
 297 4 289 0 280 0 c 0
 263 0 250 13 250 30 c 0
 250 37 253 44 257 49 c 2
 399 220 l 1
 57 610 l 2
 52 615 50 622 50 630 c 0
 50 647 63 660 80 660 c 0
 89 660 97 656 103 650 c 2
 438 266 l 1
 757 649 l 2
 763 656 771 660 780 660 c 0
 797 660 810 647 810 630 c 0
EndSplineSet
Validated: 1
EndChar

StartChar: uni0425
Encoding: 1061 1061 19
Width: 860
VWidth: 1030
Flags: HMW
LayerCount: 2
Fore
SplineSet
80 660 m 0
 89 660 97 656 102 650 c 2
 430 293 l 1
 758 650 l 2
 763 656 771 660 780 660 c 0
 797 660 810 647 810 630 c 0
 810 622 807 615 802 610 c 2
 471 248 l 1
 652 50 l 2
 657 45 660 38 660 30 c 0
 660 13 647 0 630 0 c 0
 621 0 613 4 608 10 c 2
 430 204 l 1
 252 10 l 2
 247 4 239 0 230 0 c 0
 213 0 200 13 200 30 c 0
 200 38 203 45 208 50 c 2
 389 248 l 1
 58 610 l 2
 53 615 50 622 50 630 c 0
 50 647 63 660 80 660 c 0
EndSplineSet
Validated: 1
EndChar

StartChar: uni0426
Encoding: 1062 1062 20
Width: 960
VWidth: 1030
Flags: HMW
LayerCount: 2
Fore
SplineSet
80 660 m 0
 95 660 108 649 110 635 c 2
 205 60 l 1
 655 60 l 1
 750 635 l 2
 752 649 765 660 780 660 c 0
 796 660 810 647 810 630 c 0
 810 628 810 627 810 625 c 2
 715 60 l 1
 880 60 l 2
 896 60 910 47 910 30 c 0
 910 28 910 26 909 23 c 2
 859 -177 l 2
 856 -190 844 -200 830 -200 c 0
 814 -200 800 -187 800 -170 c 0
 800 -168 800 -166 801 -163 c 2
 842 0 l 1
 621 0 401 0 180 0 c 0
 165 0 152 11 150 25 c 2
 50 625 l 2
 50 627 50 628 50 630 c 0
 50 647 64 660 80 660 c 0
EndSplineSet
Validated: 1
EndChar

StartChar: uni041B
Encoding: 1051 1051 21
Width: 960
VWidth: 1030
Flags: HMW
LayerCount: 2
Fore
SplineSet
310 180 m 0
 310 83 260 0 180 0 c 0
 102 0 69 67 56 128 c 0
 50 157 50 179 50 180 c 0
 50 197 63 210 80 210 c 0
 97 210 110 197 110 180 c 1
 110 180 112 120 135 85 c 0
 146 69 158 60 180 60 c 0
 199 60 222 72 237 108 c 0
 244 126 250 150 250 180 c 0
 250 217 231 312 209 402 c 0
 180 525 150 617 150 631 c 0
 150 647 164 660 180 660 c 2
 880 660 l 2
 896 660 910 647 910 630 c 0
 910 628 910 627 910 625 c 2
 810 25 l 2
 808 11 795 0 780 0 c 0
 764 0 750 13 750 30 c 0
 750 32 750 33 750 35 c 2
 845 600 l 1
 220 600 l 1
 243 511 310 273 310 180 c 0
EndSplineSet
Validated: 1
EndChar

StartChar: uni0409
Encoding: 1033 1033 22
Width: 1110
VWidth: 1030
Flags: HMW
LayerCount: 2
Fore
SplineSet
780 0 m 2
 763 0 750 13 750 30 c 2
 750 35 l 1
 845 600 l 1
 220 600 l 1
 243 511 310 273 310 180 c 0
 310 83 260 0 180 0 c 0
 102 0 69 67 56 128 c 0
 50 157 50 179 50 180 c 0
 50 197 63 210 80 210 c 0
 97 210 110 197 110 180 c 1
 110 180 112 120 135 85 c 0
 146 69 158 60 180 60 c 0
 199 60 222 72 237 108 c 0
 244 126 250 150 250 180 c 0
 250 217 231 312 209 402 c 0
 180 525 150 617 150 631 c 0
 150 647 164 660 180 660 c 2
 880 660 l 2
 896 660 910 647 910 630 c 0
 910 628 910 627 910 625 c 2
 848 258 l 1
 870 254 915 246 957 231 c 0
 983 222 1008 210 1029 192 c 0
 1045 178 1060 158 1060 132 c 0
 1060 108 1050 88 1036 74 c 0
 1011 48 972 33 932 22 c 0
 861 3 785 0 781 0 c 2
 780 0 l 2
838 198 m 1
 816 63 l 1
 843 66 880 71 916 80 c 0
 944 88 970 99 985 110 c 0
 997 119 1000 125 1000 131 c 0
 1000 134 999 139 990 147 c 0
 979 156 960 167 937 175 c 0
 900 188 858 195 838 198 c 1
EndSplineSet
Validated: 1
EndChar

StartChar: uni040A
Encoding: 1034 1034 23
Width: 1010
VWidth: 1030
Flags: HMW
LayerCount: 2
Fore
SplineSet
680 0 m 2
 663 0 650 13 650 30 c 2
 650 35 l 1
 678 200 l 1
 182 200 l 1
 210 35 l 2
 210 33 210 32 210 30 c 0
 210 13 196 0 180 0 c 0
 165 0 152 11 150 25 c 2
 50 625 l 2
 50 627 50 628 50 630 c 0
 50 647 64 660 80 660 c 0
 95 660 108 649 110 635 c 2
 172 260 l 1
 688 260 l 1
 750 635 l 2
 752 649 765 660 780 660 c 0
 796 660 810 647 810 630 c 0
 810 628 810 627 810 625 c 2
 748 258 l 1
 770 254 815 246 857 231 c 0
 883 222 908 210 929 192 c 0
 945 178 960 158 960 132 c 0
 960 108 950 88 936 74 c 0
 911 48 872 33 832 22 c 0
 761 3 685 0 681 0 c 2
 680 0 l 2
739 198 m 1
 716 63 l 1
 743 66 780 71 816 80 c 0
 844 88 870 99 885 110 c 0
 897 119 900 125 900 131 c 0
 900 134 899 139 890 147 c 0
 879 156 860 167 837 175 c 0
 800 188 759 195 739 198 c 1
EndSplineSet
Validated: 1
EndChar

StartChar: uni0427
Encoding: 1063 1063 24
Width: 810
VWidth: 1030
Flags: HMW
LayerCount: 2
Fore
SplineSet
760 625 m 2
 660 25 l 2
 658 11 645 0 630 0 c 0
 614 0 600 13 600 30 c 0
 600 32 600 33 600 35 c 2
 628 198 l 1
 606 197 573 195 535 195 c 0
 362 195 161 221 83 328 c 0
 62 356 50 391 50 430 c 0
 50 485 76 534 103 572 c 0
 137 620 174 652 175 653 c 0
 180 658 187 660 195 660 c 0
 212 660 225 647 225 630 c 0
 225 621 220 613 214 607 c 2
 214 607 182 579 152 537 c 0
 128 504 110 464 110 430 c 0
 110 376 140 346 176 323 c 0
 214 299 268 282 325 272 c 0
 397 259 474 255 535 255 c 0
 583 255 619 258 638 259 c 1
 700 635 l 2
 702 649 715 660 730 660 c 0
 746 660 760 647 760 630 c 0
 760 628 760 627 760 625 c 2
EndSplineSet
Validated: 1
EndChar

StartChar: uni040F
Encoding: 1039 1039 25
Width: 860
VWidth: 1030
Flags: HMW
LayerCount: 2
Fore
SplineSet
80 660 m 0
 95 660 108 649 110 635 c 2
 205 60 l 1
 355 60 505 60 655 60 c 1
 750 635 l 2
 752 649 765 660 780 660 c 0
 796 660 810 647 810 630 c 0
 810 628 810 627 810 625 c 2
 710 25 l 2
 708 11 695 0 680 0 c 2
 460 0 l 1
 460 -170 l 2
 460 -187 447 -200 430 -200 c 0
 413 -200 400 -187 400 -170 c 2
 400 0 l 1
 180 0 l 2
 165 0 152 11 150 25 c 2
 50 625 l 2
 50 627 50 628 50 630 c 0
 50 647 64 660 80 660 c 0
EndSplineSet
Validated: 1
EndChar

StartChar: uni0428
Encoding: 1064 1064 26
Width: 960
VWidth: 1030
Flags: HMW
LayerCount: 2
Fore
SplineSet
510 430 m 2
 510 60 l 1
 755 60 l 1
 850 635 l 2
 852 649 865 660 880 660 c 0
 896 660 910 647 910 630 c 0
 910 628 910 627 910 625 c 2
 810 25 l 2
 808 11 795 0 780 0 c 0
 580 0 380 0 180 0 c 0
 165 0 152 11 150 25 c 2
 50 625 l 2
 50 627 50 628 50 630 c 0
 50 647 64 660 80 660 c 0
 95 660 108 649 110 635 c 2
 205 60 l 1
 450 60 l 1
 450 430 l 2
 450 447 463 460 480 460 c 0
 497 460 510 447 510 430 c 2
EndSplineSet
Validated: 1
EndChar

StartChar: uni041E
Encoding: 1054 1054 27
Width: 860
VWidth: 1030
Flags: HMW
LayerCount: 2
Fore
SplineSet
810 380 m 0
 810 164 646 0 430 0 c 0
 214 0 50 164 50 380 c 0
 50 522 161 598 268 633 c 0
 329 653 389 660 430 660 c 0
 538 660 664 617 732 556 c 0
 778 514 810 456 810 380 c 0
750 380 m 0
 750 492 661 548 573 576 c 0
 519 594 464 600 430 600 c 0
 396 600 341 594 287 576 c 0
 199 548 110 492 110 380 c 0
 110 196 246 60 430 60 c 0
 614 60 750 196 750 380 c 0
EndSplineSet
Validated: 1
EndChar

StartChar: uni0421
Encoding: 1057 1057 28
Width: 860
VWidth: 1030
Flags: HMW
LayerCount: 2
Fore
SplineSet
686 101 m 0
 686 91 681 81 673 76 c 0
 645 57 613 43 580 29 c 0
 534 10 484 0 430 0 c 0
 214 0 50 164 50 380 c 0
 50 522 161 598 268 633 c 0
 329 653 389 660 430 660 c 0
 530 660 661 622 729 573 c 0
 774 540 810 492 810 430 c 0
 810 413 797 400 780 400 c 0
 763 400 750 413 750 430 c 0
 750 514 648 558 574 578 c 0
 519 593 464 600 430 600 c 0
 396 600 341 594 287 576 c 0
 199 548 110 492 110 380 c 0
 110 196 246 60 430 60 c 0
 513 60 589 91 639 126 c 0
 644 129 650 131 656 131 c 0
 673 131 686 118 686 101 c 0
EndSplineSet
Validated: 1
EndChar

StartChar: uni0424
Encoding: 1060 1060 29
Width: 860
VWidth: 1030
Flags: HMW
LayerCount: 2
Fore
SplineSet
460 780 m 2
 460 659 l 1
 563 651 666 616 732 556 c 0
 778 514 810 456 810 380 c 0
 810 174 661 15 460 1 c 1
 460 -120 l 2
 460 -137 447 -150 430 -150 c 0
 413 -150 400 -137 400 -120 c 2
 400 1 l 1
 199 15 50 174 50 380 c 0
 50 522 161 598 268 633 c 0
 316 648 363 656 400 659 c 1
 400 780 l 2
 400 797 413 810 430 810 c 0
 447 810 460 797 460 780 c 2
460 599 m 1
 460 61 l 1
 628 75 750 206 750 380 c 0
 750 492 661 548 573 576 c 0
 533 589 492 596 460 599 c 1
400 599 m 1
 314 591 222 560 169 512 c 0
 133 480 110 438 110 380 c 0
 110 206 232 75 400 61 c 1
 400 599 l 1
EndSplineSet
Validated: 1
EndChar

StartChar: uni0430
Encoding: 1072 1072 30
Width: 632
VWidth: 1030
Flags: HMW
LayerCount: 2
Fore
SplineSet
54 45 m 2
 290 447 l 2
 295 456 305 462 316 462 c 0
 327 462 337 456 342 447 c 2
 578 45 l 2
 581 40 582 35 582 30 c 0
 582 14 569 0 552 0 c 0
 541 0 531 6 526 15 c 2
 456 134 l 1
 176 134 l 1
 106 15 l 2
 101 6 91 0 80 0 c 0
 63 0 50 14 50 30 c 0
 50 35 51 40 54 45 c 2
421 194 m 1
 316 373 l 1
 211 194 l 1
 421 194 l 1
EndSplineSet
Validated: 1
Substitution2: "'cv01' Character Variants 01 lookup 0 subtable" a.alt
EndChar

StartChar: uni0431
Encoding: 1073 1073 31
Width: 632
VWidth: 1030
Flags: HMW
LayerCount: 2
Fore
SplineSet
488 231 m 0
 488 236 481 241 474 245 c 0
 424 270 334 273 256 273 c 0
 206 273 163 272 138 270 c 1
 172 66 l 1
 217 76 306 98 378 131 c 0
 415 148 448 168 467 188 c 0
 482 204 488 218 488 231 c 0
548 231 m 0
 548 193 527 161 501 137 c 0
 438 78 302 33 212 13 c 0
 185 7 172 3 152 0 c 0
 150 0 149 0 147 0 c 0
 132 0 120 11 118 25 c 2
 50 427 l 2
 50 429 50 430 50 432 c 0
 50 449 64 462 80 462 c 2
 552 462 l 2
 569 462 582 449 582 432 c 0
 582 415 569 402 552 402 c 2
 115 402 l 1
 128 329 l 1
 152 331 201 333 256 333 c 0
 322 333 397 330 455 315 c 0
 486 307 514 296 532 274 c 0
 542 263 548 247 548 231 c 0
EndSplineSet
Validated: 1
EndChar

StartChar: uni0432
Encoding: 1074 1074 32
Width: 597
VWidth: 1030
Flags: HMW
LayerCount: 2
Fore
SplineSet
547 365 m 0
 547 326 526 295 498 271 c 0
 462 240 412 215 362 196 c 1
 378 193 394 189 408 183 c 0
 425 175 446 159 446 131 c 0
 446 108 436 87 422 72 c 0
 396 44 354 28 311 18 c 0
 234 0 147 0 147 0 c 1
 132 0 120 11 118 25 c 2
 50 427 l 1
 50 432 l 2
 50 449 63 461 78 462 c 2
 78 462 149 468 234 468 c 0
 326 468 431 463 497 432 c 0
 521 420 547 399 547 365 c 0
487 365 m 0
 487 370 479 373 471 378 c 0
 462 383 448 387 433 391 c 0
 381 404 303 408 234 408 c 0
 186 408 143 405 115 404 c 1
 150 198 l 1
 190 206 271 225 345 254 c 0
 390 272 432 293 458 316 c 0
 479 334 487 351 487 365 c 0
386 127 m 1
 361 139 316 142 273 142 c 0
 230 142 187 139 160 137 c 1
 173 61 l 1
 231 64 343 76 378 113 c 0
 383 118 385 122 386 127 c 1
EndSplineSet
Validated: 1
EndChar

StartChar: uni0433
Encoding: 1075 1075 33
Width: 562
VWidth: 1030
Flags: HMW
LayerCount: 2
Fore
SplineSet
147 0 m 0
 132 0 119 11 117 25 c 2
 50 427 l 2
 50 429 50 430 50 432 c 0
 50 449 64 462 80 462 c 2
 482 462 l 2
 498 462 512 449 512 433 c 0
 512 430 511 426 510 423 c 2
 477 322 l 2
 473 310 462 302 449 302 c 0
 433 302 418 314 418 331 c 0
 418 334 419 338 420 341 c 2
 440 402 l 1
 115 402 l 1
 177 35 l 2
 177 33 177 32 177 30 c 0
 177 13 163 0 147 0 c 0
EndSplineSet
Validated: 1
EndChar

StartChar: uni0434
Encoding: 1076 1076 34
Width: 772
VWidth: 1030
Flags: HMW
LayerCount: 2
Fore
SplineSet
114 -136 m 0
 100 -136 88 -126 85 -113 c 2
 51 23 l 2
 50 26 50 28 50 30 c 0
 50 47 64 60 80 60 c 2
 181 60 l 1
 118 432 l 2
 118 434 118 435 118 437 c 0
 118 454 132 466 148 466 c 2
 624 466 l 2
 640 466 654 454 654 437 c 0
 654 435 654 434 654 432 c 2
 592 60 l 1
 692 60 l 2
 708 60 722 47 722 30 c 0
 722 28 722 26 721 23 c 2
 687 -113 l 2
 684 -126 672 -136 658 -136 c 0
 642 -136 628 -122 628 -105 c 0
 628 -103 628 -101 629 -98 c 2
 654 0 l 1
 119 0 l 1
 143 -98 l 2
 144 -101 144 -103 144 -105 c 0
 144 -122 130 -136 114 -136 c 0
531 60 m 1
 589 406 l 1
 184 406 l 1
 241 60 l 1
 531 60 l 1
EndSplineSet
Validated: 1
EndChar

StartChar: uni0435
Encoding: 1077 1077 35
Width: 632
VWidth: 1030
Flags: HMW
LayerCount: 2
Fore
SplineSet
552 402 m 2
 115 402 l 1
 150 194 l 5
 417 194 l 6
 434 194 447 181 447 164 c 4
 447 147 434 134 417 134 c 6
 160 134 l 5
 173 60 l 1
 485 60 l 2
 502 60 515 47 515 30 c 0
 515 13 502 0 485 0 c 2
 147 0 l 2
 132 0 120 11 118 25 c 2
 50 427 l 2
 50 429 50 430 50 432 c 0
 50 449 64 462 80 462 c 2
 552 462 l 2
 569 462 582 449 582 432 c 0
 582 415 569 402 552 402 c 2
EndSplineSet
Validated: 1
EndChar

StartChar: uni0436
Encoding: 1078 1078 36
Width: 702
VWidth: 1030
Flags: HMW
LayerCount: 2
Fore
SplineSet
381 365 m 2
 381 253 l 1
 602 454 l 2
 607 459 614 462 622 462 c 0
 639 462 652 449 652 432 c 0
 652 423 648 415 642 410 c 2
 395 185 l 1
 541 52 l 2
 547 47 550 39 550 30 c 0
 550 13 537 0 520 0 c 0
 512 0 505 3 500 8 c 2
 381 117 l 1
 381 64 l 2
 381 47 368 34 351 34 c 0
 334 34 321 47 321 64 c 2
 321 117 l 1
 202 8 l 2
 197 3 190 0 182 0 c 0
 165 0 152 13 152 30 c 0
 152 39 155 47 161 52 c 2
 307 185 l 1
 60 410 l 2
 54 415 50 423 50 432 c 0
 50 449 63 462 80 462 c 0
 88 462 95 459 100 454 c 2
 321 253 l 1
 321 365 l 2
 321 382 334 395 351 395 c 0
 368 395 381 382 381 365 c 2
EndSplineSet
Validated: 1
Substitution2: "'cv04' Character Variants 04 lookup 3 subtable" zh.alt
EndChar

StartChar: uni0437
Encoding: 1079 1079 37
Width: 597
VWidth: 1030
Flags: HMW
LayerCount: 2
Fore
SplineSet
446 131 m 0
 446 17 236 0 149 0 c 2
 147 0 l 2
 130 0 117 13 117 30 c 0
 117 47 130 60 147 60 c 1
 147 60 227 60 297 76 c 0
 328 83 361 95 378 113 c 0
 383 118 385 122 386 127 c 0
 383 129 375 132 364 135 c 0
 341 140 307 142 273 142 c 0
 199 142 135 134 130 134 c 0
 113 134 100 147 100 164 c 0
 100 179 111 192 125 194 c 1
 125 194 242 214 345 254 c 0
 390 272 432 293 458 316 c 0
 479 334 487 351 487 365 c 0
 487 371 479 374 471 378 c 0
 462 383 448 387 433 391 c 0
 381 404 303 408 234 408 c 0
 148 408 83 402 80 402 c 0
 63 402 50 415 50 432 c 0
 50 448 63 461 78 462 c 2
 78 462 149 468 234 468 c 0
 326 468 431 463 497 432 c 0
 521 420 547 399 547 365 c 0
 547 326 525 295 497 271 c 0
 461 240 412 215 362 196 c 1
 378 193 394 189 408 183 c 0
 425 175 446 159 446 131 c 0
EndSplineSet
Validated: 1
EndChar

StartChar: uni0438
Encoding: 1080 1080 38
Width: 632
VWidth: 1030
Flags: HMW
LayerCount: 2
Fore
SplineSet
455 35 m 2
 507 345 l 1
 169 9 l 2
 164 4 155 0 147 0 c 0
 132 0 120 11 118 25 c 2
 50 427 l 2
 50 429 50 430 50 432 c 0
 50 449 64 462 80 462 c 0
 95 462 108 451 110 437 c 2
 167 92 l 1
 531 453 l 2
 536 458 544 462 552 462 c 0
 568 462 582 449 582 432 c 0
 582 430 582 429 582 427 c 2
 514 25 l 2
 512 11 500 0 485 0 c 0
 469 0 455 13 455 30 c 0
 455 32 455 33 455 35 c 2
EndSplineSet
Validated: 1
EndChar

StartChar: uni043A
Encoding: 1082 1082 39
Width: 632
VWidth: 1030
Flags: HMW
LayerCount: 2
Fore
SplineSet
582 432 m 0
 582 421 576 412 568 407 c 2
 193 168 l 1
 430 57 l 2
 440 52 447 42 447 30 c 0
 447 13 433 0 417 0 c 0
 413 0 408 1 404 3 c 2
 164 115 l 1
 177 35 l 2
 177 33 177 32 177 30 c 0
 177 13 163 0 147 0 c 0
 132 0 120 11 118 25 c 2
 50 427 l 2
 50 429 50 430 50 432 c 0
 50 449 64 462 80 462 c 0
 95 462 108 451 110 437 c 2
 148 210 l 1
 536 457 l 2
 541 460 547 462 552 462 c 0
 568 462 582 449 582 432 c 0
EndSplineSet
Validated: 1
EndChar

StartChar: uni043B
Encoding: 1083 1083 40
Width: 702
VWidth: 1030
Flags: HMW
LayerCount: 2
Fore
SplineSet
148 60 m 0
 171 60 186 96 186 130 c 0
 186 153 173 217 158 277 c 0
 138 362 118 419 118 433 c 0
 118 449 132 462 148 462 c 2
 622 462 l 2
 638 462 652 449 652 432 c 0
 652 430 652 429 652 427 c 2
 584 25 l 2
 582 11 569 0 554 0 c 0
 538 0 525 13 525 30 c 2
 525 35 l 1
 587 402 l 1
 187 402 l 1
 195 374 206 333 216 291 c 0
 231 229 246 167 246 130 c 0
 246 60 207 0 148 0 c 0
 80 0 50 67 50 130 c 0
 50 147 63 160 80 160 c 0
 97 160 110 147 110 130 c 1
 110 130 111 93 125 73 c 0
 131 64 137 60 148 60 c 0
EndSplineSet
Validated: 1
EndChar

StartChar: uni043C
Encoding: 1084 1084 41
Width: 702
VWidth: 1030
Flags: HMW
LayerCount: 2
Fore
SplineSet
148 0 m 0
 133 0 120 11 118 25 c 2
 50 427 l 2
 50 429 50 430 50 432 c 0
 50 449 64 462 80 462 c 0
 88 462 96 458 101 453 c 2
 351 206 l 1
 601 453 l 2
 606 458 614 462 622 462 c 0
 638 462 652 449 652 432 c 0
 652 430 652 429 652 427 c 2
 584 25 l 2
 582 11 569 0 554 0 c 0
 538 0 525 13 525 30 c 2
 525 35 l 1
 577 345 l 1
 372 143 l 2
 366 137 359 135 351 135 c 0
 343 135 336 137 330 143 c 2
 125 345 l 1
 177 35 l 1
 177 30 l 2
 177 13 164 0 148 0 c 0
EndSplineSet
Validated: 1
EndChar

StartChar: uni043D
Encoding: 1085 1085 42
Width: 632
VWidth: 1030
Flags: HMW
LayerCount: 2
Fore
SplineSet
582 427 m 2
 514 25 l 2
 512 11 500 0 485 0 c 0
 469 0 455 13 455 30 c 0
 455 32 455 33 455 35 c 2
 472 134 l 1
 160 134 l 1
 177 35 l 2
 177 33 177 32 177 30 c 0
 177 13 163 0 147 0 c 0
 132 0 120 11 118 25 c 2
 50 427 l 2
 50 429 50 430 50 432 c 0
 50 449 64 462 80 462 c 0
 95 462 108 451 110 437 c 2
 150 194 l 1
 482 194 l 1
 522 437 l 2
 524 451 537 462 552 462 c 0
 568 462 582 449 582 432 c 0
 582 430 582 429 582 427 c 2
EndSplineSet
Validated: 1
EndChar

StartChar: uni043E
Encoding: 1086 1086 43
Width: 632
VWidth: 1030
Flags: HMW
LayerCount: 2
Fore
SplineSet
582 264 m 0
 582 114 467 0 316 0 c 0
 165 0 50 114 50 264 c 0
 50 365 128 418 204 443 c 0
 247 457 288 462 316 462 c 0
 390 462 479 432 526 390 c 0
 559 361 582 318 582 264 c 0
522 264 m 0
 522 334 466 369 410 386 c 0
 374 397 337 402 316 402 c 0
 295 402 258 397 222 386 c 0
 166 369 110 334 110 264 c 0
 110 146 197 60 316 60 c 0
 435 60 522 146 522 264 c 0
EndSplineSet
Validated: 1
EndChar

StartChar: uni043F
Encoding: 1087 1087 44
Width: 632
VWidth: 1030
Flags: HMW
LayerCount: 2
Fore
SplineSet
147 0 m 0
 132 0 120 11 118 25 c 2
 50 427 l 2
 50 429 50 430 50 432 c 0
 50 449 64 462 80 462 c 2
 552 462 l 2
 568 462 582 449 582 432 c 0
 582 430 582 429 582 427 c 2
 514 25 l 2
 512 11 500 0 485 0 c 0
 469 0 455 13 455 30 c 0
 455 32 455 33 455 35 c 2
 517 402 l 1
 115 402 l 1
 177 35 l 2
 177 33 177 32 177 30 c 0
 177 13 163 0 147 0 c 0
EndSplineSet
Validated: 1
EndChar

StartChar: uni0440
Encoding: 1088 1088 45
Width: 632
VWidth: 1030
Flags: HMW
LayerCount: 2
Fore
SplineSet
115 404 m 1
 150 198 l 1
 192 206 283 224 366 254 c 0
 416 272 462 294 490 317 c 0
 513 336 522 352 522 365 c 1
 522 365 516 379 463 391 c 0
 406 404 320 408 246 408 c 0
 192 408 145 406 115 404 c 1
50 428 m 1
 50 429 50 431 50 432 c 0
 50 448 60 462 78 462 c 2
 78 462 154 468 246 468 c 0
 346 468 458 464 529 433 c 0
 554 422 582 400 582 365 c 0
 582 325 558 294 528 270 c 0
 490 240 439 217 386 198 c 0
 298 166 204 147 160 139 c 1
 177 35 l 2
 177 33 177 32 177 30 c 0
 177 13 163 0 147 0 c 0
 132 0 120 11 118 25 c 2
 50 427 l 1
 50 428 l 1
EndSplineSet
Validated: 1
EndChar

StartChar: uni0441
Encoding: 1089 1089 46
Width: 632
VWidth: 1030
Flags: HMW
LayerCount: 2
Fore
SplineSet
498 78 m 0
 498 68 493 58 485 53 c 0
 441 25 384 0 316 0 c 0
 165 0 50 114 50 264 c 0
 50 365 128 418 204 443 c 0
 247 457 288 462 316 462 c 0
 385 462 475 437 523 402 c 0
 555 379 582 344 582 298 c 0
 582 281 569 268 552 268 c 0
 535 268 522 281 522 298 c 0
 522 347 456 376 411 388 c 0
 375 398 337 402 316 402 c 0
 295 402 258 397 222 386 c 0
 166 369 110 334 110 264 c 0
 110 146 197 60 316 60 c 0
 370 60 419 81 452 103 c 0
 457 106 462 108 468 108 c 0
 485 108 498 95 498 78 c 0
EndSplineSet
Validated: 1
EndChar

StartChar: uni0442
Encoding: 1090 1090 47
Width: 632
VWidth: 1030
Flags: HMW
LayerCount: 2
Fore
SplineSet
80 462 m 0
 237 462 395 462 552 462 c 0
 569 462 582 449 582 432 c 0
 582 415 569 402 552 402 c 2
 346 402 l 1
 346 30 l 2
 346 13 333 0 316 0 c 0
 299 0 286 13 286 30 c 2
 286 402 l 1
 80 402 l 2
 63 402 50 415 50 432 c 0
 50 449 63 462 80 462 c 0
EndSplineSet
Validated: 1
EndChar

StartChar: uni0443
Encoding: 1091 1091 48
Width: 632
VWidth: 1030
Flags: HMW
LayerCount: 2
Fore
SplineSet
582 432 m 0
 582 425 579 418 575 413 c 2
 238 11 l 2
 232 4 224 0 215 0 c 0
 198 0 185 13 185 30 c 0
 185 37 188 44 192 49 c 2
 282 157 l 1
 57 412 l 2
 52 417 50 424 50 432 c 0
 50 449 63 462 80 462 c 0
 89 462 98 458 103 452 c 2
 321 203 l 1
 529 451 l 2
 535 458 543 462 552 462 c 0
 569 462 582 449 582 432 c 0
EndSplineSet
Validated: 1
EndChar

StartChar: uni0444
Encoding: 1092 1092 49
Width: 632
VWidth: 1030
Flags: HMW
LayerCount: 2
Fore
SplineSet
346 542 m 2
 346 468 l 1
 416 462 481 438 526 397 c 0
 559 367 582 324 582 270 c 0
 582 128 482 18 346 4 c 1
 346 -70 l 2
 346 -87 333 -100 316 -100 c 0
 299 -100 286 -87 286 -70 c 2
 286 4 l 1
 150 18 50 128 50 270 c 0
 50 371 128 426 204 451 c 0
 233 461 262 466 286 468 c 1
 286 542 l 2
 286 559 299 572 316 572 c 0
 333 572 346 559 346 542 c 2
346 408 m 1
 346 64 l 1
 449 78 522 160 522 270 c 0
 522 341 465 376 410 394 c 0
 388 401 365 406 346 408 c 1
286 408 m 1
 233 402 179 382 146 352 c 0
 124 332 110 306 110 270 c 0
 110 160 183 78 286 64 c 1
 286 408 l 1
EndSplineSet
Validated: 1
EndChar

StartChar: uni0445
Encoding: 1093 1093 50
Width: 632
VWidth: 1030
Flags: HMW
LayerCount: 2
Fore
SplineSet
80 462 m 0
 89 462 97 458 102 452 c 2
 316 220 l 1
 530 452 l 2
 535 458 543 462 552 462 c 0
 569 462 582 449 582 432 c 0
 582 424 579 417 574 412 c 2
 357 176 l 1
 473 50 l 2
 478 45 481 38 481 30 c 0
 481 13 468 0 451 0 c 0
 442 0 434 4 429 10 c 2
 316 132 l 1
 203 10 l 2
 198 4 190 0 181 0 c 0
 164 0 151 13 151 30 c 0
 151 38 154 45 159 50 c 2
 275 176 l 1
 58 412 l 2
 53 417 50 424 50 432 c 0
 50 449 63 462 80 462 c 0
EndSplineSet
Validated: 1
EndChar

StartChar: uni0446
Encoding: 1094 1094 51
Width: 702
VWidth: 1030
Flags: HMW
LayerCount: 2
Fore
SplineSet
80 466 m 0
 95 466 108 455 110 441 c 2
 173 60 l 1
 461 60 l 1
 525 441 l 2
 527 455 539 466 554 466 c 0
 570 466 584 454 584 437 c 0
 584 435 584 434 584 432 c 2
 522 60 l 1
 622 60 l 2
 638 60 652 47 652 30 c 0
 652 28 652 26 651 23 c 2
 617 -113 l 2
 614 -126 602 -136 588 -136 c 0
 572 -136 558 -122 558 -105 c 0
 558 -103 558 -101 559 -98 c 2
 584 0 l 1
 439 0 293 0 148 0 c 0
 133 0 120 11 118 25 c 2
 50 432 l 2
 50 434 50 435 50 437 c 0
 50 454 64 466 80 466 c 0
EndSplineSet
Validated: 1
EndChar

StartChar: uni0447
Encoding: 1095 1095 52
Width: 597
VWidth: 1030
Flags: HMW
LayerCount: 2
Fore
SplineSet
547 427 m 2
 479 25 l 2
 477 11 465 0 450 0 c 0
 434 0 420 13 420 30 c 0
 420 32 420 33 420 35 c 2
 436 132 l 1
 422 131 405 131 386 131 c 0
 265 131 129 149 74 224 c 0
 59 245 50 270 50 298 c 0
 50 338 69 373 88 399 c 0
 111 432 136 454 137 455 c 0
 142 460 149 462 157 462 c 0
 174 462 187 449 187 432 c 0
 187 423 183 415 177 409 c 2
 177 409 156 391 137 364 c 0
 122 343 110 318 110 295 c 0
 110 267 129 247 150 235 c 0
 201 203 306 191 386 191 c 0
 413 191 434 192 447 193 c 1
 487 437 l 2
 489 451 502 462 517 462 c 0
 533 462 547 449 547 432 c 0
 547 430 547 429 547 427 c 2
EndSplineSet
Validated: 1
EndChar

StartChar: uni0448
Encoding: 1096 1096 53
Width: 702
VWidth: 1030
Flags: HMW
LayerCount: 2
Fore
SplineSet
381 298 m 2
 381 60 l 1
 529 60 l 1
 592 437 l 2
 594 451 607 462 622 462 c 0
 638 462 652 449 652 432 c 0
 652 430 652 429 652 427 c 2
 584 25 l 2
 582 11 569 0 554 0 c 0
 419 0 283 0 148 0 c 0
 133 0 120 11 118 25 c 2
 50 427 l 2
 50 429 50 430 50 432 c 0
 50 449 64 462 80 462 c 0
 95 462 108 451 110 437 c 2
 173 60 l 1
 321 60 l 1
 321 298 l 2
 321 315 334 328 351 328 c 0
 368 328 381 315 381 298 c 2
EndSplineSet
Validated: 1
EndChar

StartChar: uni0452
Encoding: 1106 1106 54
Width: 667
VWidth: 1030
Flags: HMW
LayerCount: 2
Fore
SplineSet
80 466 m 0
 170 466 260 466 350 466 c 0
 367 466 380 453 380 436 c 0
 380 419 367 406 350 406 c 2
 180 406 l 1
 210 230 l 1
 233 232 280 235 335 235 c 0
 416 235 516 230 572 198 c 0
 594 186 617 165 617 132 c 0
 617 98 605 67 588 40 c 0
 567 6 538 -23 507 -47 c 0
 438 -101 363 -132 362 -133 c 0
 358 -135 354 -136 350 -136 c 0
 334 -136 320 -122 320 -106 c 0
 320 -94 328 -83 339 -78 c 1
 339 -78 408 -48 470 1 c 0
 497 22 522 47 538 72 c 0
 551 92 557 112 557 132 c 0
 557 146 526 153 511 158 c 0
 465 170 396 175 335 175 c 0
 284 175 243 173 219 171 c 1
 242 35 l 2
 242 33 242 32 242 30 c 0
 242 13 228 0 212 0 c 0
 197 0 185 11 183 25 c 2
 119 406 l 1
 80 406 l 2
 63 406 50 419 50 436 c 0
 50 453 63 466 80 466 c 0
EndSplineSet
Validated: 1
EndChar

StartChar: uni0458
Encoding: 1112 1112 55
Width: 560
VWidth: 1030
Flags: HMW
LayerCount: 2
Fore
SplineSet
450 197 m 0
 450 311 393 421 393 437 c 0
 393 453 407 467 423 467 c 0
 435 467 446 460 451 449 c 0
 451 448 469 407 485 350 c 0
 498 305 510 250 510 197 c 0
 510 158 504 118 482 85 c 0
 443 27 358 -3 268 -3 c 0
 179 -3 95 26 62 88 c 0
 53 105 50 121 50 135 c 0
 50 163 62 182 63 184 c 0
 68 193 77 199 88 199 c 0
 105 199 118 185 118 169 c 0
 118 164 117 159 114 154 c 0
 114 153 110 145 110 135 c 0
 110 129 111 123 115 116 c 0
 136 77 205 57 268 57 c 0
 335 57 406 79 432 119 c 0
 444 137 450 164 450 197 c 0
EndSplineSet
Validated: 1
EndChar

StartChar: uni0459
Encoding: 1113 1113 56
Width: 807
VWidth: 1030
Flags: HMW
LayerCount: 2
Fore
SplineSet
697 98 m 1
 697 98 l 1
557 0 m 2
 540 0 527 13 527 30 c 2
 527 35 l 1
 589 402 l 1
 188 402 l 1
 206 340 246 193 246 130 c 0
 246 59 208 0 148 0 c 0
 80 0 50 67 50 130 c 0
 50 147 63 160 80 160 c 0
 97 160 110 147 110 130 c 1
 110 130 111 93 125 73 c 0
 131 64 136 60 148 60 c 0
 171 60 186 96 186 130 c 0
 186 153 174 217 159 277 c 0
 138 362 118 419 118 433 c 0
 118 449 132 462 148 462 c 2
 625 462 l 2
 641 462 654 449 654 432 c 2
 654 427 l 1
 614 191 l 1
 653 184 704 170 733 146 c 0
 745 136 757 120 757 98 c 0
 757 20 615 0 558 0 c 2
 557 0 l 2
604 132 m 1
 593 63 l 1
 623 67 673 77 691 91 c 0
 695 94 697 96 697 97 c 0
 680 114 633 127 604 132 c 1
EndSplineSet
Validated: 1
EndChar

StartChar: uni045A
Encoding: 1114 1114 57
Width: 737
VWidth: 1030
Flags: HMW
LayerCount: 2
Fore
SplineSet
488 0 m 2
 471 0 458 13 458 30 c 2
 458 35 l 1
 474 134 l 1
 161 134 l 1
 177 35 l 1
 177 30 l 2
 177 13 164 0 148 0 c 0
 133 0 120 11 118 25 c 2
 50 427 l 2
 50 429 50 430 50 432 c 0
 50 449 64 462 80 462 c 0
 95 462 108 451 110 437 c 2
 151 194 l 1
 485 194 l 1
 526 437 l 2
 528 451 540 462 555 462 c 0
 571 462 585 449 585 432 c 0
 585 430 585 429 585 427 c 2
 545 191 l 1
 583 184 635 170 663 146 c 0
 675 136 687 120 687 98 c 0
 687 20 546 0 489 0 c 2
 488 0 l 2
535 132 m 1
 523 63 l 1
 554 67 602 77 621 91 c 0
 625 94 627 96 627 97 c 0
 610 114 564 127 535 132 c 1
EndSplineSet
Validated: 1
EndChar

StartChar: uni045B
Encoding: 1115 1115 58
Width: 667
VWidth: 1030
Flags: HMW
LayerCount: 2
Fore
SplineSet
80 462 m 0
 170 462 260 462 350 462 c 0
 367 462 380 449 380 432 c 0
 380 415 367 402 350 402 c 2
 180 402 l 1
 210 228 l 1
 233 230 280 233 335 233 c 0
 398 233 471 229 527 214 c 0
 569 204 617 181 617 130 c 0
 617 91 599 61 581 41 c 0
 558 16 535 4 533 3 c 0
 529 1 524 0 520 0 c 0
 504 0 489 13 489 30 c 0
 489 42 496 52 506 57 c 1
 506 57 521 64 536 81 c 0
 548 94 557 110 557 130 c 0
 557 136 550 140 543 144 c 0
 494 168 412 173 335 173 c 0
 285 173 244 171 220 169 c 1
 242 35 l 2
 242 33 242 32 242 30 c 0
 242 13 228 0 212 0 c 0
 197 0 185 11 183 25 c 2
 120 402 l 1
 80 402 l 2
 63 402 50 415 50 432 c 0
 50 449 63 462 80 462 c 0
EndSplineSet
Validated: 1
EndChar

StartChar: uni045F
Encoding: 1119 1119 59
Width: 632
VWidth: 1030
Flags: HMW
LayerCount: 2
Fore
SplineSet
80 466 m 0
 95 466 108 455 110 441 c 2
 173 60 l 1
 268 60 364 60 459 60 c 1
 522 441 l 2
 524 455 537 466 552 466 c 0
 568 466 582 454 582 437 c 0
 582 435 582 434 582 432 c 2
 514 25 l 2
 512 11 500 0 485 0 c 2
 346 0 l 1
 346 -106 l 2
 346 -123 333 -136 316 -136 c 0
 299 -136 286 -123 286 -106 c 2
 286 0 l 1
 147 0 l 2
 132 0 120 11 118 25 c 2
 50 432 l 2
 50 434 50 435 50 437 c 0
 50 454 64 466 80 466 c 0
EndSplineSet
Validated: 1
EndChar

StartChar: A.alt
Encoding: 57344 57344 61
Width: 686
VWidth: 1030
Flags: W
HStem: 0 21G<85.5 101.5 584.5 600.5> 0 21G<85.5 101.5 584.5 600.5> 200 60<111 575> 600 60<250.877 435.123>
VStem: 63 60<1.10742 195.34> 563 60<1.10742 195.386>
LayerCount: 2
Fore
SplineSet
575 260 m 1x3c
 569 391 535 519 450 572 c 0
 422 589 388 600 343 600 c 0
 298 600 264 589 236 572 c 0
 151 519 117 391 111 260 c 1
 575 260 l 1x3c
343 660 m 0
 575 660 636 430 636 210 c 0
 636 106 623 26 623 25 c 0
 621 11 608 0 593 0 c 0
 576 0 563 13 563 30 c 0
 563 38 575 101 576 200 c 1
 110 200 l 1
 111 100 123 38 123 30 c 0
 123 13 110 0 93 0 c 0xbc
 78 0 65 11 63 25 c 0
 63 26 50 106 50 210 c 0
 50 430 111 660 343 660 c 0
EndSplineSet
Validated: 1
EndChar

StartChar: a.alt
Encoding: 57345 57345 62
Width: 510
VWidth: 1030
Flags: W
HStem: 0 21G<81.5 97.5 412.5 428.5> 0 21G<81.5 97.5 412.5 428.5> 134 60<111 399> 402 60<184.817 325.183>
VStem: 59 60<1.10742 131.159> 391 60<1.10742 131.159>
LayerCount: 2
Fore
SplineSet
399 194 m 1x3c
 394 274 371 352 321 385 c 0
 304 396 283 402 255 402 c 0
 227 402 206 396 189 385 c 0
 139 352 116 274 111 194 c 1
 399 194 l 1x3c
255 462 m 0
 417 462 460 304 460 151 c 0
 460 81 451 26 451 25 c 0
 449 11 436 0 421 0 c 0
 404 0 391 13 391 30 c 0
 391 37 399 73 400 134 c 1
 110 134 l 1
 111 73 119 37 119 30 c 0
 119 13 106 0 89 0 c 0xbc
 74 0 61 11 59 25 c 0
 59 26 50 81 50 151 c 0
 50 304 93 462 255 462 c 0
EndSplineSet
Validated: 1
EndChar

StartChar: N
Encoding: 78 78 75
Width: 860
VWidth: 1030
Flags: W
HStem: 0 21G<172.5 188 676 687.5> 0 21G<172.5 188 676 687.5> 640 20G<72 84 772.5 788>
VStem: 150 60<1.10742 67> 750 60<592.767 658.893>
LayerCount: 2
Fore
SplineSet
210 35 m 2xb8
 210 33 210 32 210 30 c 0
 210 13 196 0 180 0 c 0
 165 0 152 11 150 25 c 2
 50 625 l 2
 50 627 50 628 50 630 c 0
 50 647 64 660 80 660 c 0
 88 660 96 656 101 651 c 2
 660 92 l 1
 750 635 l 2
 752 649 765 660 780 660 c 0
 796 660 810 647 810 630 c 0
 810 628 810 627 810 625 c 2
 710 25 l 2
 708 11 695 0 680 0 c 0
 672 0 664 4 659 9 c 2
 125 543 l 1
 210 35 l 2xb8
EndSplineSet
Validated: 1
EndChar

StartChar: n
Encoding: 110 110 90
Width: 632
VWidth: 1030
Flags: W
HStem: 0 21G<139.5 155 481 492.5> 0 21G<139.5 155 481 492.5> 442 20G<72 84 544.5 560>
VStem: 118 59<1.10742 66.3824> 522 60<394.632 460.893>
LayerCount: 2
Fore
SplineSet
177 35 m 2xb8
 177 33 177 32 177 30 c 0
 177 13 163 0 147 0 c 0
 132 0 120 11 118 25 c 2
 50 427 l 2
 50 429 50 430 50 432 c 0
 50 449 64 462 80 462 c 0
 88 462 96 458 101 453 c 2
 465 92 l 1
 522 437 l 2
 524 451 537 462 552 462 c 0
 568 462 582 449 582 432 c 0
 582 430 582 429 582 427 c 2
 514 25 l 2
 512 11 500 0 485 0 c 0
 477 0 468 4 463 9 c 2
 125 345 l 1
 177 35 l 2xb8
EndSplineSet
Validated: 1
EndChar

StartChar: D
Encoding: 68 68 91
Width: 870
VWidth: 1030
Flags: W
HStem: 0 21G<176.5 185.5> 0 21G<176.5 185.5> 640 20G<77 87>
VStem: 755 60<371.66 460.708>
LayerCount: 2
Fore
SplineSet
155 25 m 2xb0
 55 625 l 1
 55 630 l 2
 55 647 69 660 85 660 c 4
 89 660 302 645 499 605 c 0
 586 587 668 564 727 534 c 0
 767 514 815 485 815 430 c 0
 815 378 785 332 745 292 c 0
 694 241 624 194 549 154 c 0
 381 63 195 2 194 2 c 0
 191 1 187 0 184 0 c 0
 169 0 157 11 155 25 c 2xb0
755 430 m 0
 755 435 754 440 747 448 c 0
 739 458 722 470 700 481 c 0
 650 506 571 529 487 546 c 0
 346 575 191 591 121 597 c 1
 209 70 l 1
 269 92 401 142 521 207 c 0
 593 246 660 290 703 334 c 0
 738 370 755 403 755 430 c 0
EndSplineSet
Validated: 1
EndChar

StartChar: d
Encoding: 100 100 92
Width: 642
VWidth: 1030
Flags: W
HStem: 0 21G<144.5 153.5> 0 21G<144.5 153.5> 442 20G<77 87> 442 20G<77 87>
LayerCount: 2
Fore
SplineSet
123 25 m 2xa0
 55 427 l 1
 55 432 l 2
 55 449 69 462 85 462 c 0
 89 462 232 452 366 425 c 0
 425 413 481 398 522 377 c 0
 552 362 587 341 587 298 c 0
 587 259 565 226 537 198 c 0
 502 163 453 132 402 105 c 0
 288 44 163 2 162 2 c 0
 159 1 155 0 152 0 c 0
 137 0 125 11 123 25 c 2xa0
527 298 m 1
 527 298 534 293 524 304 c 0
 520 309 510 316 496 323 c 0
 464 339 410 355 354 366 c 0
 267 384 172 394 121 399 c 1
 176 70 l 1
 220 86 300 118 374 158 c 0
 422 184 467 213 495 241 c 0
 518 264 527 284 527 298 c 1
EndSplineSet
Validated: 1
EndChar

StartChar: F
Encoding: 70 70 93
Width: 860
VWidth: 1030
Flags: W
HStem: 0 21G<172.5 188> 0 21G<172.5 188> 200 60<182 608.894> 600 60<115 808.894>
VStem: 150 60<1.10742 67>
LayerCount: 2
Fore
SplineSet
780 600 m 2xb8
 115 600 l 1
 172 260 l 1
 580 260 l 2
 597 260 610 247 610 230 c 0
 610 213 597 200 580 200 c 2
 182 200 l 1
 210 35 l 1
 210 30 l 2
 210 13 196 0 180 0 c 0
 165 0 152 11 150 25 c 2
 50 625 l 1
 50 630 l 2
 50 647 64 660 80 660 c 2
 780 660 l 2
 797 660 810 647 810 630 c 0
 810 613 797 600 780 600 c 2xb8
EndSplineSet
Validated: 1
EndChar

StartChar: f
Encoding: 102 102 94
Width: 632
VWidth: 1030
Flags: W
HStem: 0 21G<139.5 155> 0 21G<139.5 155> 134 60<160 445.894> 402 60<115 580.894>
VStem: 118 59<1.10742 66.3824>
LayerCount: 2
Fore
SplineSet
552 402 m 2xb8
 115 402 l 1
 150 194 l 1
 417 194 l 2
 434 194 447 181 447 164 c 0
 447 147 434 134 417 134 c 2
 160 134 l 1
 177 35 l 1
 177 30 l 2
 177 13 163 0 147 0 c 0
 132 0 120 11 118 25 c 2
 50 427 l 1
 50 432 l 2
 50 449 64 462 80 462 c 2
 552 462 l 2
 569 462 582 449 582 432 c 0
 582 415 569 402 552 402 c 2xb8
EndSplineSet
Validated: 1
EndChar

StartChar: g
Encoding: 103 103 95
Width: 632
VWidth: 1030
Flags: W
HStem: 0 60<221.408 409.079> 403 60<203.661 435.115>
VStem: 50 60<170.796 329.563> 522 60<270.106 344.218>
LayerCount: 2
Fore
SplineSet
472 45 m 1
 432 20 377 0 316 0 c 0
 165 0 50 114 50 265 c 0
 50 365 128 420 204 445 c 0
 247 459 288 463 316 463 c 0
 387 463 474 438 523 403 c 0
 555 380 582 345 582 299 c 0
 582 282 569 269 552 269 c 0
 535 269 522 282 522 299 c 0
 522 348 456 377 411 389 c 0
 375 399 337 403 316 403 c 0
 295 403 258 400 222 388 c 0
 193 379 166 364 146 346 c 0
 124 326 110 301 110 265 c 0
 110 147 197 60 316 60 c 0
 362 60 400 77 433 92 c 1
 360 179 l 2
 356 184 353 191 353 198 c 0
 353 215 366 228 383 228 c 0
 392 228 400 224 406 217 c 2
 575 16 l 2
 579 11 582 3 582 -4 c 0
 582 -21 569 -34 552 -34 c 0
 543 -34 535 -30 529 -23 c 2
 472 45 l 1
EndSplineSet
Validated: 1
EndChar

StartChar: G
Encoding: 71 71 96
Width: 860
VWidth: 1030
Flags: W
HStem: 0 60<312.195 551.981> 600 60<294.112 572.581>
VStem: 50 60<262.195 464.825> 750 60<401.106 491.373>
LayerCount: 2
Fore
SplineSet
780 -50 m 0
 771 -50 763 -46 757 -39 c 2
 665 71 l 1
 639 54 610 42 580 29 c 0
 534 10 484 0 430 0 c 0
 214 0 50 164 50 380 c 0
 50 522 161 598 268 633 c 0
 329 653 389 660 430 660 c 0
 530 660 661 622 729 573 c 0
 774 540 810 492 810 430 c 0
 810 413 797 400 780 400 c 0
 763 400 750 413 750 430 c 0
 750 514 648 558 574 578 c 0
 519 593 464 600 430 600 c 0
 396 600 341 594 287 576 c 0
 199 548 110 492 110 380 c 0
 110 196 246 60 430 60 c 0
 476 60 519 68 558 84 c 0
 583 95 606 106 626 118 c 1
 507 261 l 2
 503 266 500 273 500 280 c 0
 500 297 513 310 530 310 c 0
 539 310 547 306 553 299 c 2
 803 -1 l 2
 807 -6 810 -13 810 -20 c 0
 810 -37 797 -50 780 -50 c 0
EndSplineSet
Validated: 1
EndChar

StartChar: I
Encoding: 73 73 97
Width: 260
VWidth: 1030
Flags: W
HStem: 0 21G<121.5 138.5> 0 21G<121.5 138.5> 640 20G<121.5 138.5>
VStem: 100 60<1.1064 658.894>
LayerCount: 2
Fore
SplineSet
160 630 m 2xb0
 160 30 l 2
 160 13 147 0 130 0 c 0
 113 0 100 13 100 30 c 2
 100 630 l 2
 100 647 113 660 130 660 c 0
 147 660 160 647 160 630 c 2xb0
EndSplineSet
Validated: 1
Substitution2: "'cv02' Character Variants 02 lookup 1 subtable" I.alt
EndChar

StartChar: i
Encoding: 105 105 98
Width: 220
VWidth: 1030
Flags: W
HStem: 0 21G<101.5 118.5> 0 21G<101.5 118.5>
VStem: 80 60<1.1064 478.894>
LayerCount: 2
Fore
SplineSet
140 450 m 2xa0
 140 30 l 2
 140 13 127 0 110 0 c 0
 93 0 80 13 80 30 c 2
 80 450 l 2
 80 467 93 480 110 480 c 0
 127 480 140 467 140 450 c 2xa0
EndSplineSet
Validated: 1
Substitution2: "'cv02' Character Variants 02 lookup 1 subtable" i.alt
EndChar

StartChar: L
Encoding: 76 76 99
Width: 760
VWidth: 1030
Flags: W
HStem: 0 60<115 708.894> 640 20G<172.5 188>
VStem: 150 60<593 658.893>
LayerCount: 2
Fore
SplineSet
210 625 m 2
 115 60 l 1
 680 60 l 2
 697 60 710 47 710 30 c 0
 710 13 697 0 680 0 c 2
 80 0 l 2
 64 0 50 13 50 30 c 0
 50 32 50 33 50 35 c 2
 150 635 l 2
 152 649 165 660 180 660 c 0
 196 660 210 647 210 630 c 0
 210 628 210 627 210 625 c 2
EndSplineSet
Validated: 1
Substitution2: "'cv03' Character Variants 03 lookup 2 subtable" L.alt
EndChar

StartChar: l
Encoding: 108 108 100
Width: 562
VWidth: 1030
Flags: W
HStem: 0 60<115 510.894> 442 20G<139.5 155> 442 20G<139.5 155>
VStem: 117 60<395 460.893>
LayerCount: 2
Fore
SplineSet
177 427 m 2xd0
 115 60 l 1
 482 60 l 2
 499 60 512 47 512 30 c 0
 512 13 499 0 482 0 c 2
 80 0 l 2
 64 0 50 13 50 30 c 0
 50 32 50 33 50 35 c 2
 117 437 l 2
 119 451 132 462 147 462 c 0
 163 462 177 449 177 432 c 0
 177 430 177 429 177 427 c 2xd0
EndSplineSet
Validated: 1
Substitution2: "'cv03' Character Variants 03 lookup 2 subtable" l.alt
EndChar

StartChar: Q
Encoding: 81 81 101
Width: 860
VWidth: 1030
Flags: W
HStem: 0 60<312.195 551.028> 600 60<294.112 565.422>
VStem: 50 60<262.195 464.825> 750 60<259.04 466.201>
LayerCount: 2
Fore
SplineSet
780 -50 m 0
 771 -50 763 -46 757 -39 c 2
 662 75 l 1
 599 28 519 0 430 0 c 0
 214 0 50 164 50 380 c 0
 50 522 161 598 268 633 c 0
 329 653 389 660 430 660 c 0
 538 660 664 617 732 556 c 0
 778 514 810 456 810 380 c 0
 810 275 772 183 707 115 c 1
 803 -1 l 2
 807 -6 810 -13 810 -20 c 0
 810 -37 797 -50 780 -50 c 0
668 161 m 1
 719 217 750 293 750 380 c 0
 750 492 661 548 573 576 c 0
 519 594 464 600 430 600 c 0
 396 600 341 594 287 576 c 0
 199 548 110 492 110 380 c 0
 110 196 246 60 430 60 c 0
 504 60 571 82 624 121 c 1
 507 261 l 2
 503 266 500 273 500 280 c 0
 500 297 513 310 530 310 c 0
 539 310 547 306 553 299 c 2
 668 161 l 1
EndSplineSet
Validated: 1
EndChar

StartChar: q
Encoding: 113 113 102
Width: 632
VWidth: 1030
Flags: W
HStem: 0 60<221.408 411.193> 403 60<203.661 428.356>
VStem: 50 60<170.796 329.563> 522 60<169.417 331.025>
LayerCount: 2
Fore
SplineSet
552 -34 m 0
 543 -34 535 -30 529 -23 c 2
 471 47 l 1
 428 17 374 0 316 0 c 0
 165 0 50 114 50 265 c 0
 50 365 128 420 204 445 c 0
 247 459 288 463 316 463 c 0
 392 463 478 434 526 391 c 0
 559 361 582 319 582 265 c 0
 582 195 558 134 516 87 c 1
 575 16 l 2
 579 11 582 3 582 -4 c 0
 582 -21 569 -34 552 -34 c 0
477 133 m 1
 506 168 522 213 522 265 c 0
 522 301 508 326 486 346 c 0
 466 364 439 379 410 388 c 0
 374 400 337 403 316 403 c 0
 295 403 258 400 222 388 c 0
 193 379 166 364 146 346 c 0
 124 326 110 301 110 265 c 0
 110 147 197 60 316 60 c 0
 360 60 399 72 432 93 c 1
 360 179 l 2
 356 184 353 191 353 198 c 0
 353 215 366 228 383 228 c 0
 392 228 400 224 406 217 c 2
 477 133 l 1
EndSplineSet
Validated: 1
EndChar

StartChar: R
Encoding: 82 82 103
Width: 860
VWidth: 1030
Flags: W
HStem: 0 57<593 608.82> 0 21G<172.5 188> 608 60<117.175 549.682>
VStem: 150 60<1.10742 67> 750 60<476.599 556.234>
LayerCount: 2
Fore
SplineSet
266 221 m 1x78
 593 57 l 2xb8
 603 52 610 42 610 30 c 0
 610 13 596 0 580 0 c 0
 576 0 571 1 567 3 c 2
 183 195 l 1
 210 35 l 2
 210 33 210 32 210 30 c 0
 210 13 196 0 180 0 c 0
 165 0 152 11 150 25 c 2
 50 625 l 2
 50 626 50 627 50 628 c 0
 50 644 62 660 78 660 c 2
 78 660 190 668 326 668 c 0
 439 668 568 662 664 641 c 0
 713 630 756 616 786 586 c 0
 800 571 810 552 810 530 c 0
 810 477 777 434 735 400 c 0
 681 357 608 322 530 294 c 0
 437 260 338 237 266 221 c 1x78
115 602 m 1
 172 263 l 1
 226 273 374 302 509 351 c 0
 584 378 654 411 698 447 c 0
 734 476 750 504 750 530 c 0
 750 546 732 555 715 563 c 0
 698 571 677 577 651 583 c 0
 564 602 437 608 326 608 c 0
 235 608 158 604 115 602 c 1
EndSplineSet
Validated: 1
EndChar

StartChar: r
Encoding: 114 114 104
Width: 632
VWidth: 1030
Flags: W
HStem: 0 57<430 445.82> 0 21G<139.5 155> 408 60<97.237 470.644>
VStem: 118 59<1.10742 66.3824> 522 60<326.859 365>
LayerCount: 2
Fore
SplineSet
50 428 m 1x78
 50 429 50 431 50 432 c 0
 50 448 60 462 78 462 c 2
 78 462 154 468 246 468 c 0
 346 468 458 464 529 433 c 0
 554 422 582 400 582 365 c 0
 582 325 558 294 528 270 c 0
 458 215 332 176 234 154 c 1
 430 57 l 2xb8
 440 52 447 42 447 30 c 0
 447 13 433 0 417 0 c 0
 413 0 408 1 404 3 c 2
 162 123 l 1
 177 35 l 2
 177 33 177 32 177 30 c 0
 177 13 163 0 147 0 c 0
 132 0 120 11 118 25 c 2
 50 427 l 1
 50 428 l 1x78
115 404 m 1
 150 198 l 1
 192 206 283 224 366 254 c 0
 416 272 462 294 490 317 c 0
 513 336 522 352 522 365 c 1
 522 365 516 379 463 391 c 0
 406 404 320 408 246 408 c 0
 192 408 145 406 115 404 c 1
EndSplineSet
Validated: 1
EndChar

StartChar: S
Encoding: 83 83 105
Width: 860
VWidth: 1016
Flags: W
HStem: -1 60<283.785 579.65> 593 60<201.083 594.529>
VStem: 50 60<469.487 535.485> 150 60<107.197 169.894> 650 60<105.134 204.611> 750 60<437.106 510.923>
LayerCount: 2
Fore
SplineSet
750 466 m 0
 750 488 737 509 705 529 c 0
 635 573 507 593 392 593 c 0
 305 593 222 581 168 561 c 0
 139 550 121 537 114 528 c 0
 111 523 110 520 110 516 c 0
 110 489 125 468 163 447 c 0
 210 421 284 402 362 383 c 0
 480 354 612 325 676 242 c 0
 697 214 710 180 710 141 c 0
 710 104 689 74 661 54 c 0
 611 18 521 -1 431 -1 c 0
 342 -1 252 18 200 55 c 0
 172 75 150 104 150 141 c 0
 150 158 163 171 180 171 c 0
 197 171 210 158 210 141 c 0
 210 129 216 117 235 104 c 0
 277 74 358 59 432 59 c 0
 505 59 584 73 626 103 c 0
 644 116 650 128 650 141 c 0
 650 193 617 223 581 245 c 0
 470 313 253 329 134 395 c 0
 88 421 50 459 50 516 c 0
 50 555 78 583 110 601 c 0
 178 639 285 653 392 653 c 0
 520 653 656 630 737 580 c 0
 778 554 810 516 810 466 c 0
 810 449 797 436 780 436 c 0
 763 436 750 449 750 466 c 0
EndSplineSet
Validated: 1
EndChar

StartChar: s
Encoding: 115 115 106
Width: 632
VWidth: 1005
Flags: W
HStem: 0 60<201.385 430.959> 398 60<140.316 450.471>
VStem: 50 60<324.642 356> 117 60<83.2169 133.894> 455 60<83.1457 150.897> 522 60<294.106 352.689>
LayerCount: 2
Fore
SplineSet
522 323 m 0
 522 336 511 352 473 368 c 0
 428 387 358 398 291 398 c 0
 233 398 176 390 142 377 c 0
 111 365 110 356 110 356 c 1
 110 343 116 332 140 319 c 0
 219 277 363 266 444 218 c 0
 479 197 515 158 515 105 c 0
 515 76 497 54 477 39 c 0
 439 12 379 0 317 0 c 4
 254 0 193 12 155 39 c 0
 135 53 117 76 117 105 c 0
 117 122 130 135 147 135 c 0
 164 135 177 122 177 105 c 0
 177 101 179 96 190 88 c 0
 217 69 270 60 317 60 c 0
 364 60 416 69 442 88 c 0
 453 96 455 101 455 105 c 0
 455 137 435 152 413 166 c 0
 338 211 192 221 111 266 c 0
 79 284 50 313 50 356 c 0
 50 388 73 409 96 422 c 0
 117 434 142 441 171 447 c 0
 209 454 251 458 293 458 c 0
 384 458 475 441 528 407 c 0
 557 389 582 361 582 323 c 0
 582 306 569 293 552 293 c 0
 535 293 522 306 522 323 c 0
EndSplineSet
Validated: 1
EndChar

StartChar: U
Encoding: 85 85 107
Width: 860
VWidth: 1030
Flags: W
HStem: 0 60<239.622 619.368> 640 20G<174 188.5 671.5 686>
VStem: 50 60<151.719 397.711> 153 57<617.188 658.82> 650 57<617.188 658.82> 750 60<153.015 397.711>
LayerCount: 2
Fore
SplineSet
207 617 m 1
 207 617 110 422 110 230 c 0
 110 201 116 178 127 159 c 0
 172 80 297 60 430 60 c 0
 563 60 688 80 733 159 c 0
 744 178 750 201 750 230 c 0
 750 422 653 617 653 617 c 1
 651 621 650 626 650 630 c 0
 650 646 663 660 680 660 c 0
 692 660 702 653 707 643 c 0
 707 642 739 579 767 488 c 0
 790 415 810 323 810 230 c 0
 810 122 744 65 664 34 c 0
 599 9 519 0 430 0 c 0
 272 0 133 29 75 129 c 0
 58 158 50 192 50 230 c 0
 50 323 70 415 93 488 c 0
 121 579 153 642 153 643 c 0
 158 653 168 660 180 660 c 0
 197 660 210 646 210 630 c 0
 210 626 209 621 207 617 c 1
EndSplineSet
Validated: 1
EndChar

StartChar: u
Encoding: 117 117 108
Width: 632
VWidth: 1030
Flags: W
HStem: 0 60<169.849 462.151> 442 20G<141 155.5 476.5 491> 442 20G<141 155.5 476.5 491>
VStem: 50 60<106.655 305.366> 121 56<419.188 460.82> 455 56<419.188 460.82> 522 60<106.655 305.366>
LayerCount: 2
Fore
SplineSet
174 419 m 1xde
 174 419 110 290 110 164 c 0
 110 146 114 132 120 121 c 0
 148 73 232 60 316 60 c 0
 400 60 484 73 512 121 c 0
 518 132 522 146 522 164 c 0
 522 290 458 419 458 419 c 1
 456 423 455 428 455 432 c 0
 455 448 468 462 485 462 c 0
 497 462 506 455 511 445 c 0
 512 444 534 402 553 340 c 0
 568 290 582 228 582 164 c 0
 582 87 533 44 477 23 c 0
 431 6 376 0 316 0 c 0
 256 0 201 6 155 23 c 0
 99 44 50 87 50 164 c 0
 50 228 64 290 79 340 c 0
 98 402 120 444 121 445 c 0
 126 455 135 462 147 462 c 0
 164 462 177 448 177 432 c 0
 177 428 176 423 174 419 c 1xde
EndSplineSet
Validated: 1
EndChar

StartChar: V
Encoding: 86 86 109
Width: 860
VWidth: 1030
Flags: W
HStem: 0 21G<424.5 435.5> 0 21G<424.5 435.5> 640 20G<71.5 85.5 774.5 788.5>
LayerCount: 2
Fore
SplineSet
80 660 m 0xa0
 91 660 101 654 106 645 c 2
 430 90 l 1
 754 645 l 2
 759 654 769 660 780 660 c 0
 797 660 810 646 810 630 c 0
 810 625 809 620 806 615 c 2
 456 15 l 2
 451 6 441 0 430 0 c 0
 419 0 409 6 404 15 c 2
 54 615 l 2
 51 620 50 625 50 630 c 0
 50 646 63 660 80 660 c 0xa0
EndSplineSet
Validated: 1
EndChar

StartChar: v
Encoding: 118 118 110
Width: 632
VWidth: 1030
Flags: W
HStem: 0 21G<310.5 321.5> 0 21G<310.5 321.5> 442 20G<71.5 85.5 546.5 560.5> 442 20G<71.5 85.5 546.5 560.5>
LayerCount: 2
Fore
SplineSet
80 462 m 0xa0
 91 462 101 456 106 447 c 2
 316 89 l 1
 526 447 l 2
 531 456 541 462 552 462 c 0
 569 462 582 448 582 432 c 0
 582 427 581 422 578 417 c 2
 342 15 l 2
 337 6 327 0 316 0 c 0
 305 0 295 6 290 15 c 2
 54 417 l 2
 51 422 50 427 50 432 c 0
 50 448 63 462 80 462 c 0xa0
EndSplineSet
Validated: 1
EndChar

StartChar: Z
Encoding: 90 90 111
Width: 860
VWidth: 1030
Flags: W
HStem: 0 60<252 708.894> 600 60<51.1064 708>
LayerCount: 2
Fore
SplineSet
80 660 m 2
 780 660 l 2
 797 660 810 647 810 630 c 0
 810 622 806 614 801 609 c 2
 252 60 l 1
 680 60 l 2
 697 60 710 47 710 30 c 0
 710 13 697 0 680 0 c 2
 180 0 l 2
 163 0 150 13 150 30 c 0
 150 38 154 46 159 51 c 2
 708 600 l 1
 80 600 l 2
 63 600 50 613 50 630 c 0
 50 647 63 660 80 660 c 2
EndSplineSet
Validated: 1
EndChar

StartChar: z
Encoding: 122 122 112
Width: 632
VWidth: 1030
Flags: W
HStem: 0 60<220 513.894> 402 60<51.1064 479>
LayerCount: 2
Fore
SplineSet
80 462 m 2
 552 462 l 2
 569 462 582 449 582 432 c 0
 582 424 578 416 573 411 c 2
 220 60 l 1
 485 60 l 2
 502 60 515 47 515 30 c 0
 515 13 502 0 485 0 c 2
 147 0 l 2
 130 0 117 13 117 30 c 0
 117 38 121 46 126 51 c 2
 479 402 l 1
 80 402 l 2
 63 402 50 415 50 432 c 0
 50 449 63 462 80 462 c 2
EndSplineSet
Validated: 1
EndChar

StartChar: W
Encoding: 87 87 113
Width: 961
VWidth: 1030
Flags: W
HStem: 0 21G<273.5 286 674 686.5> 0 21G<273.5 286 674 686.5> 640 20G<72 86.5 873.5 888>
VStem: 852 59<639 658.573>
LayerCount: 2
Fore
SplineSet
680 0 m 0xb0
 668 0 658 7 653 17 c 2
 480 363 l 1
 307 17 l 2
 302 7 292 0 280 0 c 0xb0
 267 0 256 9 252 21 c 2
 52 621 l 2
 51 624 50 628 50 631 c 0
 50 647 64 660 80 660 c 0
 93 660 105 651 109 639 c 2
 286 108 l 1
 453 443 l 2
 458 453 468 460 480 460 c 0
 492 460 502 453 507 443 c 2
 675 108 l 1
 852 639 l 2
 856 651 867 660 880 660 c 0
 896 660 911 648 911 631 c 0
 911 628 910 624 909 621 c 2
 709 21 l 2x70
 705 9 693 0 680 0 c 0xb0
EndSplineSet
Validated: 1
EndChar

StartChar: w
Encoding: 119 119 114
Width: 703
VWidth: 1030
Flags: W
HStem: 0 21G<209.5 222 481 493.5> 0 21G<209.5 222 481 493.5> 442 20G<72 86.5 615.5 630> 442 20G<72 86.5 615.5 630>
VStem: 594 59<442 460.466>
LayerCount: 2
Fore
SplineSet
487 0 m 0xa8
 475 0 465 6 460 16 c 2
 351 232 l 1
 242 16 l 2
 237 6 228 0 216 0 c 0
 203 0 191 8 187 20 c 2
 52 422 l 2
 51 425 50 429 50 432 c 0
 50 449 64 462 80 462 c 0xa8
 93 462 105 454 109 442 c 2
 221 107 l 1
 324 312 l 2
 329 322 339 328 351 328 c 0
 363 328 373 322 378 312 c 2
 481 107 l 1
 594 442 l 2x18
 598 454 609 462 622 462 c 0
 638 462 653 449 653 432 c 0
 653 429 652 425 651 422 c 2
 515 20 l 2
 511 8 500 0 487 0 c 0xa8
EndSplineSet
Validated: 1
EndChar

StartChar: Dcroat
Encoding: 272 272 115
Width: 970
VWidth: 1030
Flags: W
HStem: 0 21G<276.5 285.5> 0 21G<276.5 285.5> 300 60<56.1064 199 271 463.894> 640 20G<177 187>
VStem: 855 60<371.66 460.708>
LayerCount: 2
Fore
SplineSet
85 360 m 2xb8
 199 360 l 1
 155 625 l 2
 155 627 155 628 155 630 c 0
 155 647 169 660 185 660 c 0
 189 660 402 645 599 605 c 0
 686 587 768 564 827 534 c 0
 867 514 915 485 915 430 c 0
 915 378 885 332 845 292 c 0
 794 241 724 194 649 154 c 0
 481 63 295 2 294 2 c 0
 291 1 287 0 284 0 c 0
 269 0 257 11 255 25 c 2
 209 300 l 1
 85 300 l 2
 68 300 55 313 55 330 c 0
 55 347 68 360 85 360 c 2xb8
855 430 m 0
 855 435 854 440 847 448 c 0
 839 458 822 470 800 481 c 0
 750 506 671 529 587 546 c 0
 446 575 291 591 221 597 c 1
 261 360 l 1
 435 360 l 2
 452 360 465 347 465 330 c 0
 465 313 452 300 435 300 c 2
 271 300 l 1
 309 70 l 1
 369 92 501 142 621 207 c 0
 693 246 760 290 803 334 c 0
 838 370 855 403 855 430 c 0
EndSplineSet
Validated: 1
EndChar

StartChar: dcroat
Encoding: 273 273 116
Width: 712
VWidth: 1030
Flags: W
HStem: 0 21G<212.5 221.5> 0 21G<212.5 221.5> 201 60<56.1064 151 222 350.894> 442 20G<145 155> 442 20G<145 155>
LayerCount: 2
Fore
SplineSet
85 261 m 2xb0
 151 261 l 1
 123 427 l 2
 123 429 123 430 123 432 c 0
 123 449 137 462 153 462 c 0
 157 462 300 452 435 425 c 0
 494 413 550 398 592 377 c 0
 622 363 657 340 657 298 c 0
 657 259 635 226 607 198 c 0
 572 163 523 132 472 105 c 0
 357 44 231 2 230 2 c 0
 227 1 223 0 220 0 c 0
 205 0 193 11 191 25 c 2
 161 201 l 1
 85 201 l 2
 68 201 55 214 55 231 c 0
 55 248 68 261 85 261 c 2xb0
597 298 m 1
 597 298 601 295 594 303 c 0
 590 308 579 316 565 323 c 0
 532 339 480 355 423 366 c 0
 335 384 240 394 189 399 c 1
 212 261 l 1
 322 261 l 2
 339 261 352 248 352 231 c 0
 352 214 339 201 322 201 c 2
 222 201 l 1
 244 70 l 1
 288 86 369 118 443 158 c 0
 491 184 536 213 564 241 c 0
 587 264 597 284 597 298 c 1
EndSplineSet
Validated: 1
EndChar

StartChar: caron
Encoding: 711 711 120
Width: 580
Flags: W
HStem: 566 210
LayerCount: 2
Fore
SplineSet
90 776 m 0
 97 776 103 774 108 770 c 2
 290 633 l 1
 472 770 l 2
 477 774 483 776 490 776 c 0
 507 776 520 763 520 746 c 0
 520 736 515 727 508 722 c 2
 308 572 l 2
 303 568 296 566 290 566 c 4
 284 566 277 568 272 572 c 2
 72 722 l 2
 65 727 60 736 60 746 c 0
 60 763 73 776 90 776 c 0
EndSplineSet
Validated: 1
EndChar

StartChar: acute
Encoding: 180 180 123
Width: 380
Flags: W
HStem: 566 210
VStem: 60 260
LayerCount: 2
Fore
SplineSet
60 596 m 0
 60 606 65 615 72 620 c 2
 272 770 l 2
 277 774 283 776 290 776 c 0
 307 776 320 763 320 746 c 0
 320 736 315 727 308 722 c 2
 108 572 l 2
 103 568 97 566 90 566 c 0
 73 566 60 579 60 596 c 0
EndSplineSet
Validated: 1
EndChar

StartChar: zero
Encoding: 48 48 137
Width: 900
VWidth: 1030
Flags: W
HStem: 0 60<314.112 585.422> 600 60<332.195 567.805>
VStem: 70 60<195.175 397.805> 770 60<193.799 397.805>
LayerCount: 2
Fore
SplineSet
830 280 m 0
 830 204 798 146 752 104 c 0
 684 43 558 0 450 0 c 0
 409 0 349 7 288 27 c 0
 181 62 70 138 70 280 c 0
 70 496 234 660 450 660 c 0
 666 660 830 496 830 280 c 0
770 280 m 0
 770 464 634 600 450 600 c 0
 266 600 130 464 130 280 c 0
 130 168 219 112 307 84 c 0
 361 66 416 60 450 60 c 0
 484 60 539 66 593 84 c 0
 681 112 770 168 770 280 c 0
EndSplineSet
Validated: 1
Substitution2: "'zero' Slashed Zero lookup 5 subtable" zero.alt
EndChar

StartChar: one
Encoding: 49 49 138
Width: 550
VWidth: 1030
Flags: W
HStem: 0 21G<441.5 458.5> 0 21G<441.5 458.5> 640 20G<447.5 458>
VStem: 420 60<1.1064 578>
LayerCount: 2
Fore
SplineSet
70 430 m 0xb0
 70 441 76 451 85 456 c 2
 435 656 l 2
 440 659 445 660 450 660 c 0
 466 660 480 647 480 630 c 2
 480 30 l 2
 480 13 467 0 450 0 c 0
 433 0 420 13 420 30 c 2
 420 578 l 1
 115 404 l 2
 110 401 105 400 100 400 c 0
 84 400 70 413 70 430 c 0xb0
EndSplineSet
Validated: 1
EndChar

StartChar: two
Encoding: 50 50 139
Width: 900
VWidth: 1030
Flags: W
HStem: 0 60<284 728.894> 600 60<301.333 598.667>
VStem: 70 60<401.106 485.547> 770 60<366.566 485.578>
LayerCount: 2
Fore
SplineSet
70 430 m 0
 70 474 92 515 125 548 c 0
 192 615 310 660 450 660 c 0
 590 660 708 615 775 548 c 0
 808 515 830 474 830 430 c 0
 830 368 797 322 752 287 c 0
 695 243 618 213 536 181 c 0
 449 147 358 111 284 60 c 1
 700 60 l 2
 717 60 730 47 730 30 c 0
 730 13 717 0 700 0 c 2
 200 0 l 2
 183 0 170 13 170 30 c 0
 170 38 173 46 179 51 c 0
 272 143 401 193 514 237 c 0
 596 269 670 299 716 334 c 0
 752 362 770 391 770 430 c 0
 770 453 758 479 732 505 c 0
 680 557 577 600 450 600 c 0
 323 600 220 557 168 505 c 0
 142 479 130 453 130 430 c 0
 130 413 117 400 100 400 c 0
 83 400 70 413 70 430 c 0
EndSplineSet
Validated: 1
EndChar

StartChar: three
Encoding: 51 51 140
Width: 900
VWidth: 1030
Flags: W
HStem: -150 60<171.206 332.698> 208 60<311.229 589.836> 600 60<71.1064 701>
VStem: 670 60<71.1608 162.046>
LayerCount: 2
Fore
SplineSet
200 200 m 0
 183 200 170 213 170 230 c 0
 170 240 175 250 183 255 c 2
 701 600 l 1
 100 600 l 2
 83 600 70 613 70 630 c 0
 70 647 83 660 100 660 c 2
 800 660 l 2
 817 660 830 647 830 630 c 0
 830 620 825 610 817 605 c 2
 309 267 l 1
 330 268 352 268 376 268 c 0
 457 268 550 263 621 241 c 0
 675 224 730 192 730 130 c 0
 730 93 716 60 694 32 c 0
 650 -23 576 -59 501 -85 c 0
 359 -135 204 -150 203 -150 c 0
 202 -150 201 -150 200 -150 c 0
 183 -150 170 -136 170 -120 c 0
 170 -104 182 -92 197 -90 c 1
 197 -90 348 -75 482 -28 c 0
 553 -3 616 30 647 69 c 0
 662 88 670 108 670 130 c 0
 670 148 653 167 603 183 c 0
 543 202 455 208 376 208 c 0
 277 208 204 200 200 200 c 0
EndSplineSet
Validated: 1
EndChar

StartChar: four
Encoding: 52 52 141
Width: 880
VWidth: 1030
Flags: W
HStem: 0 60<158 610 670 818.894> 640 20G<635.5 648.5>
VStem: 610 60<-148.894 0 60 553>
LayerCount: 2
Fore
SplineSet
610 553 m 1
 158 60 l 1
 610 60 l 1
 610 553 l 1
640 660 m 0
 657 660 670 647 670 630 c 2
 670 60 l 1
 790 60 l 2
 807 60 820 47 820 30 c 0
 820 13 807 0 790 0 c 2
 670 0 l 1
 670 -120 l 2
 670 -137 657 -150 640 -150 c 0
 623 -150 610 -137 610 -120 c 2
 610 0 l 1
 90 0 l 2
 73 0 60 13 60 30 c 0
 60 38 63 45 68 50 c 2
 618 650 l 2
 623 656 631 660 640 660 c 0
EndSplineSet
Validated: 1
EndChar

StartChar: five
Encoding: 53 53 142
Width: 880
VWidth: 1030
Flags: W
HStem: -150 60<161.206 322.698> 208 60<211.051 581.591> 600 60<128 818.894>
VStem: 660 60<71.1608 162.046>
LayerCount: 2
Fore
SplineSet
190 200 m 0
 176 200 164 210 161 223 c 2
 61 623 l 2
 60 626 60 628 60 630 c 0
 60 647 74 660 90 660 c 2
 790 660 l 2
 807 660 820 647 820 630 c 0
 820 613 807 600 790 600 c 2
 128 600 l 1
 213 262 l 1
 258 265 311 268 366 268 c 0
 454 268 545 261 611 241 c 0
 665 224 720 192 720 130 c 0
 720 93 706 60 684 32 c 0
 640 -23 566 -59 491 -85 c 0
 349 -135 194 -150 193 -150 c 0
 192 -150 191 -150 190 -150 c 0
 173 -150 160 -136 160 -120 c 0
 160 -104 172 -92 187 -90 c 1
 187 -90 338 -75 472 -28 c 0
 543 -3 606 30 637 69 c 0
 652 88 660 108 660 130 c 0
 660 148 643 167 593 183 c 0
 533 202 445 208 366 208 c 0
 267 208 194 200 190 200 c 0
EndSplineSet
Validated: 1
EndChar

StartChar: nine
Encoding: 57 57 143
Width: 880
VWidth: 1030
Flags: W
HStem: -150 60<161.106 341.376> 200 60<291.333 589.604> 600 60<291.333 588.667>
VStem: 60 60<374.422 485.578> 760 60<375.18 485.578>
LayerCount: 2
Fore
SplineSet
440 260 m 0
 567 260 670 303 722 355 c 0
 748 381 760 407 760 430 c 0
 760 453 748 479 722 505 c 0
 670 557 567 600 440 600 c 0
 313 600 210 557 158 505 c 0
 132 479 120 453 120 430 c 0
 120 407 132 381 158 355 c 0
 210 303 313 260 440 260 c 0
820 430 m 0
 820 365 801 288 764 212 c 0
 673 25 476 -150 190 -150 c 0
 173 -150 160 -137 160 -120 c 0
 160 -103 173 -90 190 -90 c 0
 451 -90 627 67 710 238 c 0
 717 252 723 267 729 281 c 1
 660 231 557 200 440 200 c 0
 300 200 182 245 115 312 c 0
 82 345 60 386 60 430 c 0
 60 474 82 515 115 548 c 0
 182 615 300 660 440 660 c 0
 580 660 698 615 765 548 c 0
 798 515 820 474 820 430 c 0
EndSplineSet
Validated: 1
EndChar

StartChar: six
Encoding: 54 54 144
Width: 880
VWidth: 1030
Flags: W
HStem: -0 60<291.333 588.667> 400 60<290.396 588.667> 750 60<538.624 718.894>
VStem: 60 60<174.422 284.82> 760 60<174.422 285.578>
LayerCount: 2
Fore
SplineSet
440 400 m 0
 313 400 210 357 158 305 c 0
 132 279 120 253 120 230 c 0
 120 207 132 181 158 155 c 0
 210 103 313 60 440 60 c 0
 567 60 670 103 722 155 c 0
 748 181 760 207 760 230 c 0
 760 253 748 279 722 305 c 0
 670 357 567 400 440 400 c 0
60 230 m 0
 60 295 79 372 116 448 c 0
 207 635 404 810 690 810 c 0
 707 810 720 797 720 780 c 0
 720 763 707 750 690 750 c 0
 429 750 253 593 170 422 c 0
 163 408 157 393 151 379 c 1
 220 429 323 460 440 460 c 0
 580 460 698 415 765 348 c 0
 798 315 820 274 820 230 c 0
 820 186 798 145 765 112 c 0
 698 45 580 0 440 -0 c 0
 300 0 182 45 115 112 c 0
 82 145 60 186 60 230 c 0
EndSplineSet
Validated: 1
EndChar

StartChar: eight
Encoding: 56 56 145
Width: 880
VWidth: 1030
Flags: W
HStem: -0 60<291.333 588.667> 400 72<339.14 540.86> 600 60<337.921 542.079>
VStem: 60 60<174.422 285.578> 235 60<506.088 565.138> 585 60<506.088 565.138> 760 60<174.422 285.578>
LayerCount: 2
Fore
SplineSet
301 444 m 1
 269 462 235 493 235 536 c 0
 235 563 248 585 267 603 c 0
 304 638 367 660 440 660 c 0
 513 660 576 638 613 603 c 0
 632 585 645 563 645 536 c 0
 645 493 611 462 579 444 c 1
 657 425 722 391 765 348 c 0
 798 315 820 274 820 230 c 0
 820 186 798 145 765 112 c 0
 698 45 580 0 440 -0 c 0
 300 0 182 45 115 112 c 0
 82 145 60 186 60 230 c 0
 60 274 82 315 115 348 c 0
 158 391 223 425 301 444 c 1
440 600 m 0
 379 600 331 580 309 559 c 0
 298 549 295 541 295 536 c 0
 295 531 298 522 309 512 c 0
 331 491 379 472 440 472 c 0
 501 472 549 491 571 512 c 0
 582 522 585 531 585 536 c 0
 585 541 582 549 571 559 c 0
 549 580 501 600 440 600 c 0
440 400 m 0
 313 400 210 357 158 305 c 0
 132 279 120 253 120 230 c 0
 120 207 132 181 158 155 c 0
 210 103 313 60 440 60 c 0
 567 60 670 103 722 155 c 0
 748 181 760 207 760 230 c 0
 760 253 748 279 722 305 c 0
 670 357 567 400 440 400 c 0
EndSplineSet
Validated: 1
EndChar

StartChar: seven
Encoding: 55 55 146
Width: 880
VWidth: 1030
Flags: W
HStem: 600 60<132 728>
LayerCount: 2
Fore
SplineSet
140 450 m 0
 127 450 116 459 112 471 c 2
 62 621 l 2
 61 624 60 628 60 631 c 0
 60 647 74 660 90 660 c 2
 790 660 l 2
 807 660 820 647 820 630 c 0
 820 623 818 616 814 611 c 2
 214 -139 l 2
 209 -146 199 -150 190 -150 c 0
 173 -150 160 -137 160 -120 c 0
 160 -113 163 -106 167 -101 c 2
 728 600 l 1
 132 600 l 1
 169 489 l 2
 170 486 171 482 171 479 c 0
 171 462 156 450 140 450 c 0
EndSplineSet
Validated: 1
EndChar

StartChar: exclam
Encoding: 33 33 147
Width: 300
Flags: W
HStem: 0 100<108.438 191.562>
VStem: 100 100<8.4375 91.5625> 120 60<171.106 688.894>
LayerCount: 2
Fore
SplineSet
180 660 m 2xa0
 180 200 l 2
 180 183 167 170 150 170 c 0
 133 170 120 183 120 200 c 2
 120 660 l 2
 120 677 133 690 150 690 c 0
 167 690 180 677 180 660 c 2xa0
100 50 m 0xc0
 100 78 122 100 150 100 c 0
 178 100 200 78 200 50 c 0
 200 22 178 0 150 0 c 0
 122 0 100 22 100 50 c 0xc0
EndSplineSet
Validated: 1
EndChar

StartChar: quotedbl
Encoding: 34 34 148
Width: 430
Flags: W
HStem: 550 99<89.1171 137.194 259.117 307.194>
VStem: 80 100<559.894 639.883> 99 61<396.397 485.9> 250 100<559.894 639.883> 269 61<396.397 485.9>
LayerCount: 2
Fore
SplineSet
350 603 m 2x90
 350 599 l 1x90
 330 425 l 6
 328 409 317 395 300 395 c 4
 285 395 269 406 269 419 c 4x88
 269 421 269 423 270 425 c 6
 308 550 l 1
 270 550 250 575 250 599 c 0
 250 627 272 649 300 649 c 0
 326 649 348 629 350 603 c 2x90
180 603 m 2xc0
 180 599 l 1xc0
 160 425 l 6
 158 409 147 395 130 395 c 4
 115 395 99 406 99 419 c 4xa0
 99 421 99 423 100 425 c 6
 138 550 l 1
 100 550 80 575 80 599 c 0
 80 627 102 649 130 649 c 0
 156 649 178 629 180 603 c 2xc0
EndSplineSet
Validated: 1
EndChar

StartChar: comma
Encoding: 44 44 149
Width: 260
Flags: W
HStem: 0 99<89.1171 137.194>
VStem: 80 100<9.89437 89.8829> 99 61<-153.603 -64.1>
LayerCount: 2
Fore
SplineSet
180 53 m 2xc0
 180 49 l 1xc0
 160 -125 l 6
 158 -141 147 -155 130 -155 c 4
 115 -155 99 -144 99 -131 c 4xa0
 99 -129 99 -127 100 -125 c 6
 138 0 l 1
 100 0 80 25 80 49 c 0
 80 77 102 99 130 99 c 0
 156 99 178 79 180 53 c 2xc0
EndSplineSet
Validated: 1
EndChar

StartChar: semicolon
Encoding: 59 59 150
Width: 260
Flags: HMW
LayerCount: 2
Fore
SplineSet
180 53 m 2
 180 49 l 1
 160 -125 l 2
 158 -141 147 -155 130 -155 c 0
 115 -155 99 -144 99 -131 c 0
 99 -129 99 -127 100 -125 c 2
 138 0 l 1
 100 0 80 25 80 49 c 0
 80 77 102 99 130 99 c 0
 156 99 178 79 180 53 c 2
EndSplineSet
Refer: 153 46 N 1 0 0 1 0 265 2
Validated: 1
EndChar

StartChar: colon
Encoding: 58 58 151
Width: 260
Flags: MW
LayerCount: 2
Fore
SplineSet
80 50 m 0
 80 78 102 100 130 100 c 0
 158 100 180 78 180 50 c 0
 180 22 158 0 130 0 c 0
 102 0 80 22 80 50 c 0
EndSplineSet
Refer: 153 46 S 1 0 0 1 0 265 2
Validated: 1
EndChar

StartChar: quotesingle
Encoding: 39 39 152
Width: 260
Flags: W
HStem: 550 99<89.1171 137.194>
VStem: 80 100<559.894 639.883> 99 61<396.397 485.9>
LayerCount: 2
Fore
SplineSet
180 603 m 2xc0
 180 599 l 1xc0
 160 425 l 6
 158 409 147 395 130 395 c 4
 115 395 99 406 99 419 c 4xa0
 99 421 99 423 100 425 c 6
 138 550 l 1
 100 550 80 575 80 599 c 0
 80 627 102 649 130 649 c 0
 156 649 178 629 180 603 c 2xc0
EndSplineSet
Validated: 1
EndChar

StartChar: period
Encoding: 46 46 153
Width: 260
Flags: W
HStem: 0 100<88.4375 171.562>
VStem: 80 100<8.4375 91.5625>
LayerCount: 2
Fore
SplineSet
80 50 m 0
 80 78 102 100 130 100 c 0
 158 100 180 78 180 50 c 0
 180 22 158 0 130 0 c 4
 102 0 80 22 80 50 c 0
EndSplineSet
Validated: 1
EndChar

StartChar: slash
Encoding: 47 47 154
Width: 660
VWidth: 1030
Flags: W
VStem: 100 58<-148.734 -132> 503 57<792 808.734>
LayerCount: 2
Fore
SplineSet
558 768 m 2
 158 -132 l 2
 153 -143 142 -150 130 -150 c 0
 114 -150 100 -136 100 -120 c 0
 100 -116 101 -112 103 -108 c 2
 503 792 l 2
 508 803 518 810 530 810 c 0
 546 810 560 796 560 780 c 0
 560 776 560 772 558 768 c 2
EndSplineSet
Validated: 1
EndChar

StartChar: grave
Encoding: 96 96 155
Width: 380
Flags: W
HStem: 450 210
VStem: 60 260
LayerCount: 2
Fore
SplineSet
320 480 m 4
 320 463 307 450 290 450 c 4
 283 450 277 452 272 456 c 6
 72 606 l 6
 65 611 60 620 60 630 c 4
 60 647 73 660 90 660 c 4
 97 660 103 658 108 654 c 6
 308 504 l 6
 315 499 320 490 320 480 c 4
EndSplineSet
Validated: 1
EndChar

StartChar: backslash
Encoding: 92 92 156
Width: 660
VWidth: 1030
Flags: W
VStem: 100 57<792 808.734> 502 58<-148.734 -132>
LayerCount: 2
Fore
SplineSet
102 768 m 2
 100 772 100 776 100 780 c 0
 100 796 114 810 130 810 c 0
 142 810 152 803 157 792 c 2
 557 -108 l 2
 559 -112 560 -116 560 -120 c 0
 560 -136 546 -150 530 -150 c 0
 518 -150 507 -143 502 -132 c 2
 102 768 l 2
EndSplineSet
Validated: 1
EndChar

StartChar: plus
Encoding: 43 43 157
Width: 650
VWidth: 1030
Flags: W
HStem: 275 60<121.106 295 355 528.894>
VStem: 295 60<101.106 275 335 508.894>
LayerCount: 2
Fore
SplineSet
355 480 m 2
 355 335 l 1
 500 335 l 2
 517 335 530 322 530 305 c 0
 530 288 517 275 500 275 c 2
 355 275 l 1
 355 130 l 2
 355 113 342 100 325 100 c 0
 308 100 295 113 295 130 c 2
 295 275 l 1
 150 275 l 2
 133 275 120 288 120 305 c 0
 120 322 133 335 150 335 c 2
 295 335 l 1
 295 480 l 2
 295 497 308 510 325 510 c 0
 342 510 355 497 355 480 c 2
EndSplineSet
Validated: 1
EndChar

StartChar: hyphen
Encoding: 45 45 158
Width: 650
VWidth: 1030
Flags: W
HStem: 275 60<121.106 528.894>
LayerCount: 2
Fore
SplineSet
150 335 m 2
 500 335 l 2
 517 335 530 322 530 305 c 0
 530 288 517 275 500 275 c 2
 150 275 l 6
 133 275 120 288 120 305 c 0
 120 322 133 335 150 335 c 2
EndSplineSet
Validated: 1
EndChar

StartChar: equal
Encoding: 61 61 159
Width: 650
VWidth: 1030
Flags: W
HStem: 200 60<121.106 528.894> 350 60<121.106 528.894>
LayerCount: 2
Fore
SplineSet
150 410 m 2
 500 410 l 2
 517 410 530 397 530 380 c 0
 530 363 517 350 500 350 c 2
 150 350 l 2
 133 350 120 363 120 380 c 0
 120 397 133 410 150 410 c 2
150 260 m 2
 500 260 l 2
 517 260 530 247 530 230 c 0
 530 213 517 200 500 200 c 2
 150 200 l 2
 133 200 120 213 120 230 c 0
 120 247 133 260 150 260 c 2
EndSplineSet
Validated: 1
EndChar

StartChar: greater
Encoding: 62 62 160
Width: 699
VWidth: 1030
Flags: W
HStem: 0 21G<142 152.5> 0 21G<142 152.5>
LayerCount: 2
Fore
SplineSet
120 30 m 0x80
 120 41 126 50 134 55 c 2
 493 280 l 1
 134 505 l 2
 126 510 120 519 120 530 c 0
 120 547 134 560 150 560 c 0
 155 560 161 558 166 555 c 2
 566 305 l 2
 574 300 580 291 580 280 c 0
 580 269 574 260 566 255 c 2
 166 5 l 2
 161 2 155 0 150 0 c 0
 134 0 120 13 120 30 c 0x80
EndSplineSet
Validated: 1
EndChar

StartChar: less
Encoding: 60 60 161
Width: 699
VWidth: 1030
Flags: W
HStem: 0 21G<547.5 558> 0 21G<547.5 558>
LayerCount: 2
Fore
SplineSet
580 30 m 0x80
 580 13 566 0 550 0 c 0
 545 0 539 2 534 5 c 2
 134 255 l 2
 126 260 120 269 120 280 c 0
 120 291 126 300 134 305 c 2
 534 555 l 2
 539 558 545 560 550 560 c 0
 566 560 580 547 580 530 c 0
 580 519 574 510 566 505 c 2
 207 280 l 1
 566 55 l 2
 574 50 580 41 580 30 c 0x80
EndSplineSet
Validated: 1
EndChar

StartChar: numbersign
Encoding: 35 35 162
Width: 750
VWidth: 1030
Flags: W
HStem: 200 60<121.106 270 330 420 480 628.894> 350 60<121.106 270 330 420 480 628.894>
VStem: 270 60<51.1064 200 260 350 410 558.894> 420 60<51.1064 200 260 350 410 558.894>
LayerCount: 2
Fore
SplineSet
480 530 m 2
 480 410 l 1
 600 410 l 2
 617 410 630 397 630 380 c 0
 630 363 617 350 600 350 c 2
 480 350 l 1
 480 260 l 1
 600 260 l 2
 617 260 630 247 630 230 c 0
 630 213 617 200 600 200 c 2
 480 200 l 1
 480 80 l 2
 480 63 467 50 450 50 c 0
 433 50 420 63 420 80 c 2
 420 200 l 1
 330 200 l 1
 330 80 l 2
 330 63 317 50 300 50 c 0
 283 50 270 63 270 80 c 2
 270 200 l 1
 150 200 l 2
 133 200 120 213 120 230 c 0
 120 247 133 260 150 260 c 2
 270 260 l 1
 270 350 l 1
 150 350 l 2
 133 350 120 363 120 380 c 0
 120 397 133 410 150 410 c 2
 270 410 l 1
 270 530 l 2
 270 547 283 560 300 560 c 0
 317 560 330 547 330 530 c 2
 330 410 l 1
 420 410 l 1
 420 530 l 2
 420 547 433 560 450 560 c 0
 467 560 480 547 480 530 c 2
330 350 m 1
 330 260 l 1
 420 260 l 1
 420 350 l 1
 330 350 l 1
EndSplineSet
Validated: 1
EndChar

StartChar: bracketleft
Encoding: 91 91 163
Width: 675
VWidth: 1030
Flags: W
HStem: -150 60<301 553.894> 750 60<184 553.894>
LayerCount: 2
Fore
SplineSet
525 750 m 2
 184 750 l 1
 301 -90 l 1
 525 -90 l 2
 542 -90 555 -103 555 -120 c 0
 555 -137 542 -150 525 -150 c 2
 275 -150 l 2
 260 -150 247 -139 245 -124 c 2
 120 776 l 2
 120 778 120 779 120 781 c 0
 120 798 134 810 150 810 c 2
 525 810 l 2
 542 810 555 797 555 780 c 0
 555 763 542 750 525 750 c 2
EndSplineSet
Validated: 1
EndChar

StartChar: bracketright
Encoding: 93 93 164
Width: 675
VWidth: 1030
Flags: W
HStem: -150 60<121.106 374> 750 60<121.106 491>
LayerCount: 2
Fore
SplineSet
150 750 m 2
 133 750 120 763 120 780 c 0
 120 797 133 810 150 810 c 2
 525 810 l 2
 541 810 555 798 555 781 c 0
 555 779 555 778 555 776 c 2
 430 -124 l 2
 428 -139 415 -150 400 -150 c 2
 150 -150 l 2
 133 -150 120 -137 120 -120 c 0
 120 -103 133 -90 150 -90 c 2
 374 -90 l 1
 491 750 l 1
 150 750 l 2
EndSplineSet
Validated: 1
EndChar

StartChar: asciicircum
Encoding: 94 94 165
Width: 580
Flags: W
HStem: 450 210
LayerCount: 2
Fore
SplineSet
90 450 m 4
 73 450 60 463 60 480 c 4
 60 490 65 499 72 504 c 6
 272 654 l 6
 277 658 284 660 290 660 c 4
 296 660 303 658 308 654 c 6
 508 504 l 6
 515 499 520 490 520 480 c 4
 520 463 507 450 490 450 c 4
 483 450 477 452 472 456 c 6
 290 593 l 5
 108 456 l 6
 103 452 97 450 90 450 c 4
EndSplineSet
Validated: 1
EndChar

StartChar: parenleft
Encoding: 40 40 166
Width: 525
VWidth: 1030
Flags: W
VStem: 120 60<218.189 574.788>
LayerCount: 2
Fore
SplineSet
405 -120 m 0
 405 -137 392 -150 375 -150 c 0
 367 -150 360 -147 355 -142 c 0
 257 -50 199 43 166 132 c 0
 124 243 120 346 120 430 c 0
 120 693 280 802 284 805 c 0
 289 808 294 810 300 810 c 0
 317 810 330 797 330 780 c 0
 330 770 325 760 317 755 c 0
 295 741 260 700 239 664 c 0
 209 612 180 536 180 430 c 0
 180 348 184 253 222 153 c 0
 252 73 305 -12 396 -98 c 0
 402 -103 405 -111 405 -120 c 0
EndSplineSet
Validated: 1
EndChar

StartChar: parenright
Encoding: 41 41 167
Width: 525
VWidth: 1030
Flags: W
VStem: 345 60<218.189 574.788>
LayerCount: 2
Fore
SplineSet
120 -120 m 0
 120 -111 123 -103 129 -98 c 0
 220 -12 273 73 303 153 c 0
 341 253 345 348 345 430 c 0
 345 536 316 612 286 664 c 0
 265 700 231 741 208 755 c 0
 200 760 195 770 195 780 c 0
 195 797 208 810 225 810 c 0
 231 810 236 808 241 805 c 0
 245 802 405 693 405 430 c 0
 405 346 401 243 359 132 c 0
 326 43 268 -50 170 -142 c 0
 165 -147 158 -150 150 -150 c 0
 133 -150 120 -137 120 -120 c 0
EndSplineSet
Validated: 1
EndChar

StartChar: underscore
Encoding: 95 95 168
Width: 880
VWidth: 1030
Flags: W
HStem: -230 60<61.1064 818.894>
LayerCount: 2
Fore
SplineSet
90 -170 m 2
 790 -170 l 2
 807 -170 820 -183 820 -200 c 0
 820 -217 807 -230 790 -230 c 2
 90 -230 l 2
 73 -230 60 -217 60 -200 c 0
 60 -183 73 -170 90 -170 c 2
EndSplineSet
Validated: 1
EndChar

StartChar: asterisk
Encoding: 42 42 169
Width: 600
Flags: W
VStem: 270 60<271.106 394 506 628.894>
LayerCount: 2
Fore
SplineSet
480 550 m 0
 480 540 475 530 467 525 c 2
 354 450 l 1
 467 375 l 2
 475 370 480 360 480 350 c 0
 480 333 467 320 450 320 c 0
 444 320 438 322 433 325 c 2
 330 394 l 1
 330 300 l 2
 330 283 317 270 300 270 c 0
 283 270 270 283 270 300 c 2
 270 394 l 1
 167 325 l 2
 162 322 156 320 150 320 c 0
 133 320 120 333 120 350 c 0
 120 360 125 370 133 375 c 2
 246 450 l 1
 133 525 l 2
 125 530 120 540 120 550 c 0
 120 567 133 580 150 580 c 0
 156 580 162 578 167 575 c 2
 270 506 l 1
 270 600 l 2
 270 617 283 630 300 630 c 0
 317 630 330 617 330 600 c 2
 330 506 l 1
 433 575 l 2
 438 578 444 580 450 580 c 0
 467 580 480 567 480 550 c 0
EndSplineSet
Validated: 1
EndChar

StartChar: percent
Encoding: 37 37 170
Width: 1002
Flags: W
HStem: -15 60<679.712 824.528> 189 60<691.94 812.06> 365 60<209.631 352.369> 622 60<195.933 365.755>
VStem: 100 60<473.878 590.092> 402 60<473.878 590.092> 601 60<64.1662 159.271> 843 60<64.1662 159.271>
LayerCount: 2
Fore
SplineSet
724 585 m 2
 374 -15 l 2
 369 -24 359 -30 348 -30 c 0
 331 -30 318 -16 318 0 c 0
 318 5 319 10 322 15 c 2
 672 615 l 2
 677 624 687 630 698 630 c 0
 715 630 728 616 728 600 c 0
 728 595 727 590 724 585 c 2
402 545 m 0
 402 565 394 578 382 589 c 0
 371 599 354 607 337 613 c 0
 316 620 293 622 281 622 c 0
 269 622 245 620 224 613 c 0
 207 607 191 599 180 589 c 0
 168 578 160 565 160 545 c 0
 160 475 211 425 281 425 c 0
 351 425 402 475 402 545 c 0
462 545 m 0
 462 443 383 365 281 365 c 0
 179 365 100 443 100 545 c 0
 100 583 116 612 139 633 c 0
 159 651 183 663 206 670 c 0
 234 679 262 682 281 682 c 0
 333 682 389 663 422 633 c 0
 445 612 462 583 462 545 c 0
843 100 m 0
 843 152 805 189 752 189 c 0
 699 189 661 152 661 100 c 0
 661 86 666 78 675 70 c 0
 683 63 696 56 709 52 c 0
 725 47 743 45 752 45 c 0
 761 45 780 47 796 52 c 0
 809 56 821 63 829 70 c 0
 838 78 843 86 843 100 c 0
903 100 m 0
 903 68 888 42 869 25 c 0
 842 0 795 -15 752 -15 c 0
 709 -15 663 0 635 25 c 0
 616 42 601 68 601 100 c 0
 601 185 667 249 752 249 c 0
 837 249 903 185 903 100 c 0
EndSplineSet
Validated: 1
EndChar

StartChar: dollar
Encoding: 36 36 171
Width: 960
VWidth: 1016
Flags: W
HStem: 0 60<331.187 450 510 631.559> 593 60<251.269 450 510 643.138>
VStem: 100 60<469.487 535.485> 200 60<107.197 169.894> 450 60<-112.894 0 60 294 373 591 653 744.894> 700 60<105.134 204.983> 800 60<437.106 510.923>
LayerCount: 2
Fore
SplineSet
510 716 m 2
 510 651 l 1
 559 648 607 641 651 631 c 0
 703 619 750 603 787 580 c 0
 828 554 860 516 860 466 c 0
 860 449 847 436 830 436 c 0
 813 436 800 449 800 466 c 0
 800 488 787 509 755 529 c 0
 699 564 605 585 510 591 c 1
 510 358 l 1
 565 342 618 324 662 297 c 0
 687 282 709 264 726 242 c 0
 747 214 760 180 760 141 c 0
 760 104 739 74 711 54 c 0
 666 21 590 3 510 0 c 1
 510 -84 l 2
 510 -101 497 -114 480 -114 c 0
 463 -114 450 -101 450 -84 c 2
 450 0 l 1
 412 2 375 7 341 16 c 0
 306 25 275 37 250 55 c 0
 222 75 200 104 200 141 c 0
 200 158 213 171 230 171 c 0
 247 171 260 158 260 141 c 0
 260 129 266 117 285 104 c 0
 321 78 386 64 450 60 c 1
 450 311 l 1
 433 315 415 320 398 324 c 0
 320 343 242 363 184 395 c 0
 138 421 100 459 100 516 c 0
 100 555 128 583 160 601 c 0
 189 617 226 629 268 637 c 0
 320 647 380 653 442 653 c 0
 445 653 447 653 450 653 c 1
 450 716 l 2
 450 733 463 746 480 746 c 0
 497 746 510 733 510 716 c 2
450 593 m 2
 447 593 445 593 442 593 c 0
 355 593 272 581 218 561 c 0
 189 550 171 537 164 528 c 0
 161 523 160 520 160 516 c 0
 160 489 175 468 213 447 c 0
 260 421 334 402 412 383 c 0
 425 380 437 376 450 373 c 1
 450 593 l 2
510 60 m 1
 574 63 639 77 676 103 c 0
 694 116 700 128 700 141 c 0
 700 167 692 187 678 205 c 0
 667 220 651 233 631 245 c 0
 599 265 557 280 510 294 c 1
 510 60 l 1
EndSplineSet
Validated: 1
EndChar

StartChar: ampersand
Encoding: 38 38 172
Width: 846
VWidth: 1030
Flags: W
HStem: 3 61<234.604 471.003> 350 60<304.393 408.815> 610 60<286.35 456.841>
VStem: 100 60<121.839 261.455> 193 60<457.555 578.679> 493 60<501.185 577.649>
LayerCount: 2
Fore
SplineSet
371 670 m 0
 408 670 445 662 477 646 c 0
 516 626 553 590 553 531 c 0
 553 514 540 500 523 500 c 0
 506 500 493 513 493 530 c 0
 493 542 491 551 486 560 c 0
 469 592 420 610 371 610 c 0
 313 610 253 587 253 530 c 0
 253 467 286 435 328 420 c 0
 355 410 375 410 379 410 c 0
 396 410 410 397 410 380 c 0
 410 363 397 350 380 350 c 0
 376 350 337 350 289 335 c 0
 222 314 160 272 160 180 c 0
 160 155 169 135 185 118 c 0
 218 83 286 64 354 64 c 0
 392 64 429 70 462 82 c 0
 506 99 550 126 550 180 c 0
 550 208 550 228 551 242 c 0
 551 261 563 282 586 282 c 0
 604 282 614 269 621 259 c 0
 627 249 633 237 641 221 c 0
 661 183 692 126 741 56 c 0
 744 51 746 45 746 39 c 0
 746 22 733 9 716 9 c 0
 706 9 696 14 691 22 c 0
 655 75 628 121 608 157 c 1
 603 126 588 99 567 78 c 0
 521 30 440 3 352 3 c 0
 265 3 186 29 141 77 c 0
 116 104 100 139 100 180 c 0
 100 296 175 360 260 389 c 1
 221 417 193 462 193 530 c 0
 193 626 282 670 371 670 c 0
EndSplineSet
Validated: 1
EndChar

StartChar: question
Encoding: 63 63 173
Width: 876
Flags: W
HStem: 0 100<388.438 471.562> 636 60<243.172 580.473>
VStem: 100 60<521.312 583.452> 380 100<8.4375 91.5625> 400 60<171.106 243.153> 716 60<441.916 549.966>
LayerCount: 2
Fore
SplineSet
380 50 m 0xf4
 380 78 402 100 430 100 c 0
 458 100 480 78 480 50 c 0
 480 22 458 0 430 0 c 0
 402 0 380 22 380 50 c 0xf4
100 550 m 0
 100 588 124 619 154 639 c 0
 214 679 310 696 409 696 c 0
 551 696 708 661 757 563 c 0
 770 538 776 513 776 490 c 0
 776 447 754 413 725 388 c 0
 662 333 548 302 488 250 c 0
 468 233 460 218 460 200 c 0
 460 183 447 170 430 170 c 0
 413 170 400 183 400 200 c 0xec
 400 240 422 272 449 295 c 0
 512 349 626 381 685 433 c 0
 706 452 716 469 716 490 c 0
 716 502 713 518 703 537 c 0
 667 608 522 636 409 636 c 0
 325 636 236 622 188 589 c 0
 167 575 160 562 160 550 c 0
 160 534 146 520 130 520 c 0
 113 520 100 533 100 550 c 0
EndSplineSet
Validated: 1
EndChar

StartChar: at
Encoding: 64 64 174
Width: 959
Flags: W
HStem: 29 60<403.905 584.76> 344 60<366.797 597.208> 520 60<328.03 631.854>
VStem: 120 60<152.527 392.902> 258 60<172.053 301.005> 592 60<105.366 323.267> 600 60<199.355 331.653 388 428.894> 779 60<150.263 392.902>
LayerCount: 2
Fore
SplineSet
480 520 m 0xfd
 297 520 180 452 180 285 c 0
 180 208 207 114 257 13 c 0
 259 9 260 4 260 -0 c 0
 260 -16 247 -30 230 -30 c 0
 218 -30 208 -23 203 -13 c 0
 150 93 120 195 120 285 c 0
 120 380 155 463 231 516 c 0
 291 558 374 580 480 580 c 0
 586 580 669 558 729 516 c 0
 805 463 839 380 839 285 c 0
 839 195 810 93 757 -13 c 0
 752 -23 742 -30 730 -30 c 0
 727 -30 723 -29 720 -28 c 0
 666 -10 620 2 601 52 c 1
 562 36 524 29 488 29 c 0
 352 29 258 137 258 240 c 0
 258 288 280 335 325 366 c 0
 361 391 409 404 471 404 c 0
 509 404 552 399 600 388 c 1
 600 392 600 396 600 400 c 0
 600 417 613 430 630 430 c 0
 647 430 660 417 660 400 c 0xfb
 660 313 656 247 654 197 c 0
 653 166 652 141 652 122 c 0
 652 78 657 68 667 60 c 0
 674 54 689 46 714 37 c 1
 757 129 779 214 779 285 c 0
 779 452 663 520 480 520 c 0xfd
471 344 m 0
 384 344 318 313 318 240 c 0
 318 171 384 89 488 89 c 0
 519 89 554 96 592 114 c 0
 592 117 592 119 592 122 c 0xfd
 592 190 597 247 599 327 c 1
 549 339 506 344 471 344 c 0
EndSplineSet
Validated: 1
EndChar

StartChar: bar
Encoding: 124 124 175
Width: 300
VWidth: 1030
Flags: W
VStem: 120 60<-148.894 808.894>
LayerCount: 2
Fore
SplineSet
180 780 m 2
 180 -120 l 2
 180 -137 167 -150 150 -150 c 0
 133 -150 120 -137 120 -120 c 2
 120 780 l 2
 120 797 133 810 150 810 c 0
 167 810 180 797 180 780 c 2
EndSplineSet
Validated: 1
EndChar

StartChar: braceleft
Encoding: 123 123 176
Width: 600
VWidth: 1030
Flags: W
HStem: -150 60<393.891 478.894> 200 60<121.107 197.783> 750 60<312.151 478.894>
VStem: 184 60<473.281 694.051> 223 60<289.682 490.599>
LayerCount: 2
Fore
SplineSet
238 235 m 1xe8
 246 231 255 227 262 223 c 0
 297 202 321 174 337 144 c 0
 359 101 365 57 370 18 c 0
 374 -14 379 -42 387 -59 c 0
 399 -82 414 -90 450 -90 c 0
 467 -90 480 -103 480 -120 c 0
 480 -137 467 -150 450 -150 c 0
 391 -150 351 -123 333 -85 c 0
 304 -22 315 58 284 117 c 0
 260 164 214 189 145 200 c 0
 131 202 120 215 120 230 c 0
 120 245 131 258 145 260 c 0
 184 267 201 280 211 295 c 0
 219 308 223 326 223 349 c 0xe8
 223 429 184 531 184 616 c 0
 184 673 201 730 257 767 c 0
 300 796 362 810 450 810 c 0
 467 810 480 797 480 780 c 0
 480 763 467 750 450 750 c 0
 369 750 319 736 290 717 c 0
 256 694 244 662 244 616 c 0xf0
 244 535 283 432 283 349 c 0
 283 304 267 258 238 235 c 1xe8
EndSplineSet
Validated: 1
EndChar

StartChar: braceright
Encoding: 125 125 177
Width: 600
VWidth: 1030
Flags: W
HStem: -150 60<121.106 206.109> 200 60<402.217 478.893> 750 60<121.106 287.849>
VStem: 317 60<289.682 490.599> 356 60<473.281 694.051>
LayerCount: 2
Fore
SplineSet
362 235 m 1xf0
 333 258 317 304 317 349 c 0xf0
 317 432 356 535 356 616 c 0
 356 662 344 694 310 717 c 0
 281 736 231 750 150 750 c 0
 133 750 120 763 120 780 c 0
 120 797 133 810 150 810 c 0
 238 810 300 796 343 767 c 0
 399 730 416 673 416 616 c 0xe8
 416 531 377 429 377 349 c 0
 377 326 381 308 389 295 c 0
 399 280 416 267 455 260 c 0
 469 258 480 245 480 230 c 0
 480 215 469 202 455 200 c 0
 386 189 340 164 316 117 c 0
 285 58 296 -22 267 -85 c 0
 249 -123 209 -150 150 -150 c 0
 133 -150 120 -137 120 -120 c 0
 120 -103 133 -90 150 -90 c 0
 186 -90 201 -82 213 -59 c 0
 221 -42 226 -14 230 18 c 0
 235 57 241 101 263 144 c 0
 279 174 303 202 338 223 c 0
 345 227 354 231 362 235 c 1xf0
EndSplineSet
Validated: 1
EndChar

StartChar: asciitilde
Encoding: 126 126 178
Width: 580
VWidth: 1066
Flags: W
HStem: 472 60<353.876 431.709> 600 60<148.474 226.625>
VStem: 461 59<567.508 644.76>
LayerCount: 2
Fore
SplineSet
61 524 m 0
 86 610 122 660 178 660 c 4
 202 660 223 651 242 640 c 0
 283 615 323 573 362 548 c 0
 376 539 388 532 400 532 c 0
 409 532 417 536 426 546 c 0
 437 559 449 583 461 624 c 0
 465 637 476 646 490 646 c 0
 506 646 520 633 520 617 c 0
 520 614 520 611 519 608 c 0
 506 563 491 530 472 507 c 0
 456 488 432 472 401 472 c 0
 395 472 388 472 381 474 c 0
 336 484 303 518 271 543 c 0
 250 561 229 578 211 588 c 0
 197 596 185 600 178 600 c 0
 167 600 143 592 119 508 c 0
 115 495 104 486 90 486 c 0
 74 486 60 499 60 515 c 0
 60 518 60 521 61 524 c 0
EndSplineSet
Validated: 1
EndChar

StartChar: uni042F
Encoding: 1071 1071 195
Width: 860
VWidth: 1030
Flags: W
HStem: 0 57<251.18 267> 0 21G<672 687.5> 608 60<310.318 742.825>
VStem: 50 60<476.599 556.234> 650 60<1.10742 67>
LayerCount: 2
Fore
SplineSet
594 221 m 1xb8
 522 237 423 260 330 294 c 0
 252 322 179 357 125 400 c 0
 83 434 50 477 50 530 c 0
 50 552 60 571 74 586 c 0
 104 616 147 630 196 641 c 0
 292 662 421 668 534 668 c 0
 670 668 782 660 782 660 c 2
 798 660 810 644 810 628 c 0
 810 627 810 626 810 625 c 2
 710 25 l 2
 708 11 695 0 680 0 c 0
 664 0 650 13 650 30 c 0
 650 32 650 33 650 35 c 2
 677 195 l 1
 293 3 l 2
 289 1 284 0 280 0 c 0x78
 264 0 250 13 250 30 c 0
 250 42 257 52 267 57 c 2
 594 221 l 1xb8
745 602 m 1
 702 604 625 608 534 608 c 0
 423 608 296 602 209 583 c 0
 183 577 162 571 145 563 c 0
 128 555 110 546 110 530 c 0
 110 504 126 476 162 447 c 0
 206 411 276 378 351 351 c 0
 486 302 634 273 688 263 c 1
 745 602 l 1
EndSplineSet
Validated: 1
EndChar

StartChar: uni044F
Encoding: 1103 1103 196
Width: 632
VWidth: 1030
Flags: W
HStem: 0 57<186.18 202> 0 21G<477 492.5> 408 60<161.356 534.763>
VStem: 50 60<326.859 365> 455 59<1.10742 66.3824>
LayerCount: 2
Fore
SplineSet
582 428 m 1xb8
 582 427 l 1
 514 25 l 2
 512 11 500 0 485 0 c 0
 469 0 455 13 455 30 c 0
 455 32 455 33 455 35 c 2
 470 123 l 1
 228 3 l 2
 224 1 219 0 215 0 c 0x78
 199 0 185 13 185 30 c 0
 185 42 192 52 202 57 c 2
 398 154 l 1
 300 176 174 215 104 270 c 0
 74 294 50 325 50 365 c 0
 50 400 78 422 103 433 c 0
 174 464 286 468 386 468 c 0
 478 468 554 462 554 462 c 2
 572 462 582 448 582 432 c 0
 582 431 582 429 582 428 c 1xb8
517 404 m 1
 487 406 440 408 386 408 c 0
 312 408 226 404 169 391 c 0
 116 379 110 365 110 365 c 1
 110 352 119 336 142 317 c 0
 170 294 216 272 266 254 c 0
 349 224 440 206 482 198 c 1
 517 404 l 1
EndSplineSet
Validated: 1
EndChar

StartChar: uni0404
Encoding: 1028 1028 197
Width: 860
VWidth: 1030
Flags: W
HStem: 0 60<311.699 550.838> 200 60<161 561.894> 600 60<294.112 572.581>
VStem: 50 60<263.23 464.825> 750 60<401.106 491.373>
LayerCount: 2
Fore
SplineSet
686 101 m 0
 686 91 681 81 673 76 c 0
 645 57 613 43 580 29 c 0
 534 10 484 0 430 0 c 0
 214 0 50 164 50 380 c 0
 50 522 161 598 268 633 c 0
 329 653 389 660 430 660 c 0
 530 660 661 622 729 573 c 0
 774 540 810 492 810 430 c 0
 810 413 797 400 780 400 c 0
 763 400 750 413 750 430 c 0
 750 514 648 558 574 578 c 0
 519 593 464 600 430 600 c 0
 396 600 341 594 287 576 c 0
 199 548 110 492 110 380 c 0
 110 337 117 297 131 260 c 1
 533 260 l 2
 550 260 563 247 563 230 c 0
 563 213 550 200 533 200 c 2
 161 200 l 1
 217 114 314 60 430 60 c 0
 513 60 589 91 639 126 c 0
 644 129 650 131 656 131 c 0
 673 131 686 118 686 101 c 0
EndSplineSet
Validated: 1
EndChar

StartChar: uni0454
Encoding: 1108 1108 198
Width: 632
VWidth: 1030
Flags: W
HStem: 0 60<221.861 412.442> 134 60<154 407.894> 402 60<206.155 434.963>
VStem: 50 60<195.827 328.122> 522 60<269.106 343.218>
LayerCount: 2
Fore
SplineSet
498 78 m 0
 498 68 493 58 485 53 c 0
 441 25 384 0 316 0 c 0
 165 0 50 114 50 264 c 0
 50 365 128 418 204 443 c 0
 247 457 288 462 316 462 c 0
 385 462 475 437 523 402 c 0
 555 379 582 344 582 298 c 0
 582 281 569 268 552 268 c 0
 535 268 522 281 522 298 c 0
 522 347 456 376 411 388 c 0
 375 398 337 402 316 402 c 0
 295 402 258 397 222 386 c 0
 166 369 110 334 110 264 c 0
 110 239 114 216 121 194 c 1
 379 194 l 2
 396 194 409 181 409 164 c 0
 409 147 396 134 379 134 c 2
 154 134 l 1
 191 88 248 60 316 60 c 0
 370 60 419 81 452 103 c 0
 457 106 462 108 468 108 c 0
 485 108 498 95 498 78 c 0
EndSplineSet
Validated: 1
EndChar

StartChar: uni042D
Encoding: 1069 1069 199
Width: 860
VWidth: 1030
Flags: W
HStem: 0 60<309.162 548.301> 200 60<298.106 699> 600 60<287.419 565.888>
VStem: 50 60<401.106 491.373> 750 60<263.23 464.825>
LayerCount: 2
Fore
SplineSet
174 101 m 0
 174 118 187 131 204 131 c 0
 210 131 216 129 221 126 c 0
 271 91 347 60 430 60 c 0
 546 60 643 114 699 200 c 1
 327 200 l 2
 310 200 297 213 297 230 c 0
 297 247 310 260 327 260 c 2
 729 260 l 1
 743 297 750 337 750 380 c 0
 750 492 661 548 573 576 c 0
 519 594 464 600 430 600 c 0
 396 600 341 593 286 578 c 0
 212 558 110 514 110 430 c 0
 110 413 97 400 80 400 c 0
 63 400 50 413 50 430 c 0
 50 492 86 540 131 573 c 0
 199 622 330 660 430 660 c 0
 471 660 531 653 592 633 c 0
 699 598 810 522 810 380 c 0
 810 164 646 0 430 0 c 0
 376 0 326 10 280 29 c 0
 247 43 215 57 187 76 c 0
 179 81 174 91 174 101 c 0
EndSplineSet
Validated: 1
EndChar

StartChar: uni044D
Encoding: 1101 1101 200
Width: 632
VWidth: 1030
Flags: W
HStem: 0 60<219.558 410.139> 134 60<224.106 478> 402 60<197.037 425.845>
VStem: 50 60<269.106 343.218> 522 60<195.827 328.122>
LayerCount: 2
Fore
SplineSet
134 78 m 0
 134 95 147 108 164 108 c 0
 170 108 175 106 180 103 c 0
 213 81 262 60 316 60 c 0
 384 60 441 88 478 134 c 1
 253 134 l 2
 236 134 223 147 223 164 c 0
 223 181 236 194 253 194 c 2
 511 194 l 1
 518 216 522 239 522 264 c 0
 522 334 466 369 410 386 c 0
 374 397 337 402 316 402 c 0
 295 402 257 398 221 388 c 0
 176 376 110 347 110 298 c 0
 110 281 97 268 80 268 c 0
 63 268 50 281 50 298 c 0
 50 344 77 379 109 402 c 0
 157 437 247 462 316 462 c 0
 344 462 385 457 428 443 c 0
 504 418 582 365 582 264 c 0
 582 114 467 0 316 0 c 0
 248 0 191 25 147 53 c 0
 139 58 134 68 134 78 c 0
EndSplineSet
Validated: 1
EndChar

StartChar: uni0306
Encoding: 774 774 202
Width: 0
HStem: 560 60<186.46 393.54>
VStem: 60 60<679.826 768.894> 460 60<679.826 768.894>
LayerCount: 2
Fore
SplineSet
90 770 m 0
 107 770 120 757 120 740 c 0
 120 726 126 706 134 692 c 0
 158 647 210 620 290 620 c 0
 370 620 422 647 446 692 c 0
 454 706 460 727 460 740 c 0
 460 757 473 770 490 770 c 0
 507 770 520 757 520 740 c 0
 520 737 520 703 499 663 c 0
 484 636 459 606 418 586 c 0
 385 570 343 560 290 560 c 0
 237 560 195 570 162 586 c 0
 121 606 96 636 81 663 c 0
 60 703 60 737 60 740 c 0
 60 757 73 770 90 770 c 0
EndSplineSet
Validated: 1
EndChar

StartChar: uni0429
Encoding: 1065 1065 206
Width: 1060
VWidth: 1030
Flags: W
HStem: 0 60<205 450 510 755 816 942> 640 20G<72 87.5 872.5 888>
VStem: 50 60<592.632 658.893> 450 60<60 458.894> 850 60<592.632 658.893>
CounterMasks: 1 38
LayerCount: 2
Fore
SplineSet
510 430 m 2
 510 60 l 1
 755 60 l 1
 850 635 l 2
 852 649 865 660 880 660 c 0
 896 660 910 647 910 630 c 0
 910 628 910 627 910 625 c 2
 816 60 l 1
 980 60 l 2
 996 60 1010 47 1010 30 c 0
 1010 28 1010 26 1009 23 c 2
 959 -177 l 2
 956 -190 944 -200 930 -200 c 0
 914 -200 900 -187 900 -170 c 0
 900 -168 900 -166 901 -163 c 2
 942 0 l 1
 180 0 l 2
 165 0 152 11 150 25 c 2
 50 625 l 2
 50 627 50 628 50 630 c 0
 50 647 64 660 80 660 c 0
 95 660 108 649 110 635 c 2
 205 60 l 1
 450 60 l 1
 450 430 l 2
 450 447 463 460 480 460 c 0
 497 460 510 447 510 430 c 2
EndSplineSet
Validated: 1
EndChar

StartChar: uni0449
Encoding: 1097 1097 207
Width: 772
VWidth: 1030
Flags: W
HStem: 0 60<173 322 382 531 592 654>
VStem: 50 60<398.667 464.781> 322 60<60 329.894> 594 60<398.667 464.781>
CounterMasks: 1 70
LayerCount: 2
Fore
SplineSet
382 301 m 2
 382 60 l 1
 531 60 l 1
 594 441 l 2
 596 455 609 466 624 466 c 0
 640 466 654 454 654 437 c 0
 654 435 654 434 654 432 c 2
 592 60 l 1
 692 60 l 2
 708 60 722 47 722 30 c 0
 722 28 722 26 721 23 c 2
 687 -113 l 2
 684 -126 672 -136 658 -136 c 0
 642 -136 628 -122 628 -105 c 0
 628 -103 628 -101 629 -98 c 2
 654 0 l 1
 148 0 l 2
 133 0 120 11 118 25 c 2
 50 432 l 2
 50 434 50 435 50 437 c 0
 50 454 64 466 80 466 c 0
 95 466 108 455 110 441 c 2
 173 60 l 1
 322 60 l 1
 322 301 l 2
 322 318 335 331 352 331 c 0
 369 331 382 318 382 301 c 2
EndSplineSet
Validated: 1
EndChar

StartChar: uni042E
Encoding: 1070 1070 208
Width: 1160
VWidth: 1030
Flags: W
HStem: 0 60<609.942 847.805> 0 21G<223 238> 200 60<218 368> 600 60<594.112 865.354>
VStem: 350 60<264.4 464.625> 1050 60<262.195 466.201>
LayerCount: 2
Fore
SplineSet
230 0 m 0x7c
 216 0 204 10 201 23 c 2
 51 623 l 2
 50 626 50 628 50 630 c 0
 50 647 64 660 80 660 c 0
 94 660 106 650 109 637 c 2
 203 260 l 1
 368 260 l 1
 356 297 350 338 350 380 c 0
 350 521 461 598 568 633 c 0
 629 653 689 660 730 660 c 0
 837 660 965 617 1032 556 c 0
 1078 514 1110 456 1110 380 c 0
 1110 164 946 0 730 0 c 0xbc
 580 0 455 79 393 200 c 1
 218 200 l 1
 259 37 l 2
 260 34 260 32 260 30 c 0
 260 13 246 0 230 0 c 0x7c
1050 380 m 0
 1050 492 960 548 873 576 c 0
 819 594 764 600 730 600 c 0
 696 600 641 594 587 576 c 0
 500 548 410 492 410 380 c 0
 410 196 546 60 730 60 c 0
 914 60 1050 196 1050 380 c 0
EndSplineSet
Validated: 1
EndChar

StartChar: uni044E
Encoding: 1102 1102 209
Width: 842
VWidth: 1013
Flags: W
HStem: -1 60<426.431 618.734> -1 21G<175 190> 133 60<186 264> 401 60<412.143 634.671> 441 20G<72 87>
VStem: 255 60<194.963 327.196> 732 60<169.183 327.594>
LayerCount: 2
Fore
SplineSet
732 263 m 0xb6
 732 333 674 368 618 385 c 0
 582 396 545 401 523 401 c 0
 501 401 464 396 428 385 c 0
 372 367 315 333 315 263 c 0
 315 146 402 59 523 59 c 0
 644 59 732 146 732 263 c 0xb6
182 -1 m 0x66
 168 -1 156 9 153 22 c 2
 51 424 l 2
 50 427 50 429 50 431 c 0
 50 448 64 461 80 461 c 0x6e
 94 461 106 451 109 438 c 2
 171 193 l 1
 264 193 l 1
 258 215 255 239 255 263 c 0
 255 365 333 417 410 442 c 0
 453 456 494 461 523 461 c 0
 598 461 687 432 735 389 c 0
 768 360 792 317 792 263 c 0
 792 112 675 -1 523 -1 c 0xb6
 419 -1 333 52 288 133 c 1
 186 133 l 1
 211 36 l 2
 212 33 212 31 212 29 c 0
 212 12 198 -1 182 -1 c 0x66
EndSplineSet
Validated: 1
EndChar

StartChar: uni042B
Encoding: 1067 1067 210
Width: 910
VWidth: 1030
Flags: W
HStem: 0 61<205 396.443> 212 60<183.577 539.51> 640 20G<68 87.5 822.5 842>
VStem: 50 60<592.548 658.752> 550 60<137.903 195.39> 700 60<1.24805 67> 800 60<593 658.752>
LayerCount: 2
Fore
SplineSet
830 660 m 2
 835 660 l 1
 849 658 860 645 860 630 c 2
 860 625 l 1
 760 25 l 2
 758 11 745 0 730 0 c 2
 725 0 l 1
 711 2 700 15 700 30 c 2
 700 35 l 1
 800 635 l 2
 802 649 815 660 830 660 c 2
75 660 m 1
 80 660 l 2
 95 660 108 649 110 635 c 2
 172 259 l 2
 173 259 175 260 176 260 c 2
 176 260 278 272 380 272 c 0
 456 272 536 269 581 235 c 0
 597 223 610 202 610 180 c 0
 610 24 303 0 180 0 c 0
 165 0 152 11 150 25 c 2
 50 625 l 1
 50 630 l 2
 50 645 61 658 75 660 c 1
380 212 m 0
 282 212 184 200 184 200 c 1
 182 200 l 1
 205 61 l 1
 240 62 306 65 374 78 c 0
 422 87 470 101 503 119 c 0
 536 137 550 156 550 180 c 0
 550 189 527 197 510 201 c 0
 477 209 429 212 380 212 c 0
EndSplineSet
Validated: 1
EndChar

StartChar: uni044B
Encoding: 1099 1099 211
Width: 667
VWidth: 1030
Flags: W
HStem: 0 61<173 319.278> 135 59<160 279.958> 142 60<160.319 387.805> 442 20G<68 87.5 579.5 599> 442 20G<68 87.5 579.5 599>
VStem: 50 60<394.475 460.752> 557 60<395 460.752>
LayerCount: 2
Fore
SplineSet
587 462 m 2x96
 592 462 l 1
 606 460 617 447 617 432 c 2
 617 427 l 1
 549 25 l 2
 547 11 534 0 519 0 c 2
 514 0 l 1
 500 2 489 15 489 30 c 0
 489 32 490 33 490 35 c 2
 557 437 l 2
 559 451 572 462 587 462 c 2x96
75 462 m 1
 80 462 l 2
 95 462 108 451 110 437 c 2
 150 194 l 1xd6
 159 195 218 202 283 202 c 0xa6
 338 202 391 198 424 175 c 0
 437 166 448 148 448 130 c 0
 448 17 237 0 148 0 c 0
 133 0 120 11 118 25 c 2
 50 427 l 1
 50 432 l 2
 50 447 61 460 75 462 c 1
283 142 m 0xa6
 225 142 172 136 160 135 c 1
 173 61 l 1
 197 62 233 64 277 72 c 0
 309 78 341 88 361 99 c 0
 380 109 387 118 388 128 c 1
 385 130 379 133 369 135 c 0xc6
 348 140 316 142 283 142 c 0xa6
EndSplineSet
Validated: 1
EndChar

StartChar: uni042A
Encoding: 1066 1066 212
Width: 660
VWidth: 1030
Flags: W
HStem: 0 61<216 392.547> 212 60<250.297 542.335> 600 60<51.1064 245>
VStem: 550 60<137.861 197.264>
LayerCount: 2
Fore
SplineSet
550 180 m 0
 550 183 549 190 526 198 c 0
 499 208 452 212 405 212 c 0
 331 212 258 203 239 201 c 1
 216 61 l 1
 260 63 336 68 406 85 c 0
 456 96 505 114 534 143 c 0
 545 155 550 166 550 180 c 0
405 272 m 0
 469 272 528 268 569 244 c 0
 591 232 610 210 610 180 c 0
 610 118 562 81 517 59 c 0
 488 45 454 35 420 27 c 0
 303 0 181 0 180 0 c 0
 164 0 150 13 150 30 c 0
 150 32 150 33 150 35 c 2
 245 600 l 1
 80 600 l 2
 63 600 50 613 50 630 c 0
 50 647 63 660 80 660 c 2
 280 660 l 2
 296 660 310 646 310 630 c 0
 310 628 310 627 310 625 c 2
 249 263 l 1
 281 267 343 272 405 272 c 0
EndSplineSet
Validated: 1
EndChar

StartChar: uni044A
Encoding: 1098 1098 213
Width: 492
VWidth: 1030
Flags: W
HStem: -1 21G<138 146.5> -1 21G<138 146.5> 142 60<204.861 381.89> 402 60<51.1064 177>
VStem: 382 60<100.545 135.73>
LayerCount: 2
Fore
SplineSet
296 142 m 0x38
 255 142 213 137 194 135 c 1
 182 61 l 1
 211 63 254 67 294 76 c 0
 324 83 359 94 374 112 c 0
 379 118 382 122 382 128 c 0
 380 129 375 133 367 135 c 0
 350 140 323 142 296 142 c 0x38
213 462 m 2
 231 462 242 447 242 431 c 0
 242 430 242 428 242 427 c 1
 242 426 l 1
 204 197 l 1
 230 199 262 202 294 202 c 0
 339 202 383 197 410 182 c 0
 426 173 442 155 442 130 c 0
 442 84 406 56 374 40 c 0
 354 30 331 23 308 18 c 0
 228 -1 147 -1 146 -1 c 0xb8
 130 -1 117 12 117 29 c 0
 117 31 117 32 117 34 c 2
 177 402 l 1
 80 402 l 2
 63 402 50 415 50 432 c 0
 50 449 63 462 80 462 c 2
 213 462 l 2
EndSplineSet
Validated: 1
EndChar

StartChar: uni042C
Encoding: 1068 1068 214
Width: 560
Flags: W
HStem: -30 61<116 292.547> 182 60<150.297 442.236>
VStem: 150 60<563 628.893> 450 60<107.866 167.264>
LayerCount: 2
Fore
SplineSet
450 150 m 0
 450 153 449 160 426 168 c 0
 399 178 352 182 305 182 c 0
 231 182 158 173 139 171 c 1
 116 31 l 1
 160 33 236 38 306 55 c 0
 355 67 407 84 434 113 c 0
 445 125 450 136 450 150 c 0
510 150 m 0
 510 88 462 51 417 29 c 0
 388 15 354 5 320 -3 c 0
 203 -30 81 -30 80 -30 c 0
 64 -30 50 -17 50 0 c 0
 50 2 50 3 50 5 c 2
 150 605 l 2
 152 619 165 630 180 630 c 0
 196 630 210 617 210 600 c 0
 210 598 210 597 210 595 c 2
 149 233 l 1
 181 237 243 242 305 242 c 0
 367 242 428 237 469 214 c 0
 491 202 510 180 510 150 c 0
EndSplineSet
Validated: 1
EndChar

StartChar: uni044C
Encoding: 1100 1100 215
Width: 422
Flags: W
HStem: 128 60<138 311.045>
VStem: 116 59<380.364 446.893> 312 60<87.2895 122.614>
LayerCount: 2
Fore
SplineSet
312 115 m 1
 295 127 260 128 227 128 c 0
 186 128 147 124 128 122 c 1
 116 47 l 1
 173 50 272 63 304 98 c 0
 309 104 312 109 312 115 c 1
138 183 m 1
 163 185 195 188 226 188 c 0
 270 188 314 183 340 168 c 0
 356 159 372 140 372 116 c 0
 372 70 337 43 305 27 c 0
 285 17 263 9 240 4 c 0
 169 -13 96 -14 82 -14 c 0
 81 -14 80 -14 80 -14 c 0
 64 -14 50 -1 50 16 c 0
 50 18 50 19 50 21 c 2
 116 423 l 2
 118 437 131 448 146 448 c 0
 162 448 175 435 175 418 c 0
 175 416 175 415 175 413 c 2
 138 183 l 1
EndSplineSet
Validated: 1
EndChar

StartChar: ZH.alt
Encoding: 57346 57346 216
Width: 860
VWidth: 1030
Flags: W
HStem: 0 21G<172.5 188 672 687.5> 0 21G<172.5 188 672 687.5> 200 60<182 400 460 678> 640 20G<72 87.5 772.5 788>
VStem: 50 60<592.661 658.893> 150 60<1.10742 67> 400 60<51.1064 200 260 458.894> 650 60<1.10742 67> 750 60<592.661 658.893>
LayerCount: 2
Fore
SplineSet
460 430 m 2xbf80
 460 260 l 1
 688 260 l 1
 750 635 l 2
 752 649 765 660 780 660 c 0
 796 660 810 647 810 630 c 0
 810 628 810 627 810 625 c 2
 710 25 l 2
 708 11 695 0 680 0 c 0
 664 0 650 13 650 30 c 0
 650 32 650 33 650 35 c 2
 678 200 l 1
 460 200 l 1
 460 80 l 2
 460 63 447 50 430 50 c 0
 413 50 400 63 400 80 c 2
 400 200 l 1
 182 200 l 1
 210 35 l 2
 210 33 210 32 210 30 c 0
 210 13 196 0 180 0 c 0
 165 0 152 11 150 25 c 2
 50 625 l 2
 50 627 50 628 50 630 c 0
 50 647 64 660 80 660 c 0
 95 660 108 649 110 635 c 2
 172 260 l 1
 400 260 l 1
 400 430 l 2
 400 447 413 460 430 460 c 0
 447 460 460 447 460 430 c 2xbf80
EndSplineSet
Validated: 1
EndChar

StartChar: zh.alt
Encoding: 57347 57347 217
Width: 632
VWidth: 1030
Flags: W
HStem: 0 21G<139.5 155 477 492.5> 0 21G<139.5 155 477 492.5> 134 60<160 286 346 472> 442 20G<72 87.5 544.5 560> 442 20G<72 87.5 544.5 560>
VStem: 50 60<394.475 460.893> 118 59<1.10742 66.3824> 286 60<35.1064 134 194 326.894> 455 59<1.10742 66.3824> 522 60<394.475 460.893>
LayerCount: 2
Fore
SplineSet
346 298 m 2xb7c0
 346 194 l 1
 482 194 l 1
 522 437 l 2
 524 451 537 462 552 462 c 0
 568 462 582 449 582 432 c 0
 582 430 582 429 582 427 c 2
 514 25 l 2
 512 11 500 0 485 0 c 0
 469 0 455 13 455 30 c 0
 455 32 455 33 455 35 c 2
 472 134 l 1
 346 134 l 1
 346 64 l 2
 346 47 333 34 316 34 c 0
 299 34 286 47 286 64 c 2
 286 134 l 1
 160 134 l 1
 177 35 l 2
 177 33 177 32 177 30 c 0
 177 13 163 0 147 0 c 0
 132 0 120 11 118 25 c 2
 50 427 l 2
 50 429 50 430 50 432 c 0
 50 449 64 462 80 462 c 0
 95 462 108 451 110 437 c 2
 150 194 l 1
 286 194 l 1
 286 298 l 2
 286 315 299 328 316 328 c 0
 333 328 346 315 346 298 c 2xb7c0
EndSplineSet
Validated: 1
EndChar

StartChar: I.alt
Encoding: 57348 57348 218
Width: 260
VWidth: 1030
Flags: W
HStem: 0 21G<172.5 188> 0 21G<172.5 188> 640 20G<72 87.5>
VStem: 50 60<593 658.893> 150 60<1.10742 67>
LayerCount: 2
Fore
SplineSet
80 660 m 0xb8
 95 660 108 649 110 635 c 2
 210 35 l 2
 210 33 210 32 210 30 c 0
 210 13 196 0 180 0 c 0
 165 0 152 11 150 25 c 2
 50 625 l 2
 50 627 50 628 50 630 c 0
 50 647 64 660 80 660 c 0xb8
EndSplineSet
Validated: 1
EndChar

StartChar: i.alt
Encoding: 57349 57349 219
Width: 212
VWidth: 1030
Flags: W
HStem: 0 21G<124.5 140> 0 21G<124.5 140> 442 20G<72 87.5> 442 20G<72 87.5>
VStem: 50 60<381.885 460.697> 102 60<1.30291 80.1154>
LayerCount: 2
Fore
SplineSet
80 462 m 0xa8
 95 462 108 451 110 436 c 2xa8
 162 34 l 2
 162 33 162 32 162 31 c 0
 162 14 148 0 132 0 c 0
 117 0 104 11 102 26 c 2xa4
 50 428 l 2
 50 429 50 430 50 431 c 0
 50 448 64 462 80 462 c 0xa8
EndSplineSet
Validated: 1
EndChar

StartChar: L.alt
Encoding: 57350 57350 220
Width: 760
VWidth: 1030
Flags: W
HStem: 0 60<110 708.894> 640 20G<71.5 88.5>
VStem: 50 60<60 658.894>
LayerCount: 2
Fore
SplineSet
110 60 m 1
 680 60 l 2
 697 60 710 47 710 30 c 0
 710 13 697 0 680 0 c 2
 80 0 l 2
 63 0 50 13 50 30 c 2
 50 630 l 2
 50 647 63 660 80 660 c 0
 97 660 110 647 110 630 c 2
 110 60 l 1
EndSplineSet
Validated: 1
EndChar

StartChar: l.alt
Encoding: 57351 57351 221
Width: 562
VWidth: 1030
Flags: W
HStem: 0 60<110 510.894> 442 20G<71.5 88.5> 442 20G<71.5 88.5>
VStem: 50 60<60 460.894>
LayerCount: 2
Fore
SplineSet
110 60 m 1xd0
 482 60 l 2
 499 60 512 47 512 30 c 0
 512 13 499 0 482 0 c 2
 80 0 l 2
 63 0 50 13 50 30 c 2
 50 432 l 2
 50 449 63 462 80 462 c 0
 97 462 110 449 110 432 c 2
 110 60 l 1xd0
EndSplineSet
Validated: 1
EndChar

StartChar: zero.alt
Encoding: 57352 57352 222
Width: 880
VWidth: 1030
Flags: W
HStem: 0 60<308.214 575.888> 600 60<322.195 557.502>
VStem: 60 60<195.824 397.805> 760 60<195.175 397.502>
LayerCount: 2
Fore
SplineSet
820 280 m 0
 820 138 709 62 602 27 c 0
 541 7 481 0 440 0 c 0
 332 0 206 43 138 104 c 0
 92 146 60 204 60 280 c 0
 60 496 224 660 440 660 c 0
 656 660 820 496 820 280 c 0
289 87 m 1
 342 69 405 60 440 60 c 0
 474 60 529 66 583 84 c 0
 671 112 760 168 760 280 c 0
 760 361 734 432 689 487 c 1
 289 87 l 1
647 529 m 1
 592 574 521 600 440 600 c 0
 256 600 120 464 120 280 c 0
 120 196 171 144 230 112 c 1
 647 529 l 1
EndSplineSet
Validated: 1
EndChar

StartChar: exclamdown
Encoding: 161 161 226
Width: 300
VWidth: 800
Flags: W
HStem: 390 100<108.438 191.562>
VStem: 100 100<398.438 481.562> 120 60<-198.894 318.894>
LayerCount: 2
Fore
SplineSet
180 -170 m 2xa0
 180 -187 167 -200 150 -200 c 0
 133 -200 120 -187 120 -170 c 2
 120 290 l 2
 120 307 133 320 150 320 c 0
 167 320 180 307 180 290 c 2
 180 -170 l 2xa0
100 440 m 0xc0
 100 468 122 490 150 490 c 0
 178 490 200 468 200 440 c 0
 200 412 178 390 150 390 c 0
 122 390 100 412 100 440 c 0xc0
EndSplineSet
Validated: 1
EndChar

StartChar: questiondown
Encoding: 191 191 227
Width: 876
VWidth: 800
Flags: W
HStem: -200 60<295.527 632.828> 396 100<404.438 487.562>
VStem: 100 60<-53.9659 54.0838> 396 100<404.438 487.562> 416 60<252.847 324.894> 716 60<-87.4521 -25.3118>
LayerCount: 2
Fore
SplineSet
496 446 m 0xf4
 496 418 474 396 446 396 c 0
 418 396 396 418 396 446 c 0
 396 474 418 496 446 496 c 0
 474 496 496 474 496 446 c 0xf4
776 -54 m 0
 776 -92 752 -123 722 -143 c 0
 662 -183 566 -200 467 -200 c 0
 325 -200 168 -165 119 -67 c 0
 106 -42 100 -17 100 6 c 0
 100 49 122 83 151 108 c 0
 214 163 328 194 388 246 c 0
 408 263 416 278 416 296 c 0
 416 313 429 326 446 326 c 0
 463 326 476 313 476 296 c 0xec
 476 256 454 224 427 201 c 0
 364 147 250 115 191 63 c 0
 170 44 160 27 160 6 c 0
 160 -6 163 -22 173 -41 c 0
 209 -112 354 -140 467 -140 c 0
 551 -140 640 -126 688 -93 c 0
 709 -79 716 -66 716 -54 c 0
 716 -38 730 -24 746 -24 c 0
 763 -24 776 -37 776 -54 c 0
EndSplineSet
Validated: 1
EndChar

StartChar: copyright
Encoding: 169 169 229
Width: 920
VWidth: 1030
Flags: W
HStem: 0 60<342.195 577.805> 145 60<379.795 542.985> 455 60<365.566 560.74> 600 60<324.578 595.888>
VStem: 80 60<262.195 466.201> 247 60<276.651 408.795> 613 60<353.106 416.212> 780 60<262.195 464.825>
LayerCount: 2
Fore
SplineSet
780 380 m 0
 780 492 691 548 603 576 c 0
 549 594 494 600 460 600 c 0
 426 600 371 594 317 576 c 0
 229 548 140 492 140 380 c 0
 140 196 276 60 460 60 c 0
 644 60 780 196 780 380 c 0
840 380 m 0
 840 164 676 0 460 0 c 0
 244 0 80 164 80 380 c 0
 80 456 112 514 158 556 c 0
 226 617 352 660 460 660 c 0
 501 660 561 653 622 633 c 0
 729 598 840 522 840 380 c 0
608 212 m 0
 608 202 603 192 595 187 c 0
 560 165 514 145 460 145 c 0
 340 145 247 236 247 356 c 0
 247 400 267 433 293 457 c 0
 331 491 400 515 460 515 c 0
 517 515 585 495 624 467 c 0
 650 448 673 420 673 382 c 0
 673 365 660 352 643 352 c 0
 626 352 613 365 613 382 c 0
 613 395 607 406 590 418 c 0
 563 438 500 455 460 455 c 0
 444 455 417 452 390 443 c 0
 350 430 307 407 307 356 c 0
 307 269 371 205 460 205 c 0
 500 205 538 222 562 237 c 0
 567 240 572 242 578 242 c 0
 595 242 608 229 608 212 c 0
EndSplineSet
Validated: 1
EndChar

StartChar: registered
Encoding: 174 174 230
Width: 920
VWidth: 1030
Flags: W
HStem: 0 60<342.195 577.805> 143 57<552 566.82> 457 60<313.875 603.264> 600 60<324.578 595.888>
VStem: 80 60<262.195 466.201> 300 59<144.107 209.725> 613 60<399.006 431> 780 60<262.195 464.825>
LayerCount: 2
Fore
SplineSet
840 380 m 0
 840 164 676 0 460 0 c 0
 244 0 80 164 80 380 c 0
 80 456 112 514 158 556 c 0
 226 617 352 660 460 660 c 0
 501 660 561 653 622 633 c 0
 729 598 840 522 840 380 c 0
780 380 m 0
 780 492 691 548 603 576 c 0
 549 594 494 600 460 600 c 0
 426 600 371 594 317 576 c 0
 229 548 140 492 140 380 c 0
 140 196 276 60 460 60 c 0
 644 60 780 196 780 380 c 0
417 267 m 1
 552 200 l 2
 562 195 568 185 568 173 c 0
 568 156 554 143 538 143 c 0
 534 143 529 144 525 146 c 2
 350 232 l 1
 359 178 l 2
 359 176 359 175 359 173 c 0
 359 156 345 143 329 143 c 0
 314 143 302 154 300 168 c 2
 249 472 l 2
 248 475 247 479 247 483 c 0
 247 499 259 512 275 513 c 2
 275 513 335 517 406 517 c 0
 466 517 533 514 585 503 c 0
 623 495 673 476 673 431 c 0
 673 397 652 372 628 353 c 0
 598 329 558 311 517 296 c 0
 483 284 448 275 417 267 c 1
313 455 m 1
 337 310 l 1
 372 316 437 331 497 352 c 0
 535 366 570 382 591 399 c 0
 608 413 613 424 613 431 c 1
 609 432 l 1
 571 455 472 457 406 457 c 0
 368 457 336 456 313 455 c 1
EndSplineSet
Validated: 1
EndChar

StartChar: guillemotright
Encoding: 187 187 231
Width: 1005
VWidth: 1030
Flags: W
HStem: 0 21G<142 152.5 447 457.5> 0 21G<142 152.5 447 457.5>
LayerCount: 2
Fore
SplineSet
425 30 m 0x80
 425 41 431 50 439 55 c 2
 798 280 l 1
 439 505 l 2
 431 510 425 519 425 530 c 0
 425 547 439 560 455 560 c 0
 460 560 466 558 471 555 c 2
 871 305 l 2
 879 300 885 291 885 280 c 0
 885 269 879 260 871 255 c 2
 471 5 l 2
 466 2 460 0 455 0 c 0
 439 0 425 13 425 30 c 0x80
120 30 m 0
 120 41 126 50 134 55 c 2
 493 280 l 1
 134 505 l 2
 126 510 120 519 120 530 c 0
 120 547 134 560 150 560 c 0
 155 560 161 558 166 555 c 2
 566 305 l 2
 574 300 580 291 580 280 c 0
 580 269 574 260 566 255 c 2
 166 5 l 2
 161 2 155 0 150 0 c 0
 134 0 120 13 120 30 c 0
EndSplineSet
Validated: 1
EndChar

StartChar: guillemotleft
Encoding: 171 171 232
Width: 1005
VWidth: 1030
Flags: W
HStem: 0 21G<547.5 558 852.5 863> 0 21G<547.5 558 852.5 863>
LayerCount: 2
Fore
SplineSet
580 30 m 0x80
 580 13 566 0 550 0 c 0
 545 0 539 2 534 5 c 2
 134 255 l 2
 126 260 120 269 120 280 c 0
 120 291 126 300 134 305 c 2
 534 555 l 2
 539 558 545 560 550 560 c 0
 566 560 580 547 580 530 c 0
 580 519 574 510 566 505 c 2
 207 280 l 1
 566 55 l 2
 574 50 580 41 580 30 c 0x80
885 30 m 0
 885 13 871 0 855 0 c 0
 850 0 844 2 839 5 c 2
 439 255 l 2
 431 260 425 269 425 280 c 0
 425 291 431 300 439 305 c 2
 839 555 l 2
 844 558 850 560 855 560 c 0
 871 560 885 547 885 530 c 0
 885 519 879 510 871 505 c 2
 512 280 l 1
 871 55 l 2
 879 50 885 41 885 30 c 0
EndSplineSet
Validated: 1
EndChar

StartChar: cent
Encoding: 162 162 233
Width: 652
VWidth: 1030
Flags: W
HStem: 2 60<228.822 295 355 426.967> 400 60<211.109 295 355 449.312>
VStem: 60 60<170.076 328.122> 295 60<-88.8936 4.58199 62 400 458.46 568.894> 532 60<269.106 343.218>
LayerCount: 2
Fore
SplineSet
508 78 m 0
 508 68 503 58 495 53 c 0
 457 29 410 8 355 2 c 1
 355 -60 l 2
 355 -77 342 -90 325 -90 c 0
 308 -90 295 -77 295 -60 c 2
 295 2 l 1
 160 16 60 124 60 264 c 0
 60 365 138 418 214 443 c 0
 243 452 271 458 295 460 c 1
 295 540 l 2
 295 557 308 570 325 570 c 0
 342 570 355 557 355 540 c 2
 355 461 l 1
 419 455 491 432 533 402 c 0
 565 379 592 344 592 298 c 0
 592 281 579 268 562 268 c 0
 545 268 532 281 532 298 c 0
 532 347 466 376 421 388 c 0
 398 394 375 398 355 400 c 1
 355 62 l 1
 397 68 435 85 462 103 c 0
 467 106 472 108 478 108 c 0
 495 108 508 95 508 78 c 0
295 62 m 1
 295 400 l 1
 276 398 254 393 232 386 c 0
 176 369 120 334 120 264 c 0
 120 157 192 76 295 62 c 1
EndSplineSet
Validated: 1
EndChar

StartChar: dieresis
Encoding: 168 168 234
Width: 420
VWidth: 1516
Flags: W
HStem: 616 100<68.4375 151.562 268.438 351.562>
VStem: 60 100<624.438 707.562> 260 100<624.438 707.562>
LayerCount: 2
Fore
SplineSet
110 716 m 0
 138 716 160 694 160 666 c 0
 160 638 138 616 110 616 c 0
 82 616 60 638 60 666 c 4
 60 694 82 716 110 716 c 0
310 716 m 0
 338 716 360 694 360 666 c 0
 360 638 338 616 310 616 c 0
 282 616 260 638 260 666 c 0
 260 694 282 716 310 716 c 0
EndSplineSet
Validated: 1
EndChar

StartChar: uni00B9
Encoding: 185 185 235
Width: 325
Flags: W
HStem: 300 331<207.672 263.466>
VStem: 205 60<301.106 546>
LayerCount: 2
Fore
SplineSet
60 510 m 0
 60 521 65 531 74 536 c 2
 219 626 l 2
 224 629 229 631 234 631 c 0
 250 631 265 617 265 600 c 2
 265 330 l 2
 265 313 252 300 235 300 c 0
 218 300 205 313 205 330 c 2
 205 546 l 1
 106 484 l 2
 101 481 96 479 91 479 c 0
 75 479 60 493 60 510 c 0
EndSplineSet
Validated: 1
EndChar

StartChar: uni00B2
Encoding: 178 178 236
Width: 499
Flags: W
HStem: 300 60<240 392.894> 570 60<155.311 344.689>
VStem: 60 60<481.106 539.64> 380 60<477.758 539.801>
LayerCount: 2
Fore
SplineSet
60 510 m 0
 60 536 73 558 90 575 c 0
 125 609 183 630 250 630 c 0
 317 630 375 609 410 575 c 0
 427 558 440 536 440 510 c 0
 440 476 421 450 398 432 c 0
 355 399 292 383 240 360 c 1
 364 360 l 2
 381 360 394 347 394 330 c 0
 394 313 381 300 364 300 c 2
 136 300 l 2
 119 300 106 313 106 330 c 0
 106 338 109 347 115 352 c 0
 161 396 222 419 274 439 c 0
 304 451 330 461 349 472 c 0
 373 486 380 497 380 510 c 0
 380 514 378 522 368 532 c 0
 349 551 305 570 250 570 c 0
 195 570 151 551 132 532 c 0
 122 522 120 514 120 510 c 0
 120 493 107 480 90 480 c 0
 73 480 60 493 60 510 c 0
EndSplineSet
Validated: 1
EndChar

StartChar: uni00B3
Encoding: 179 179 237
Width: 500
Flags: W
HStem: 225 60<107.206 241.286> 390 59<239 333.125> 570 60<61.1064 311>
VStem: 334 60<338.524 379.158>
LayerCount: 2
Fore
SplineSet
216 390 m 0
 169 390 141 386 136 386 c 0
 119 386 106 399 106 416 c 0
 106 426 111 436 119 441 c 2
 311 570 l 1
 90 570 l 2
 73 570 60 583 60 600 c 0
 60 617 73 630 90 630 c 2
 410 630 l 2
 427 630 440 617 440 600 c 0
 440 590 435 580 427 575 c 2
 239 449 l 1
 282 448 323 444 354 428 c 0
 373 418 394 399 394 370 c 0
 394 349 386 330 374 315 c 0
 351 286 315 269 279 256 c 0
 212 232 140 225 139 225 c 0
 138 225 137 225 136 225 c 0
 119 225 106 239 106 255 c 0
 106 271 118 283 133 285 c 2
 133 285 200 291 259 312 c 0
 285 321 308 333 321 345 c 0
 331 354 334 362 334 369 c 1
 316 386 255 390 216 390 c 0
EndSplineSet
Validated: 1
EndChar

StartChar: degree
Encoding: 176 176 238
Width: 499
Flags: W
HStem: 300 60<175.32 324.68> 570 60<161.34 338.66>
VStem: 60 60<415.817 533.775> 380 60<415.817 533.775>
LayerCount: 2
Fore
SplineSet
250 570 m 0
 195 570 120 545 120 487 c 0
 120 414 174 360 250 360 c 0
 326 360 380 414 380 487 c 0
 380 545 305 570 250 570 c 0
440 487 m 0
 440 380 357 300 250 300 c 0
 143 300 60 380 60 487 c 0
 60 526 77 558 101 579 c 0
 135 610 196 630 250 630 c 0
 304 630 365 610 399 579 c 0
 423 558 440 526 440 487 c 0
EndSplineSet
Validated: 1
EndChar

StartChar: onequarter
Encoding: 188 188 239
Width: 820
Flags: W
HStem: -96 60<318 471 531 598.894> 305 60<81.1064 738.894>
VStem: 453 60<471.106 716> 471 60<-163.894 -96 -36 133>
LayerCount: 2
Fore
SplineSet
471 -36 m 1xd0
 471 133 l 1
 318 -36 l 1
 471 -36 l 1xd0
531 -36 m 1
 570 -36 l 2
 587 -36 600 -49 600 -66 c 0
 600 -83 587 -96 570 -96 c 2
 531 -96 l 1
 531 -135 l 2
 531 -152 518 -165 501 -165 c 0
 484 -165 471 -152 471 -135 c 2
 471 -96 l 1
 250 -96 l 2
 233 -96 220 -83 220 -66 c 0
 220 -58 223 -51 228 -46 c 2
 479 230 l 2
 484 236 492 240 501 240 c 0
 518 240 531 227 531 210 c 2
 531 -36 l 1
110 365 m 2
 710 365 l 2
 727 365 740 352 740 335 c 0
 740 318 727 305 710 305 c 2
 110 305 l 2
 93 305 80 318 80 335 c 0
 80 352 93 365 110 365 c 2
308 680 m 0
 308 691 313 701 322 706 c 2
 467 796 l 2
 472 799 477 801 482 801 c 0
 498 801 513 787 513 770 c 2
 513 500 l 2
 513 483 500 470 483 470 c 0
 466 470 453 483 453 500 c 2
 453 716 l 1xe0
 353 654 l 2
 348 651 343 649 338 649 c 0
 322 649 308 663 308 680 c 0
EndSplineSet
Validated: 1
EndChar

StartChar: onehalf
Encoding: 189 189 240
Width: 820
Flags: W
HStem: -96 60<400 552.894> 174 60<315.311 504.689> 305 60<81.1064 738.894>
VStem: 220 60<85.1064 143.64> 453 60<471.106 716> 540 60<81.7578 143.801>
LayerCount: 2
Fore
SplineSet
220 114 m 0
 220 140 233 162 250 179 c 0
 285 213 343 234 410 234 c 0
 477 234 535 213 570 179 c 0
 587 162 600 140 600 114 c 0
 600 80 581 54 558 36 c 0
 515 3 452 -13 400 -36 c 1
 524 -36 l 2
 541 -36 554 -49 554 -66 c 0
 554 -83 541 -96 524 -96 c 2
 296 -96 l 2
 279 -96 266 -83 266 -66 c 0
 266 -58 269 -49 275 -44 c 0
 321 0 382 23 434 43 c 0
 464 55 490 65 509 76 c 0
 533 90 540 101 540 114 c 0
 540 118 538 126 528 136 c 0
 509 155 465 174 410 174 c 0
 355 174 311 155 292 136 c 0
 282 126 280 118 280 114 c 0
 280 97 267 84 250 84 c 0
 233 84 220 97 220 114 c 0
110 365 m 2
 710 365 l 2
 727 365 740 352 740 335 c 0
 740 318 727 305 710 305 c 2
 110 305 l 2
 93 305 80 318 80 335 c 0
 80 352 93 365 110 365 c 2
308 680 m 0
 308 691 313 701 322 706 c 2
 467 796 l 2
 472 799 477 801 482 801 c 0
 498 801 513 787 513 770 c 2
 513 500 l 2
 513 483 500 470 483 470 c 0
 466 470 453 483 453 500 c 2
 453 716 l 1
 353 654 l 2
 348 651 343 649 338 649 c 0
 322 649 308 663 308 680 c 0
EndSplineSet
Validated: 1
EndChar

StartChar: threequarters
Encoding: 190 190 241
Width: 820
Flags: W
HStem: -131 60<318 471 531 598.894> 270 60<81.1064 738.894> 395 60<267.206 401.286> 560 59<399 493.125> 740 60<221.106 471>
VStem: 471 60<-198.894 -131 -71 98> 494 60<508.524 549.158>
LayerCount: 2
Fore
SplineSet
376 560 m 0xfa
 329 560 301 556 296 556 c 0
 279 556 266 569 266 586 c 0
 266 596 271 606 279 611 c 2
 471 740 l 1xfc
 250 740 l 2
 233 740 220 753 220 770 c 0
 220 787 233 800 250 800 c 2
 570 800 l 2
 587 800 600 787 600 770 c 0
 600 760 595 750 587 745 c 2
 399 619 l 1
 442 618 483 614 514 598 c 0
 533 588 554 569 554 540 c 0
 554 519 546 500 534 485 c 0
 511 456 475 439 439 426 c 0
 372 402 300 395 299 395 c 0
 298 395 297 395 296 395 c 0
 279 395 266 409 266 425 c 0
 266 441 278 453 293 455 c 1
 293 455 360 461 419 482 c 0
 445 491 468 503 481 515 c 0
 491 524 494 532 494 539 c 1
 476 556 415 560 376 560 c 0xfa
471 -71 m 1
 471 98 l 1
 318 -71 l 1
 471 -71 l 1
531 -71 m 1
 570 -71 l 2
 587 -71 600 -84 600 -101 c 0
 600 -118 587 -131 570 -131 c 2
 531 -131 l 1
 531 -170 l 2
 531 -187 518 -200 501 -200 c 0
 484 -200 471 -187 471 -170 c 2
 471 -131 l 1
 250 -131 l 2
 233 -131 220 -118 220 -101 c 0
 220 -93 223 -86 228 -81 c 2
 479 195 l 2
 484 201 492 205 501 205 c 0
 518 205 531 192 531 175 c 2
 531 -71 l 1
110 330 m 2
 710 330 l 2
 727 330 740 317 740 300 c 0
 740 283 727 270 710 270 c 2
 110 270 l 2
 93 270 80 283 80 300 c 0
 80 317 93 330 110 330 c 2
EndSplineSet
Validated: 1
EndChar

StartChar: ordfeminine
Encoding: 170 170 242
Width: 580
Flags: W
HStem: 220 60<61.1064 518.894> 390 60<236 344>
LayerCount: 2
Fore
SplineSet
90 280 m 2
 490 280 l 2
 507 280 520 267 520 250 c 0
 520 233 507 220 490 220 c 2
 90 220 l 2
 73 220 60 233 60 250 c 0
 60 267 73 280 90 280 c 2
104 345 m 2
 264 615 l 2
 269 624 279 630 290 630 c 0
 301 630 311 624 316 615 c 2
 476 345 l 2
 479 340 480 335 480 330 c 0
 480 314 467 300 450 300 c 0
 439 300 429 306 424 315 c 2
 380 390 l 1
 200 390 l 1
 156 315 l 2
 151 306 141 300 130 300 c 0
 113 300 100 314 100 330 c 0
 100 335 101 340 104 345 c 2
344 450 m 1
 290 541 l 1
 236 450 l 1
 344 450 l 1
EndSplineSet
Validated: 1
Substitution2: "'cv01' Character Variants 01 lookup 0 subtable" orderfeminine.alt
EndChar

StartChar: orderfeminine.alt
Encoding: 57356 57356 243
Width: 580
Flags: W
HStem: 220 60<61.1064 518.894> 390 60<205 375> 570 60<238.007 341.598>
VStem: 150 59<301.107 390 450 536.037> 371 59<301.107 390 450 536.037>
LayerCount: 2
Fore
SplineSet
90 280 m 2
 490 280 l 2
 507 280 520 267 520 250 c 0
 520 233 507 220 490 220 c 2
 90 220 l 2
 73 220 60 233 60 250 c 0
 60 267 73 280 90 280 c 2
375 450 m 1
 369 510 353 570 290 570 c 0
 273 570 261 566 251 560 c 0
 223 542 209 495 205 450 c 1
 375 450 l 1
290 630 m 0
 404 630 436 518 436 411 c 0
 436 363 430 326 430 325 c 0
 428 311 416 300 401 300 c 0
 385 300 371 313 371 330 c 0
 371 337 375 355 376 390 c 1
 204 390 l 1
 205 354 209 337 209 330 c 0
 209 313 195 300 179 300 c 0
 164 300 152 311 150 325 c 0
 150 326 144 363 144 411 c 0
 144 518 176 630 290 630 c 0
EndSplineSet
Validated: 1
EndChar

StartChar: ordmasculine
Encoding: 186 186 244
Width: 580
Flags: W
HStem: 220 60<61.1064 518.894> 300 60<215.32 364.68> 570 60<201.424 378.66>
VStem: 100 60<415.817 533.162> 420 60<415.817 533.775>
LayerCount: 2
Fore
SplineSet
90 280 m 2
 490 280 l 2
 507 280 520 267 520 250 c 0
 520 233 507 220 490 220 c 2
 90 220 l 2
 73 220 60 233 60 250 c 0
 60 267 73 280 90 280 c 2
290 570 m 0
 235 570 160 545 160 487 c 0
 160 414 214 360 290 360 c 0
 366 360 420 414 420 487 c 0
 420 545 345 570 290 570 c 0
480 487 m 0
 480 380 397 300 290 300 c 0
 183 300 100 380 100 487 c 0
 100 559 157 600 211 617 c 0
 241 627 270 630 290 630 c 0
 344 630 405 610 439 579 c 0
 463 558 480 526 480 487 c 0
EndSplineSet
Validated: 1
EndChar

StartChar: uni00AD
Encoding: 173 173 246
Width: 480
VWidth: 1055
Flags: W
HStem: 275 60<61.1064 418.894>
LayerCount: 2
Fore
SplineSet
90 335 m 2
 390 335 l 2
 407 335 420 322 420 305 c 0
 420 288 407 275 390 275 c 2
 90 275 l 2
 73 275 60 288 60 305 c 0
 60 322 73 335 90 335 c 2
EndSplineSet
Validated: 1
EndChar

StartChar: logicalnot
Encoding: 172 172 247
Width: 620
Flags: W
HStem: 220 60<81.1064 480>
VStem: 480 60<71.1064 220>
LayerCount: 2
Fore
SplineSet
110 280 m 2
 510 280 l 2
 527 280 540 267 540 250 c 2
 540 100 l 2
 540 83 527 70 510 70 c 0
 493 70 480 83 480 100 c 2
 480 220 l 1
 110 220 l 2
 93 220 80 233 80 250 c 0
 80 267 93 280 110 280 c 2
EndSplineSet
Validated: 1
EndChar

StartChar: plusminus
Encoding: 177 177 248
Width: 649
Flags: W
HStem: 32 60<121.106 528.894> 333 60<121.106 295 355 528.894>
VStem: 295 60<159.106 333 393 565.894>
LayerCount: 2
Fore
SplineSet
150 92 m 2
 500 92 l 2
 517 92 530 79 530 62 c 0
 530 45 517 32 500 32 c 2
 150 32 l 2
 133 32 120 45 120 62 c 0
 120 79 133 92 150 92 c 2
355 537 m 2
 355 393 l 1
 500 393 l 2
 517 393 530 380 530 363 c 0
 530 346 517 333 500 333 c 2
 355 333 l 1
 355 188 l 2
 355 171 342 158 325 158 c 0
 308 158 295 171 295 188 c 2
 295 333 l 1
 150 333 l 2
 133 333 120 346 120 363 c 0
 120 380 133 393 150 393 c 2
 295 393 l 1
 295 537 l 2
 295 554 308 567 325 567 c 0
 342 567 355 554 355 537 c 2
EndSplineSet
Validated: 1
EndChar

StartChar: brokenbar
Encoding: 166 166 249
Width: 300
Flags: W
VStem: 120 60<-178.894 228.894 371.106 778.894>
LayerCount: 2
Fore
SplineSet
180 750 m 2
 180 400 l 2
 180 383 167 370 150 370 c 0
 133 370 120 383 120 400 c 2
 120 750 l 2
 120 767 133 780 150 780 c 0
 167 780 180 767 180 750 c 2
180 200 m 2
 180 -150 l 2
 180 -167 167 -180 150 -180 c 0
 133 -180 120 -167 120 -150 c 2
 120 200 l 2
 120 217 133 230 150 230 c 0
 167 230 180 217 180 200 c 2
EndSplineSet
Validated: 1
EndChar

StartChar: paragraph
Encoding: 182 182 251
Width: 750
VWidth: 980
Flags: W
HStem: 492 60<213.318 419.284> 699 61<262.211 420>
VStem: 120 60<583.563 655.876> 420 60<-198.894 499 556.59 699> 570 60<-198.894 758.894>
LayerCount: 2
Fore
SplineSet
630 730 m 2
 630 -170 l 2
 630 -187 617 -200 600 -200 c 4
 583 -200 570 -187 570 -170 c 2
 570 730 l 2
 570 747 583 760 600 760 c 0
 617 760 630 747 630 730 c 2
328 552 m 0
 377 552 407 558 420 560 c 1
 420 699 l 1
 387 698 332 694 281 683 c 0
 246 676 215 665 197 653 c 0
 183 643 180 636 180 630 c 0
 180 563 260 552 328 552 c 0
120 630 m 0
 120 749 371 760 450 760 c 0
 467 760 480 747 480 730 c 2
 480 -170 l 2
 480 -187 467 -200 450 -200 c 0
 433 -200 420 -187 420 -170 c 2
 420 499 l 1
 403 497 368 492 328 492 c 0
 226 492 120 522 120 630 c 0
EndSplineSet
Validated: 1
Substitution2: "'cv05' Character Variants 05 lookup 4 subtable" pilcrow.alt
EndChar

StartChar: pilcrow.alt
Encoding: 57357 57357 252
Width: 750
VWidth: 980
Flags: W
HStem: 492 268<252.047 419.236>
VStem: 120 360<559.548 684.631> 420 60<-198.894 499> 570 60<-198.894 758.894>
LayerCount: 2
Fore
SplineSet
630 730 m 2x90
 630 -170 l 2
 630 -187 617 -200 600 -200 c 0
 583 -200 570 -187 570 -170 c 2
 570 730 l 2
 570 747 583 760 600 760 c 0
 617 760 630 747 630 730 c 2x90
120 630 m 0xd0
 120 679 160 704 196 720 c 0
 219 730 243 737 269 742 c 0
 354 758 450 760 450 760 c 2
 451 760 452 760 453 760 c 0
 468 760 480 746 480 730 c 2
 480 -170 l 2
 480 -187 467 -200 450 -200 c 0
 433 -200 420 -187 420 -170 c 2
 420 499 l 1xb0
 404 497 369 492 328 492 c 0
 225 492 120 522 120 630 c 0xd0
EndSplineSet
Validated: 1
EndChar

StartChar: currency
Encoding: 164 164 253
Width: 719
Flags: W
HStem: 138 60<287.174 432.826> 402 60<272.638 446.879>
VStem: 174 60<250.879 367.571> 486 60<250.879 367.571>
LayerCount: 2
Fore
SplineSet
229 423 m 1
 260 445 317 462 360 462 c 0
 406 462 456 447 491 423 c 1
 589 521 l 2
 594 526 602 530 610 530 c 0
 627 530 640 517 640 500 c 0
 640 492 636 484 631 479 c 2
 532 379 l 1
 541 363 546 344 546 322 c 0
 546 275 530 233 502 201 c 1
 581 121 l 2
 586 116 590 108 590 100 c 0
 590 83 577 70 560 70 c 0
 552 70 544 74 539 79 c 2
 455 163 l 1
 427 147 395 138 360 138 c 0
 325 138 293 147 265 163 c 1
 181 79 l 2
 176 74 168 70 160 70 c 0
 143 70 130 83 130 100 c 0
 130 108 134 116 139 121 c 2
 218 201 l 1
 190 233 174 275 174 322 c 0
 174 344 179 363 188 379 c 1
 89 479 l 2
 84 484 80 492 80 500 c 0
 80 517 93 530 110 530 c 0
 118 530 126 526 131 521 c 2
 229 423 l 1
360 402 m 0
 307 402 234 378 234 322 c 0
 234 251 286 198 360 198 c 0
 434 198 486 251 486 322 c 0
 486 378 413 402 360 402 c 0
EndSplineSet
Validated: 1
EndChar

StartChar: sterling
Encoding: 163 163 254
Width: 820
VWidth: 1030
Flags: W
HStem: 0 60<295 638.894> 200 60<131.106 211 320 538.894> 550 57<664.469 738.82> 600 60<230.473 617.471>
VStem: 80 60<419.713 538.168> 270 60<97.3773 199.157>
LayerCount: 2
Fore
SplineSet
160 260 m 2xdc
 211 260 l 1
 177 302 135 344 108 391 c 0
 92 418 80 448 80 480 c 0
 80 562 133 605 196 630 c 0
 250 651 321 660 410 660 c 0xdc
 615 660 719 609 723 607 c 0
 733 602 740 592 740 580 c 0
 740 563 726 550 710 550 c 0xec
 706 550 701 551 697 553 c 1
 697 553 672 567 611 580 c 0
 564 591 497 600 410 600 c 0
 326 600 261 591 217 574 c 0
 182 561 162 543 151 524 c 0
 144 512 140 498 140 480 c 0
 140 463 147 444 160 422 c 0
 191 370 250 313 287 260 c 1
 510 260 l 2
 527 260 540 247 540 230 c 0
 540 213 527 200 510 200 c 2
 320 200 l 1
 326 183 330 166 330 148 c 0
 330 117 319 87 295 60 c 1
 610 60 l 2
 627 60 640 47 640 30 c 0
 640 13 627 0 610 0 c 2
 210 0 l 2
 193 0 180 13 180 30 c 0
 180 41 186 51 195 56 c 0
 257 93 270 123 270 148 c 0
 270 163 264 181 254 200 c 1
 160 200 l 2
 143 200 130 213 130 230 c 0
 130 247 143 260 160 260 c 2xdc
EndSplineSet
Validated: 1
EndChar

StartChar: yen
Encoding: 165 165 255
Width: 820
VWidth: 1030
Flags: W
HStem: 0 21G<401.5 418.5> 0 21G<401.5 418.5> 160 60<231.106 380 440 588.894> 300 60<131.106 275 545 688.894> 640 20G<101.5 115 705 718.5>
VStem: 380 60<1.1064 160>
LayerCount: 2
Fore
SplineSet
260 220 m 2xbc
 380 220 l 1
 319 301 l 1
 316 300 313 300 310 300 c 2
 160 300 l 2
 143 300 130 313 130 330 c 0
 130 347 143 360 160 360 c 2
 275 360 l 1
 86 612 l 2
 82 617 80 623 80 630 c 0
 80 647 93 660 110 660 c 0
 120 660 129 655 134 648 c 2
 410 280 l 1
 686 648 l 2
 691 655 700 660 710 660 c 0
 727 660 740 647 740 630 c 0
 740 623 738 617 734 612 c 2
 545 360 l 1
 660 360 l 2
 677 360 690 347 690 330 c 0
 690 313 677 300 660 300 c 2
 510 300 l 2
 507 300 504 300 501 301 c 1
 440 220 l 1
 560 220 l 2
 577 220 590 207 590 190 c 0
 590 173 577 160 560 160 c 2
 440 160 l 1
 440 30 l 2
 440 13 427 0 410 0 c 0
 393 0 380 13 380 30 c 2
 380 160 l 1
 260 160 l 2
 243 160 230 173 230 190 c 0
 230 207 243 220 260 220 c 2xbc
EndSplineSet
Validated: 1
EndChar

StartChar: mu
Encoding: 181 181 256
Width: 680
VWidth: 1030
Flags: W
HStem: 0 60<248.062 431.371> 0 21G<576 599.5>
VStem: 562 59<287.626 408.894>
LayerCount: 2
Fore
SplineSet
599 143 m 0xa0
 599 115 600 90 604 73 c 0
 607 59 612 51 612 51 c 1
 617 46 621 38 621 30 c 0
 621 13 608 0 591 0 c 0x60
 561 0 550 40 546 61 c 0
 543 77 540 94 539 112 c 1
 500 44 442 0 341 0 c 0
 271 0 217 23 180 60 c 1
 221 -165 l 2
 221 -167 222 -169 222 -171 c 0
 222 -188 207 -200 191 -200 c 0
 176 -200 164 -189 161 -175 c 2
 61 375 l 2
 61 377 60 379 60 381 c 0
 60 397 75 410 91 410 c 0
 110 410 120 396 122 377 c 0
 141 271 163 194 191 145 c 0
 224 88 260 60 341 60 c 0
 375 60 401 66 422 76 c 0
 449 89 470 111 490 146 c 0
 518 197 541 276 562 386 c 0
 565 400 576 410 591 410 c 0
 608 410 621 397 621 380 c 0
 621 374 599 249 599 143 c 0xa0
EndSplineSet
Validated: 1
EndChar

StartChar: section
Encoding: 167 167 257
Width: 781
Flags: W
HStem: -154 60<195.106 420.221> 114 60<269.076 461.043> 382 60<356.229 544.019> 694 60<422.398 660.815>
VStem: 120 60<463.313 560.841> 194 60<189.688 298.166> 564 60<-7.25986 97.5759 257.702 361.643>
LayerCount: 2
Fore
SplineSet
530 165 m 1
 583 153 624 119 624 54 c 0
 624 -1 598 -44 558 -75 c 0
 482 -133 354 -154 224 -154 c 0
 207 -154 194 -141 194 -124 c 0
 194 -107 207 -94 224 -94 c 0
 338 -94 458 -77 521 -28 c 0
 550 -6 564 19 564 54 c 0
 564 69 561 79 557 85 c 0
 538 113 477 114 422 114 c 0
 418 114 415 114 411 114 c 0
 327 114 249 114 212 169 c 0
 200 187 194 208 194 233 c 0
 194 303 236 353 279 384 c 1
 199 390 120 413 120 501 c 0
 120 558 152 605 199 642 c 0
 296 717 459 754 631 754 c 0
 648 754 662 741 662 724 c 0
 662 707 648 694 631 694 c 0
 475 694 322 661 236 595 c 0
 198 565 180 534 180 501 c 0
 180 487 184 479 189 473 c 0
 213 444 285 442 349 442 c 0
 357 442 365 442 372 442 c 0
 383 442 395 442 407 442 c 0
 409 442 411 442 413 442 c 0
 493 441 564 437 603 389 c 0
 617 371 624 348 624 322 c 0
 624 247 576 196 530 165 c 1
405 174 m 0
 417 177 460 190 500 217 c 0
 537 242 564 276 564 322 c 0
 564 336 561 345 556 351 c 0
 535 377 467 381 412 382 c 0
 399 378 357 365 318 338 c 0
 281 313 254 279 254 233 c 0
 254 218 258 208 262 202 c 0
 280 176 334 174 385 174 c 0
 392 174 398 174 405 174 c 0
EndSplineSet
Validated: 1
EndChar

StartChar: cedilla
Encoding: 184 184 258
Width: 430
Flags: W
HStem: -221 61<77.8728 305.669> -83 105<180.656 234.372> -81 61<235 302.416>
VStem: 310 60<-150.227 -92.0967>
LayerCount: 2
Fore
SplineSet
190 22 m 1xd0
 207 22 223 22 240 22 c 1xd0
 238 8 237 -6 235 -20 c 1
 264 -21 294 -25 320 -40 c 0
 351 -56 370 -91 370 -126 c 0
 370 -138 368 -149 363 -160 c 0
 343 -208 284 -221 220 -221 c 0
 183 -221 145 -217 112 -212 c 0
 96 -208 75 -211 65 -195 c 0
 61 -190 60 -185 60 -179 c 0
 60 -164 71 -149 87 -148 c 0
 101 -148 115 -153 129 -154 c 0
 157 -157 185 -160 213 -160 c 0
 236 -160 259 -158 281 -153 c 0
 295 -148 310 -142 310 -124 c 0
 310 -89 267 -81 229 -81 c 0xb0
 216 -81 205 -82 195 -83 c 0
 193 -83 192 -83 190 -83 c 0
 174 -83 160 -69 160 -53 c 0
 160 -51 160 -48 161 -46 c 0
 170 -23 180 -1 190 22 c 1xd0
EndSplineSet
Validated: 1
EndChar

StartChar: endash
Encoding: 8211 8211 304
Width: 780
VWidth: 1055
Flags: W
HStem: 275 60<61.1064 718.894>
LayerCount: 2
Fore
SplineSet
90 335 m 2
 690 335 l 2
 707 335 720 322 720 305 c 0
 720 288 707 275 690 275 c 2
 90 275 l 6
 73 275 60 288 60 305 c 0
 60 322 73 335 90 335 c 2
EndSplineSet
Validated: 1
EndChar

StartChar: emdash
Encoding: 8212 8212 305
Width: 979
VWidth: 1055
Flags: W
HStem: 275 60<61.1064 918.894>
LayerCount: 2
Fore
SplineSet
90 335 m 2
 890 335 l 2
 907 335 920 322 920 305 c 0
 920 288 907 275 890 275 c 2
 90 275 l 6
 73 275 60 288 60 305 c 0
 60 322 73 335 90 335 c 2
EndSplineSet
Validated: 1
EndChar

StartChar: dagger
Encoding: 8224 8224 308
Width: 569
Flags: W
HStem: 520 60<81.1064 255 315 488.894>
VStem: 255 60<-178.894 520 580 778.894>
LayerCount: 2
Fore
SplineSet
110 580 m 2
 255 580 l 1
 255 750 l 2
 255 767 268 780 285 780 c 0
 302 780 315 767 315 750 c 2
 315 580 l 1
 460 580 l 2
 477 580 490 567 490 550 c 0
 490 533 477 520 460 520 c 2
 315 520 l 1
 315 -150 l 2
 315 -167 302 -180 285 -180 c 0
 268 -180 255 -167 255 -150 c 2
 255 520 l 1
 110 520 l 2
 93 520 80 533 80 550 c 0
 80 567 93 580 110 580 c 2
EndSplineSet
Validated: 1
EndChar

StartChar: daggerdbl
Encoding: 8225 8225 309
Width: 569
Flags: W
HStem: 20 60<81.1064 255 315 488.894> 520 60<81.1064 255 315 488.894>
VStem: 255 60<-178.894 20 80 520 580 778.894>
LayerCount: 2
Fore
SplineSet
110 80 m 2
 255 80 l 1
 255 520 l 1
 110 520 l 2
 93 520 80 533 80 550 c 0
 80 567 93 580 110 580 c 2
 255 580 l 1
 255 750 l 2
 255 767 268 780 285 780 c 0
 302 780 315 767 315 750 c 2
 315 580 l 1
 460 580 l 2
 477 580 490 567 490 550 c 0
 490 533 477 520 460 520 c 2
 315 520 l 1
 315 80 l 1
 460 80 l 2
 477 80 490 67 490 50 c 0
 490 33 477 20 460 20 c 2
 315 20 l 1
 315 -150 l 2
 315 -167 302 -180 285 -180 c 0
 268 -180 255 -167 255 -150 c 2
 255 20 l 1
 110 20 l 2
 93 20 80 33 80 50 c 0
 80 67 93 80 110 80 c 2
EndSplineSet
Validated: 1
EndChar

StartChar: uni203D
Encoding: 8253 8253 311
Width: 876
Flags: W
HStem: 0 100<388.438 471.562> 636 60<246.681 400 460 578.008>
VStem: 100 60<521.312 583.452> 380 100<8.4375 91.5625> 400 60<171.106 244.487 304 634> 716 60<441.916 550.418>
LayerCount: 2
Fore
SplineSet
100 550 m 0xec
 100 588 124 619 154 639 c 0
 214 679 310 696 409 696 c 0
 551 696 706 660 757 563 c 0
 770 538 776 513 776 490 c 0
 776 447 754 413 725 388 c 0
 662 333 548 301 488 250 c 0
 468 233 460 218 460 200 c 0
 460 183 447 170 430 170 c 0
 413 170 400 183 400 200 c 2
 400 636 l 1
 319 635 235 620 188 589 c 0
 167 575 160 562 160 550 c 0
 160 534 146 520 130 520 c 0
 113 520 100 533 100 550 c 0xec
380 50 m 0xf4
 380 78 402 100 430 100 c 0
 458 100 480 78 480 50 c 0
 480 22 458 0 430 0 c 0
 402 0 380 22 380 50 c 0xf4
460 304 m 1xec
 525 353 630 383 685 433 c 0
 706 452 716 469 716 490 c 0
 716 502 713 518 703 537 c 0
 672 598 562 627 460 634 c 1
 460 304 l 1xec
EndSplineSet
Validated: 1
EndChar

StartChar: Euro
Encoding: 8364 8364 314
Width: 1060
VWidth: 1030
Flags: W
HStem: -0 60<459.446 700.838> 200 60<151.106 218 311 558.894> 350 60<101.106 202.72 262 508.894> 600 60<444.112 722.581>
VStem: 201 60<261.315 350 410 467.308> 900 60<401.106 491.373>
LayerCount: 2
Fore
SplineSet
180 260 m 2
 218 260 l 1
 209 288 203 319 201 350 c 1
 130 350 l 2
 113 350 100 363 100 380 c 0
 100 397 113 410 130 410 c 2
 202 410 l 1
 216 532 317 600 418 633 c 0
 479 653 539 660 580 660 c 0
 680 660 811 622 879 573 c 0
 924 540 960 492 960 430 c 0
 960 413 947 400 930 400 c 0
 913 400 900 413 900 430 c 0
 900 514 798 558 724 578 c 0
 669 593 614 600 580 600 c 0
 546 600 491 594 437 576 c 0
 356 550 277 501 262 410 c 1
 480 410 l 2
 497 410 510 397 510 380 c 0
 510 363 497 350 480 350 c 2
 261 350 l 1
 264 318 270 288 281 260 c 1
 530 260 l 2
 547 260 560 247 560 230 c 0
 560 213 547 200 530 200 c 2
 311 200 l 1
 367 114 464 60 580 60 c 0
 663 60 739 91 789 126 c 0
 794 129 800 131 806 131 c 0
 823 131 836 118 836 101 c 0
 836 91 831 81 823 76 c 0
 795 57 763 43 730 29 c 0
 684 10 634 0 580 -0 c 0
 430 0 305 79 243 200 c 1
 180 200 l 2
 163 200 150 213 150 230 c 0
 150 247 163 260 180 260 c 2
EndSplineSet
Validated: 1
EndChar

StartChar: perthousand
Encoding: 8240 8240 315
Width: 1394
Flags: W
HStem: -15 60<678.472 825.528 1070.47 1215.48> 189 60<691.94 812.06 1083.94 1203.77> 365 60<209.631 352.369> 622 60<195.391 366.324>
VStem: 100 60<473.878 589.907> 402 60<473.878 589.907> 601 60<63.5676 159.271> 843 60<63.5676 159.271> 993 60<63.5676 159.271> 1234 60<63.5676 159.271>
LayerCount: 2
Fore
SplineSet
724 585 m 2
 374 -15 l 2
 369 -24 359 -30 348 -30 c 0
 331 -30 318 -16 318 -0 c 0
 318 5 319 10 322 15 c 2
 672 615 l 2
 677 624 687 630 698 630 c 0
 715 630 728 616 728 600 c 0
 728 595 727 590 724 585 c 2
281 622 m 0
 229 622 160 599 160 545 c 0
 160 475 211 425 281 425 c 0
 351 425 402 475 402 545 c 0
 402 599 332 622 281 622 c 0
462 545 m 0
 462 443 383 365 281 365 c 0
 179 365 100 443 100 545 c 0
 100 583 116 612 139 633 c 0
 172 663 230 682 281 682 c 0
 333 682 389 663 422 633 c 0
 445 612 462 583 462 545 c 0
752 45 m 0
 789 45 843 61 843 100 c 0
 843 152 805 189 752 189 c 0
 699 189 661 152 661 100 c 0
 661 61 715 45 752 45 c 0
752 -15 m 0
 679 -15 601 23 601 100 c 0
 601 185 667 249 752 249 c 0
 837 249 903 185 903 100 c 0
 903 23 825 -15 752 -15 c 0
1144 45 m 0
 1181 45 1234 61 1234 100 c 0
 1234 152 1197 189 1144 189 c 0
 1091 189 1053 152 1053 100 c 0
 1053 61 1107 45 1144 45 c 0
1144 -15 m 0
 1071 -15 993 23 993 100 c 0
 993 185 1059 249 1144 249 c 0
 1229 249 1294 185 1294 100 c 0
 1294 23 1217 -15 1144 -15 c 0
EndSplineSet
Validated: 1
EndChar

StartChar: uni2031
Encoding: 8241 8241 316
Width: 1794
Flags: W
HStem: -15 60<679.712 824.528 1071.38 1216.5 1471.38 1616.5> 189 60<691.94 812.06 1083.94 1203.77 1483.94 1603.77> 365 60<209.631 352.369> 622 60<195.933 365.755>
VStem: 100 60<473.878 590.092> 402 60<473.878 590.092> 601 60<64.1662 159.271> 843 60<64.1662 159.271> 993 60<64.1662 159.271> 1234 60<63.8504 159.271> 1393 60<64.1662 159.271> 1634 60<63.8504 159.271>
LayerCount: 2
Fore
SplineSet
724 585 m 2
 374 -15 l 2
 369 -24 359 -30 348 -30 c 0
 331 -30 318 -16 318 -0 c 0
 318 5 319 10 322 15 c 2
 672 615 l 2
 677 624 687 630 698 630 c 0
 715 630 728 616 728 600 c 0
 728 595 727 590 724 585 c 2
402 545 m 0
 402 565 394 578 382 589 c 0
 371 599 354 607 337 613 c 0
 316 620 293 622 281 622 c 0
 269 622 245 620 224 613 c 0
 207 607 191 599 180 589 c 0
 168 578 160 565 160 545 c 0
 160 475 211 425 281 425 c 0
 351 425 402 475 402 545 c 0
462 545 m 0
 462 443 383 365 281 365 c 0
 179 365 100 443 100 545 c 0
 100 583 116 612 139 633 c 0
 159 651 183 663 206 670 c 0
 234 679 262 682 281 682 c 0
 333 682 389 663 422 633 c 0
 445 612 462 583 462 545 c 0
843 100 m 0
 843 152 805 189 752 189 c 0
 699 189 661 152 661 100 c 0
 661 86 666 78 675 70 c 0
 683 63 696 56 709 52 c 0
 725 47 743 45 752 45 c 0
 761 45 780 47 796 52 c 0
 809 56 821 63 829 70 c 0
 838 78 843 86 843 100 c 0
903 100 m 0
 903 68 888 42 869 25 c 0
 842 0 795 -15 752 -15 c 0
 709 -15 663 0 635 25 c 0
 616 42 601 68 601 100 c 0
 601 185 667 249 752 249 c 0
 837 249 903 185 903 100 c 0
1234 100 m 0
 1234 152 1197 189 1144 189 c 0
 1091 189 1053 152 1053 100 c 0
 1053 86 1058 78 1067 70 c 0
 1075 63 1087 56 1100 52 c 0
 1116 47 1135 45 1144 45 c 0
 1153 45 1171 47 1187 52 c 0
 1200 56 1213 63 1221 70 c 0
 1230 78 1234 86 1234 100 c 0
1294 100 m 0
 1294 68 1280 42 1261 25 c 0
 1234 0 1187 -15 1144 -15 c 0
 1101 -15 1054 0 1026 25 c 0
 1007 42 993 68 993 100 c 0
 993 185 1059 249 1144 249 c 0
 1229 249 1294 185 1294 100 c 0
1634 100 m 0
 1634 152 1597 189 1544 189 c 0
 1491 189 1453 152 1453 100 c 0
 1453 86 1458 78 1467 70 c 0
 1475 63 1487 56 1500 52 c 0
 1516 47 1535 45 1544 45 c 0
 1553 45 1571 47 1587 52 c 0
 1600 56 1613 63 1621 70 c 0
 1630 78 1634 86 1634 100 c 0
1694 100 m 0
 1694 68 1680 42 1661 25 c 0
 1634 0 1587 -15 1544 -15 c 0
 1501 -15 1454 0 1426 25 c 0
 1407 42 1393 68 1393 100 c 0
 1393 185 1459 249 1544 249 c 0
 1629 249 1694 185 1694 100 c 0
EndSplineSet
Validated: 1
EndChar

StartChar: uni2051
Encoding: 8273 8273 317
Width: 600
VWidth: 1030
Flags: W
HStem: 0 21G<141.5 153 447 458.5> 0 21G<141.5 153 447 458.5> 640 20G<141.5 153 447 458.5>
VStem: 270 60<-48.8936 74 186 308.894 351.106 474 586 708.894>
LayerCount: 2
Fore
SplineSet
480 230 m 0xb0
 480 220 475 210 467 205 c 2
 354 130 l 1
 467 55 l 2
 475 50 480 40 480 30 c 0
 480 13 467 0 450 0 c 0
 444 0 438 2 433 5 c 2
 330 74 l 1
 330 -20 l 2
 330 -37 317 -50 300 -50 c 0
 283 -50 270 -37 270 -20 c 2
 270 74 l 1
 167 5 l 2
 162 2 156 0 150 0 c 0
 133 0 120 13 120 30 c 0
 120 40 125 50 133 55 c 2
 246 130 l 1
 133 205 l 2
 125 210 120 220 120 230 c 0
 120 247 133 260 150 260 c 0
 156 260 162 258 167 255 c 2
 270 186 l 1
 270 280 l 2
 270 297 283 310 300 310 c 0
 317 310 330 297 330 280 c 2
 330 186 l 1
 433 255 l 2
 438 258 444 260 450 260 c 0
 467 260 480 247 480 230 c 0xb0
480 630 m 0
 480 620 475 610 467 605 c 2
 354 530 l 1
 467 455 l 2
 475 450 480 440 480 430 c 0
 480 413 467 400 450 400 c 0
 444 400 438 402 433 405 c 2
 330 474 l 1
 330 380 l 2
 330 363 317 350 300 350 c 0
 283 350 270 363 270 380 c 2
 270 474 l 1
 167 405 l 2
 162 402 156 400 150 400 c 0
 133 400 120 413 120 430 c 0
 120 440 125 450 133 455 c 2
 246 530 l 1
 133 605 l 2
 125 610 120 620 120 630 c 0
 120 647 133 660 150 660 c 0
 156 660 162 658 167 655 c 2
 270 586 l 1
 270 680 l 2
 270 697 283 710 300 710 c 0
 317 710 330 697 330 680 c 2
 330 586 l 1
 433 655 l 2
 438 658 444 660 450 660 c 0
 467 660 480 647 480 630 c 0
EndSplineSet
Validated: 1
EndChar

StartChar: uni2042
Encoding: 8258 8258 319
Width: 1050
VWidth: 1030
Flags: W
HStem: -0 21G<141.5 153 447 458.5 591.5 603 897 908.5> -0 21G<141.5 153 447 458.5 591.5 603 897 908.5> 640 20G<341.5 353 647 658.5>
VStem: 270 60<-48.8936 74 186 308.894> 470 60<351.106 474 586 708.894> 720 60<-48.8936 74 186 308.894>
LayerCount: 2
Fore
SplineSet
930 230 m 0xbc
 930 220 925 210 917 205 c 2
 804 130 l 1
 917 55 l 2
 925 50 930 40 930 30 c 0
 930 13 917 0 900 -0 c 0
 894 0 888 2 883 5 c 2
 780 74 l 1
 780 -20 l 2
 780 -37 767 -50 750 -50 c 0
 733 -50 720 -37 720 -20 c 2
 720 74 l 1
 617 5 l 2
 612 2 606 0 600 -0 c 0
 583 0 570 13 570 30 c 0
 570 40 575 50 583 55 c 2
 696 130 l 1
 583 205 l 2
 575 210 570 220 570 230 c 0
 570 247 583 260 600 260 c 0
 606 260 612 258 617 255 c 2
 720 186 l 1
 720 280 l 2
 720 297 733 310 750 310 c 0
 767 310 780 297 780 280 c 2
 780 186 l 1
 883 255 l 2
 888 258 894 260 900 260 c 0
 917 260 930 247 930 230 c 0xbc
480 230 m 0
 480 220 475 210 467 205 c 2
 354 130 l 1
 467 55 l 2
 475 50 480 40 480 30 c 0
 480 13 467 0 450 -0 c 0
 444 0 438 2 433 5 c 2
 330 74 l 1
 330 -20 l 2
 330 -37 317 -50 300 -50 c 0
 283 -50 270 -37 270 -20 c 2
 270 74 l 1
 167 5 l 2
 162 2 156 0 150 -0 c 0
 133 0 120 13 120 30 c 0
 120 40 125 50 133 55 c 2
 246 130 l 1
 133 205 l 2
 125 210 120 220 120 230 c 0
 120 247 133 260 150 260 c 0
 156 260 162 258 167 255 c 2
 270 186 l 1
 270 280 l 2
 270 297 283 310 300 310 c 0
 317 310 330 297 330 280 c 2
 330 186 l 1
 433 255 l 2
 438 258 444 260 450 260 c 0
 467 260 480 247 480 230 c 0
680 630 m 0
 680 620 675 610 667 605 c 2
 554 530 l 1
 667 455 l 2
 675 450 680 440 680 430 c 0
 680 413 667 400 650 400 c 0
 644 400 638 402 633 405 c 2
 530 474 l 1
 530 380 l 2
 530 363 517 350 500 350 c 0
 483 350 470 363 470 380 c 2
 470 474 l 1
 367 405 l 2
 362 402 356 400 350 400 c 0
 333 400 320 413 320 430 c 0
 320 440 325 450 333 455 c 2
 446 530 l 1
 333 605 l 2
 325 610 320 620 320 630 c 0
 320 647 333 660 350 660 c 0
 356 660 362 658 367 655 c 2
 470 586 l 1
 470 680 l 2
 470 697 483 710 500 710 c 0
 517 710 530 697 530 680 c 2
 530 586 l 1
 633 655 l 2
 638 658 644 660 650 660 c 0
 667 660 680 647 680 630 c 0
EndSplineSet
Validated: 1
EndChar

StartChar: quotedblleft
Encoding: 8220 8220 324
Width: 430
Flags: W
HStem: 395 99<122.806 170.883 292.806 340.883>
VStem: 80 100<404.117 484.106> 100 61<558.1 647.603> 250 100<404.117 484.106> 270 61<558.1 647.603>
LayerCount: 2
Fore
SplineSet
80 441 m 2xc0
 80 445 l 1xc0
 100 619 l 6
 102 635 113 649 130 649 c 4
 145 649 161 638 161 625 c 4xa0
 161 623 161 621 160 619 c 6
 122 494 l 1
 160 494 180 469 180 445 c 0
 180 417 158 395 130 395 c 0
 104 395 82 415 80 441 c 2xc0
250 441 m 2x90
 250 445 l 1x90
 270 619 l 6
 272 635 283 649 300 649 c 4
 315 649 331 638 331 625 c 4x88
 331 623 331 621 330 619 c 6
 292 494 l 1
 330 494 350 469 350 445 c 0
 350 417 328 395 300 395 c 0
 274 395 252 415 250 441 c 2x90
EndSplineSet
Validated: 1
EndChar

StartChar: uni201F
Encoding: 8223 8223 325
Width: 430
Flags: W
HStem: 550 99<122.806 170.883 292.806 340.883>
VStem: 80 100<559.894 639.883> 100 61<396.397 485.9> 250 100<559.894 639.883> 270 61<396.397 485.9>
LayerCount: 2
Fore
SplineSet
80 603 m 2xc0
 82 629 104 649 130 649 c 0
 158 649 180 627 180 599 c 0xc0
 180 575 160 550 122 550 c 1
 160 425 l 6
 161 423 161 421 161 419 c 4
 161 406 145 395 130 395 c 4
 113 395 102 409 100 425 c 6xa0
 80 599 l 1
 80 603 l 2xc0
250 603 m 2x90
 252 629 274 649 300 649 c 0
 328 649 350 627 350 599 c 0x90
 350 575 330 550 292 550 c 1
 330 425 l 6
 331 423 331 421 331 419 c 4
 331 406 315 395 300 395 c 4
 283 395 272 409 270 425 c 6x88
 250 599 l 1
 250 603 l 2x90
EndSplineSet
Validated: 1
EndChar

StartChar: quotereversed
Encoding: 8219 8219 327
Width: 260
Flags: W
HStem: 550 99<122.806 170.883>
VStem: 80 100<559.894 639.883> 100 61<396.397 485.9>
LayerCount: 2
Fore
SplineSet
80 603 m 2xc0
 82 629 104 649 130 649 c 0
 158 649 180 627 180 599 c 0xc0
 180 575 160 550 122 550 c 1
 160 425 l 6
 161 423 161 421 161 419 c 4
 161 406 145 395 130 395 c 4
 113 395 102 409 100 425 c 6xa0
 80 599 l 1
 80 603 l 2xc0
EndSplineSet
Validated: 1
EndChar

StartChar: quoteleft
Encoding: 8216 8216 328
Width: 260
Flags: W
HStem: 395 99<122.806 170.883>
VStem: 80 100<404.117 484.106> 100 61<558.1 647.603>
LayerCount: 2
Fore
SplineSet
80 441 m 2xc0
 80 445 l 1xc0
 100 619 l 6
 102 635 113 649 130 649 c 4
 145 649 161 638 161 625 c 4xa0
 161 623 161 621 160 619 c 6
 122 494 l 1
 160 494 180 469 180 445 c 0
 180 417 158 395 130 395 c 0
 104 395 82 415 80 441 c 2xc0
EndSplineSet
Validated: 1
EndChar

StartChar: rim_I.alt
Encoding: 57360 57360 330
Width: 280
Flags: W
HStem: 0 21G<182.5 198> 0 21G<182.5 198> 640 20G<82 97.5>
VStem: 60 60<593 658.893> 160 60<1.10742 67>
LayerCount: 2
Fore
SplineSet
90 660 m 0xb8
 105 660 118 649 120 635 c 2
 220 35 l 2
 220 33 220 32 220 30 c 0
 220 13 206 0 190 0 c 0
 175 0 162 11 160 25 c 2
 60 625 l 2
 60 627 60 628 60 630 c 0
 60 647 74 660 90 660 c 0xb8
EndSplineSet
Validated: 1
EndChar

StartChar: rim_II.alt
Encoding: 57361 57361 331
Width: 440
Flags: W
HStem: 0 21G<182.5 198 402.5 418> 0 21G<182.5 198 402.5 418> 640 20G<82 97.5 302 317.5>
VStem: 60 60<593 658.893> 160 60<1.10742 67> 280 60<593 658.893> 380 60<1.10742 67>
LayerCount: 2
Fore
SplineSet
90 660 m 0xbe
 105 660 118 649 120 635 c 2
 220 35 l 2
 220 33 220 32 220 30 c 0
 220 13 206 0 190 0 c 0
 175 0 162 11 160 25 c 2
 60 625 l 2
 60 627 60 628 60 630 c 0
 60 647 74 660 90 660 c 0xbe
310 660 m 0
 325 660 338 649 340 635 c 2
 440 35 l 2
 440 33 440 32 440 30 c 0
 440 13 426 0 410 0 c 0
 395 0 382 11 380 25 c 2
 280 625 l 2
 280 627 280 628 280 630 c 0
 280 647 294 660 310 660 c 0
EndSplineSet
Validated: 1
EndChar

StartChar: rim_III.alt
Encoding: 57362 57362 332
Width: 660
Flags: W
HStem: 0 21G<182.5 198 402.5 418 622.5 638> 0 21G<182.5 198 402.5 418 622.5 638> 640 20G<82 97.5 302 317.5 522 537.5>
VStem: 60 60<593 658.893> 160 60<1.10742 67> 280 60<593 658.893> 380 60<1.10742 67> 500 60<593 658.893> 600 60<1.10742 67>
LayerCount: 2
Fore
SplineSet
90 660 m 0xbf80
 105 660 118 649 120 635 c 2
 220 35 l 2
 220 33 220 32 220 30 c 0
 220 13 206 0 190 0 c 0
 175 0 162 11 160 25 c 2
 60 625 l 2
 60 627 60 628 60 630 c 0
 60 647 74 660 90 660 c 0xbf80
310 660 m 0
 325 660 338 649 340 635 c 2
 440 35 l 2
 440 33 440 32 440 30 c 0
 440 13 426 0 410 0 c 0
 395 0 382 11 380 25 c 2
 280 625 l 2
 280 627 280 628 280 630 c 0
 280 647 294 660 310 660 c 0
530 660 m 0
 545 660 558 649 560 635 c 2
 660 35 l 2
 660 33 660 32 660 30 c 0
 660 13 646 0 630 0 c 0
 615 0 602 11 600 25 c 2
 500 625 l 2
 500 627 500 628 500 630 c 0
 500 647 514 660 530 660 c 0
EndSplineSet
Validated: 1
EndChar

StartChar: rim_IV.alt
Encoding: 57363 57363 333
Width: 1100
Flags: W
HStem: 0 21G<182.5 198 654.5 665.5> 0 21G<182.5 198 654.5 665.5> 640 20G<82 97.5 301.5 315.5 1004.5 1018.5>
VStem: 60 60<593 658.893> 160 60<1.10742 67>
LayerCount: 2
Fore
SplineSet
90 660 m 0xb8
 105 660 118 649 120 635 c 2
 220 35 l 2
 220 33 220 32 220 30 c 0
 220 13 206 0 190 0 c 0
 175 0 162 11 160 25 c 2
 60 625 l 2
 60 627 60 628 60 630 c 0
 60 647 74 660 90 660 c 0xb8
310 660 m 0
 321 660 331 654 336 645 c 2
 660 90 l 1
 984 645 l 2
 989 654 999 660 1010 660 c 0
 1027 660 1040 646 1040 630 c 0
 1040 625 1039 620 1036 615 c 2
 686 15 l 2
 681 6 671 0 660 0 c 0
 649 0 639 6 634 15 c 2
 284 615 l 2
 281 620 280 625 280 630 c 0
 280 646 293 660 310 660 c 0
EndSplineSet
Validated: 1
EndChar

StartChar: rim_VI.alt
Encoding: 57364 57364 334
Width: 1100
Flags: W
HStem: 0 21G<434.5 445.5 1062.5 1078> 0 21G<434.5 445.5 1062.5 1078> 640 20G<81.5 95.5 784.5 798.5 962 977.5>
VStem: 940 60<593 658.893> 1040 60<1.10742 67>
LayerCount: 2
Fore
SplineSet
90 660 m 0xb8
 101 660 111 654 116 645 c 2
 440 90 l 1
 764 645 l 2
 769 654 779 660 790 660 c 0
 807 660 820 646 820 630 c 0
 820 625 819 620 816 615 c 2
 466 15 l 2
 461 6 451 0 440 0 c 0
 429 0 419 6 414 15 c 2
 64 615 l 2
 61 620 60 625 60 630 c 0
 60 646 73 660 90 660 c 0xb8
970 660 m 0
 985 660 998 649 1000 635 c 2
 1100 35 l 2
 1100 33 1100 32 1100 30 c 0
 1100 13 1086 0 1070 0 c 0
 1055 0 1042 11 1040 25 c 2
 940 625 l 2
 940 627 940 628 940 630 c 0
 940 647 954 660 970 660 c 0
EndSplineSet
Validated: 1
EndChar

StartChar: rim_VII.alt
Encoding: 57365 57365 335
Width: 1320
Flags: W
HStem: 0 21G<434.5 445.5 1062.5 1078 1282.5 1298> 0 21G<434.5 445.5 1062.5 1078 1282.5 1298> 640 20G<81.5 95.5 784.5 798.5 962 977.5 1182 1197.5>
VStem: 940 60<593 658.893> 1040 60<1.10742 67> 1160 60<593 658.893> 1260 60<1.10742 67>
LayerCount: 2
Fore
SplineSet
90 660 m 0xbe
 101 660 111 654 116 645 c 2
 440 90 l 1
 764 645 l 2
 769 654 779 660 790 660 c 0
 807 660 820 646 820 630 c 0
 820 625 819 620 816 615 c 2
 466 15 l 2
 461 6 451 0 440 0 c 0
 429 0 419 6 414 15 c 2
 64 615 l 2
 61 620 60 625 60 630 c 0
 60 646 73 660 90 660 c 0xbe
970 660 m 0
 985 660 998 649 1000 635 c 2
 1100 35 l 2
 1100 33 1100 32 1100 30 c 0
 1100 13 1086 0 1070 0 c 0
 1055 0 1042 11 1040 25 c 2
 940 625 l 2
 940 627 940 628 940 630 c 0
 940 647 954 660 970 660 c 0
1190 660 m 0
 1205 660 1218 649 1220 635 c 2
 1320 35 l 2
 1320 33 1320 32 1320 30 c 0
 1320 13 1306 0 1290 0 c 0
 1275 0 1262 11 1260 25 c 2
 1160 625 l 2
 1160 627 1160 628 1160 630 c 0
 1160 647 1174 660 1190 660 c 0
EndSplineSet
Validated: 1
EndChar

StartChar: rim_VIII.alt
Encoding: 57366 57366 336
Width: 1540
Flags: W
HStem: 0 21G<434.5 445.5 1062.5 1078 1282.5 1298 1502.5 1518> 0 21G<434.5 445.5 1062.5 1078 1282.5 1298 1502.5 1518> 640 20G<81.5 95.5 784.5 798.5 962 977.5 1182 1197.5 1402 1417.5>
VStem: 940 60<593 658.893> 1040 60<1.10742 67> 1160 60<593 658.893> 1260 60<1.10742 67> 1380 60<593 658.893> 1480 60<1.10742 67>
LayerCount: 2
Fore
SplineSet
90 660 m 0xbf80
 101 660 111 654 116 645 c 2
 440 90 l 1
 764 645 l 2
 769 654 779 660 790 660 c 0
 807 660 820 646 820 630 c 0
 820 625 819 620 816 615 c 2
 466 15 l 2
 461 6 451 0 440 0 c 0
 429 0 419 6 414 15 c 2
 64 615 l 2
 61 620 60 625 60 630 c 0
 60 646 73 660 90 660 c 0xbf80
970 660 m 0
 985 660 998 649 1000 635 c 2
 1100 35 l 2
 1100 33 1100 32 1100 30 c 0
 1100 13 1086 0 1070 0 c 0
 1055 0 1042 11 1040 25 c 2
 940 625 l 2
 940 627 940 628 940 630 c 0
 940 647 954 660 970 660 c 0
1190 660 m 0
 1205 660 1218 649 1220 635 c 2
 1320 35 l 2
 1320 33 1320 32 1320 30 c 0
 1320 13 1306 0 1290 0 c 0
 1275 0 1262 11 1260 25 c 2
 1160 625 l 2
 1160 627 1160 628 1160 630 c 0
 1160 647 1174 660 1190 660 c 0
1410 660 m 0
 1425 660 1438 649 1440 635 c 2
 1540 35 l 2
 1540 33 1540 32 1540 30 c 0
 1540 13 1526 0 1510 0 c 0
 1495 0 1482 11 1480 25 c 2
 1380 625 l 2
 1380 627 1380 628 1380 630 c 0
 1380 647 1394 660 1410 660 c 0
EndSplineSet
Validated: 1
EndChar

StartChar: rim_IX.alt
Encoding: 57367 57367 337
Width: 1100
Flags: W
HStem: 0 21G<182.5 198 451.5 464.5 855.5 868.5> 0 21G<182.5 198 451.5 464.5 855.5 868.5> 640 20G<82 97.5 301.5 314.5 1005.5 1018.5>
VStem: 60 60<593 658.893> 160 60<1.10742 67>
LayerCount: 2
Fore
SplineSet
90 660 m 0xb8
 105 660 118 649 120 635 c 2
 220 35 l 2
 220 33 220 32 220 30 c 0
 220 13 206 0 190 0 c 0
 175 0 162 11 160 25 c 2
 60 625 l 2
 60 627 60 628 60 630 c 0
 60 647 74 660 90 660 c 0xb8
310 660 m 0
 319 660 327 656 332 650 c 2
 660 293 l 1
 988 650 l 2
 993 656 1001 660 1010 660 c 0
 1027 660 1040 647 1040 630 c 0
 1040 622 1037 615 1032 610 c 2
 701 248 l 1
 882 50 l 2
 887 45 890 38 890 30 c 0
 890 13 877 0 860 0 c 0
 851 0 843 4 838 10 c 2
 660 204 l 1
 482 10 l 2
 477 4 469 0 460 0 c 0
 443 0 430 13 430 30 c 0
 430 38 433 45 438 50 c 2
 619 248 l 1
 288 610 l 2
 283 615 280 622 280 630 c 0
 280 647 293 660 310 660 c 0
EndSplineSet
Validated: 1
EndChar

StartChar: rim_XI.alt
Encoding: 57368 57368 338
Width: 1100
Flags: W
HStem: 0 21G<231.5 244.5 635.5 648.5 1062.5 1078> 0 21G<231.5 244.5 635.5 648.5 1062.5 1078> 640 20G<81.5 94.5 785.5 798.5 962 977.5>
VStem: 940 60<593 658.893> 1040 60<1.10742 67>
LayerCount: 2
Fore
SplineSet
90 660 m 0xb8
 99 660 107 656 112 650 c 2
 440 293 l 1
 768 650 l 2
 773 656 781 660 790 660 c 0
 807 660 820 647 820 630 c 0
 820 622 817 615 812 610 c 2
 481 248 l 1
 662 50 l 2
 667 45 670 38 670 30 c 0
 670 13 657 0 640 0 c 0
 631 0 623 4 618 10 c 2
 440 204 l 1
 262 10 l 2
 257 4 249 0 240 0 c 0
 223 0 210 13 210 30 c 0
 210 38 213 45 218 50 c 2
 399 248 l 1
 68 610 l 2
 63 615 60 622 60 630 c 0
 60 647 73 660 90 660 c 0xb8
970 660 m 0
 985 660 998 649 1000 635 c 2
 1100 35 l 2
 1100 33 1100 32 1100 30 c 0
 1100 13 1086 0 1070 0 c 0
 1055 0 1042 11 1040 25 c 2
 940 625 l 2
 940 627 940 628 940 630 c 0
 940 647 954 660 970 660 c 0
EndSplineSet
Validated: 1
EndChar

StartChar: rim_XII.alt
Encoding: 57369 57369 339
Width: 1320
Flags: W
HStem: 0 21G<231.5 244.5 635.5 648.5 1062.5 1078 1282.5 1298> 0 21G<231.5 244.5 635.5 648.5 1062.5 1078 1282.5 1298> 640 20G<81.5 94.5 785.5 798.5 962 977.5 1182 1197.5>
VStem: 940 60<593 658.893> 1040 60<1.10742 67> 1160 60<593 658.893> 1260 60<1.10742 67>
LayerCount: 2
Fore
SplineSet
90 660 m 0xbe
 99 660 107 656 112 650 c 2
 440 293 l 1
 768 650 l 2
 773 656 781 660 790 660 c 0
 807 660 820 647 820 630 c 0
 820 622 817 615 812 610 c 2
 481 248 l 1
 662 50 l 2
 667 45 670 38 670 30 c 0
 670 13 657 0 640 0 c 0
 631 0 623 4 618 10 c 2
 440 204 l 1
 262 10 l 2
 257 4 249 0 240 0 c 0
 223 0 210 13 210 30 c 0
 210 38 213 45 218 50 c 2
 399 248 l 1
 68 610 l 2
 63 615 60 622 60 630 c 0
 60 647 73 660 90 660 c 0xbe
970 660 m 0
 985 660 998 649 1000 635 c 2
 1100 35 l 2
 1100 33 1100 32 1100 30 c 0
 1100 13 1086 0 1070 0 c 0
 1055 0 1042 11 1040 25 c 2
 940 625 l 2
 940 627 940 628 940 630 c 0
 940 647 954 660 970 660 c 0
1190 660 m 0
 1205 660 1218 649 1220 635 c 2
 1320 35 l 2
 1320 33 1320 32 1320 30 c 0
 1320 13 1306 0 1290 0 c 0
 1275 0 1262 11 1260 25 c 2
 1160 625 l 2
 1160 627 1160 628 1160 630 c 0
 1160 647 1174 660 1190 660 c 0
EndSplineSet
Validated: 1
EndChar

StartChar: rim_i.alt
Encoding: 57370 57370 340
Width: 232
Flags: W
HStem: 0 21G<134.5 150> 0 21G<134.5 150> 442 20G<82 97.5> 442 20G<82 97.5>
VStem: 60 60<381.885 460.697> 112 60<1.30291 80.1154>
LayerCount: 2
Fore
SplineSet
90 462 m 0xa8
 105 462 118 451 120 436 c 2xa8
 172 34 l 2
 172 33 172 32 172 31 c 0
 172 14 158 0 142 0 c 0
 127 0 114 11 112 26 c 2xa4
 60 428 l 2
 60 429 60 430 60 431 c 0
 60 448 74 462 90 462 c 0xa8
EndSplineSet
Validated: 1
EndChar

StartChar: rim_ii.alt
Encoding: 57371 57371 341
Width: 440
Flags: W
HStem: 0 21G<134.5 150 354.5 370> 0 21G<134.5 150 354.5 370> 442 20G<82 97.5 302 317.5> 442 20G<82 97.5 302 317.5>
VStem: 60 60<381.885 460.697> 112 60<1.30291 80.1154> 280 60<381.885 460.697> 332 60<1.30291 80.1154>
LayerCount: 2
Fore
SplineSet
90 462 m 0xa8
 105 462 118 451 120 436 c 2xa8
 172 34 l 2
 172 33 172 32 172 31 c 0
 172 14 158 0 142 0 c 0
 127 0 114 11 112 26 c 2xa4
 60 428 l 2
 60 429 60 430 60 431 c 0
 60 448 74 462 90 462 c 0xa8
310 462 m 0
 325 462 338 451 340 436 c 2xa2
 392 34 l 2
 392 33 392 32 392 31 c 0
 392 14 378 0 362 0 c 0
 347 0 334 11 332 26 c 2xa1
 280 428 l 2
 280 429 280 430 280 431 c 0xa2
 280 448 294 462 310 462 c 0
EndSplineSet
Validated: 1
EndChar

StartChar: rim_iii.alt
Encoding: 57372 57372 342
Width: 660
Flags: W
HStem: 0 21G<134.5 150 354.5 370 574.5 590> 0 21G<134.5 150 354.5 370 574.5 590> 442 20G<82 97.5 302 317.5 522 537.5> 442 20G<82 97.5 302 317.5 522 537.5>
VStem: 60 60<381.885 460.697> 112 60<1.30291 80.1154> 280 60<381.885 460.697> 332 60<1.30291 80.1154> 500 60<381.885 460.697> 552 60<1.30291 80.1154>
LayerCount: 2
Fore
SplineSet
90 462 m 0xa8
 105 462 118 451 120 436 c 2xa8
 172 34 l 2
 172 33 172 32 172 31 c 0
 172 14 158 0 142 0 c 0
 127 0 114 11 112 26 c 2xa4
 60 428 l 2
 60 429 60 430 60 431 c 0
 60 448 74 462 90 462 c 0xa8
310 462 m 0
 325 462 338 451 340 436 c 2xa2
 392 34 l 2
 392 33 392 32 392 31 c 0
 392 14 378 0 362 0 c 0
 347 0 334 11 332 26 c 2xa1
 280 428 l 2
 280 429 280 430 280 431 c 0xa2
 280 448 294 462 310 462 c 0
530 462 m 0
 545 462 558 451 560 436 c 2xa080
 612 34 l 2
 612 33 612 32 612 31 c 0
 612 14 598 0 582 0 c 0
 567 0 554 11 552 26 c 2xa040
 500 428 l 2
 500 429 500 430 500 431 c 0xa080
 500 448 514 462 530 462 c 0
EndSplineSet
Validated: 1
EndChar

StartChar: rim_iv.alt
Encoding: 57373 57373 343
Width: 872
Flags: W
HStem: 0 21G<134.5 150 540.5 551.5> 0 21G<134.5 150 540.5 551.5> 442 20G<82 97.5 301.5 315.5 776.5 790.5> 442 20G<82 97.5 301.5 315.5 776.5 790.5>
VStem: 60 60<381.885 460.697> 112 60<1.30291 80.1154>
LayerCount: 2
Fore
SplineSet
90 462 m 0xa8
 105 462 118 451 120 436 c 2xa8
 172 34 l 2
 172 33 172 32 172 31 c 0
 172 14 158 0 142 0 c 0
 127 0 114 11 112 26 c 2xa4
 60 428 l 2
 60 429 60 430 60 431 c 0
 60 448 74 462 90 462 c 0xa8
310 462 m 0
 321 462 331 456 336 447 c 2
 546 89 l 1
 756 447 l 2
 761 456 771 462 782 462 c 0
 799 462 812 448 812 432 c 0
 812 427 811 422 808 417 c 2
 572 15 l 2
 567 6 557 0 546 0 c 0
 535 0 525 6 520 15 c 2
 284 417 l 2
 281 422 280 427 280 432 c 0
 280 448 293 462 310 462 c 0
EndSplineSet
Validated: 1
EndChar

StartChar: rim_vi.alt
Encoding: 57374 57374 344
Width: 872
Flags: W
HStem: 0 21G<320.5 331.5 786.5 802> 0 21G<320.5 331.5 786.5 802> 442 20G<81.5 95.5 556.5 570.5 734 749.5> 442 20G<81.5 95.5 556.5 570.5 734 749.5>
VStem: 712 60<381.885 460.697> 764 60<1.30291 80.1154>
LayerCount: 2
Fore
SplineSet
90 462 m 0xa0
 101 462 111 456 116 447 c 2
 326 89 l 1
 536 447 l 2
 541 456 551 462 562 462 c 0
 579 462 592 448 592 432 c 0
 592 427 591 422 588 417 c 2
 352 15 l 2
 347 6 337 0 326 0 c 0
 315 0 305 6 300 15 c 2
 64 417 l 2
 61 422 60 427 60 432 c 0
 60 448 73 462 90 462 c 0xa0
742 462 m 0
 757 462 770 451 772 436 c 2xa8
 824 34 l 2
 824 33 824 32 824 31 c 0
 824 14 810 0 794 0 c 0
 779 0 766 11 764 26 c 2xa4
 712 428 l 2
 712 429 712 430 712 431 c 0xa8
 712 448 726 462 742 462 c 0
EndSplineSet
Validated: 1
EndChar

StartChar: rim_vii.alt
Encoding: 57375 57375 345
Width: 1092
Flags: W
HStem: 0 21G<320.5 331.5 786.5 802 1006.5 1022> 0 21G<320.5 331.5 786.5 802 1006.5 1022> 442 20G<81.5 95.5 556.5 570.5 734 749.5 954 969.5> 442 20G<81.5 95.5 556.5 570.5 734 749.5 954 969.5>
VStem: 712 60<381.885 460.697> 764 60<1.30291 80.1154> 932 60<381.885 460.697> 984 60<1.30291 80.1154>
LayerCount: 2
Fore
SplineSet
90 462 m 0xa0
 101 462 111 456 116 447 c 2
 326 89 l 1
 536 447 l 2
 541 456 551 462 562 462 c 0
 579 462 592 448 592 432 c 0
 592 427 591 422 588 417 c 2
 352 15 l 2
 347 6 337 0 326 0 c 0
 315 0 305 6 300 15 c 2
 64 417 l 2
 61 422 60 427 60 432 c 0
 60 448 73 462 90 462 c 0xa0
742 462 m 0
 757 462 770 451 772 436 c 2xa8
 824 34 l 2
 824 33 824 32 824 31 c 0
 824 14 810 0 794 0 c 0
 779 0 766 11 764 26 c 2xa4
 712 428 l 2
 712 429 712 430 712 431 c 0xa8
 712 448 726 462 742 462 c 0
962 462 m 0
 977 462 990 451 992 436 c 2xa2
 1044 34 l 2
 1044 33 1044 32 1044 31 c 0
 1044 14 1030 0 1014 0 c 0
 999 0 986 11 984 26 c 2xa1
 932 428 l 2
 932 429 932 430 932 431 c 0xa2
 932 448 946 462 962 462 c 0
EndSplineSet
Validated: 1
EndChar

StartChar: rim_viii.alt
Encoding: 57376 57376 346
Width: 1312
Flags: W
HStem: 0 21G<320.5 331.5 786.5 802 1006.5 1022 1226.5 1242> 0 21G<320.5 331.5 786.5 802 1006.5 1022 1226.5 1242> 442 20G<81.5 95.5 556.5 570.5 734 749.5 954 969.5 1174 1189.5> 442 20G<81.5 95.5 556.5 570.5 734 749.5 954 969.5 1174 1189.5>
VStem: 712 60<381.885 460.697> 764 60<1.30291 80.1154> 932 60<381.885 460.697> 984 60<1.30291 80.1154> 1152 60<381.885 460.697> 1204 60<1.30291 80.1154>
LayerCount: 2
Fore
SplineSet
90 462 m 0xa0
 101 462 111 456 116 447 c 2
 326 89 l 1
 536 447 l 2
 541 456 551 462 562 462 c 0
 579 462 592 448 592 432 c 0
 592 427 591 422 588 417 c 2
 352 15 l 2
 347 6 337 0 326 0 c 0
 315 0 305 6 300 15 c 2
 64 417 l 2
 61 422 60 427 60 432 c 0
 60 448 73 462 90 462 c 0xa0
742 462 m 0
 757 462 770 451 772 436 c 2xa8
 824 34 l 2
 824 33 824 32 824 31 c 0
 824 14 810 0 794 0 c 0
 779 0 766 11 764 26 c 2xa4
 712 428 l 2
 712 429 712 430 712 431 c 0xa8
 712 448 726 462 742 462 c 0
962 462 m 0
 977 462 990 451 992 436 c 2xa2
 1044 34 l 2
 1044 33 1044 32 1044 31 c 0
 1044 14 1030 0 1014 0 c 0
 999 0 986 11 984 26 c 2xa1
 932 428 l 2
 932 429 932 430 932 431 c 0xa2
 932 448 946 462 962 462 c 0
1182 462 m 0
 1197 462 1210 451 1212 436 c 2xa080
 1264 34 l 2
 1264 33 1264 32 1264 31 c 0
 1264 14 1250 0 1234 0 c 0
 1219 0 1206 11 1204 26 c 2xa040
 1152 428 l 2
 1152 429 1152 430 1152 431 c 0xa080
 1152 448 1166 462 1182 462 c 0
EndSplineSet
Validated: 1
EndChar

StartChar: rim_ix.alt
Encoding: 57377 57377 347
Width: 872
Flags: W
HStem: 0 21G<134.5 150 402.5 415.5 676.5 689.5> 0 21G<134.5 150 402.5 415.5 676.5 689.5> 442 20G<82 97.5 301.5 314.5 777.5 790.5> 442 20G<82 97.5 301.5 314.5 777.5 790.5>
VStem: 60 60<381.885 460.697> 112 60<1.30291 80.1154>
LayerCount: 2
Fore
SplineSet
90 462 m 0xa8
 105 462 118 451 120 436 c 2xa8
 172 34 l 2
 172 33 172 32 172 31 c 0
 172 14 158 0 142 0 c 0
 127 0 114 11 112 26 c 2xa4
 60 428 l 2
 60 429 60 430 60 431 c 0
 60 448 74 462 90 462 c 0xa8
310 462 m 0
 319 462 327 458 332 452 c 2
 546 220 l 1
 760 452 l 2
 765 458 773 462 782 462 c 0
 799 462 812 449 812 432 c 0
 812 424 809 417 804 412 c 2
 587 176 l 1
 703 50 l 2
 708 45 711 38 711 30 c 0
 711 13 698 0 681 0 c 0
 672 0 664 4 659 10 c 2
 546 132 l 1
 433 10 l 2
 428 4 420 0 411 0 c 0
 394 0 381 13 381 30 c 0
 381 38 384 45 389 50 c 2
 505 176 l 1
 288 412 l 2
 283 417 280 424 280 432 c 0
 280 449 293 462 310 462 c 0
EndSplineSet
Validated: 1
EndChar

StartChar: rim_xi.alt
Encoding: 57378 57378 348
Width: 872
Flags: W
HStem: 0 21G<182.5 195.5 456.5 469.5 786.5 802> 0 21G<182.5 195.5 456.5 469.5 786.5 802> 442 20G<81.5 94.5 557.5 570.5 734 749.5> 442 20G<81.5 94.5 557.5 570.5 734 749.5>
VStem: 712 60<381.885 460.697> 764 60<1.30291 80.1154>
LayerCount: 2
Fore
SplineSet
90 462 m 0xa0
 99 462 107 458 112 452 c 2
 326 220 l 1
 540 452 l 2
 545 458 553 462 562 462 c 0
 579 462 592 449 592 432 c 0
 592 424 589 417 584 412 c 2
 367 176 l 1
 483 50 l 2
 488 45 491 38 491 30 c 0
 491 13 478 0 461 0 c 0
 452 0 444 4 439 10 c 2
 326 132 l 1
 213 10 l 2
 208 4 200 0 191 0 c 0
 174 0 161 13 161 30 c 0
 161 38 164 45 169 50 c 2
 285 176 l 1
 68 412 l 2
 63 417 60 424 60 432 c 0
 60 449 73 462 90 462 c 0xa0
742 462 m 0
 757 462 770 451 772 436 c 2xa8
 824 34 l 2
 824 33 824 32 824 31 c 0
 824 14 810 0 794 0 c 0
 779 0 766 11 764 26 c 2xa4
 712 428 l 2
 712 429 712 430 712 431 c 0xa8
 712 448 726 462 742 462 c 0
EndSplineSet
Validated: 1
EndChar

StartChar: rim_xii.alt
Encoding: 57379 57379 349
Width: 1092
Flags: W
HStem: 0 21G<182.5 195.5 456.5 469.5 786.5 802 1006.5 1022> 0 21G<182.5 195.5 456.5 469.5 786.5 802 1006.5 1022> 442 20G<81.5 94.5 557.5 570.5 734 749.5 954 969.5> 442 20G<81.5 94.5 557.5 570.5 734 749.5 954 969.5>
VStem: 712 60<381.885 460.697> 764 60<1.30291 80.1154> 932 60<381.885 460.697> 984 60<1.30291 80.1154>
LayerCount: 2
Fore
SplineSet
90 462 m 0xa0
 99 462 107 458 112 452 c 2
 326 220 l 1
 540 452 l 2
 545 458 553 462 562 462 c 0
 579 462 592 449 592 432 c 0
 592 424 589 417 584 412 c 2
 367 176 l 1
 483 50 l 2
 488 45 491 38 491 30 c 0
 491 13 478 0 461 0 c 0
 452 0 444 4 439 10 c 2
 326 132 l 1
 213 10 l 2
 208 4 200 0 191 0 c 0
 174 0 161 13 161 30 c 0
 161 38 164 45 169 50 c 2
 285 176 l 1
 68 412 l 2
 63 417 60 424 60 432 c 0
 60 449 73 462 90 462 c 0xa0
742 462 m 0
 757 462 770 451 772 436 c 2xa8
 824 34 l 2
 824 33 824 32 824 31 c 0
 824 14 810 0 794 0 c 0
 779 0 766 11 764 26 c 2xa4
 712 428 l 2
 712 429 712 430 712 431 c 0xa8
 712 448 726 462 742 462 c 0
962 462 m 0
 977 462 990 451 992 436 c 2xa2
 1044 34 l 2
 1044 33 1044 32 1044 31 c 0
 1044 14 1030 0 1014 0 c 0
 999 0 986 11 984 26 c 2xa1
 932 428 l 2
 932 429 932 430 932 431 c 0xa2
 932 448 946 462 962 462 c 0
EndSplineSet
Validated: 1
EndChar
